<mxfile host="app.diagrams.net" modified="2023-06-11T15:45:49.457Z" agent="Mozilla/5.0 (Windows NT 10.0; Win64; x64; rv:109.0) Gecko/20100101 Firefox/114.0" etag="wDGBDJjE9rN6uH4g_WZ5" version="21.3.8">
  <diagram name="Page-1" id="vCfsZQ_yQjkeXrbsmZz8">
    <mxGraphModel dx="2074" dy="1106" grid="1" gridSize="10" guides="1" tooltips="1" connect="1" arrows="1" fold="1" page="1" pageScale="1" pageWidth="850" pageHeight="1100" math="0" shadow="0">
      <root>
        <mxCell id="0" />
        <mxCell id="1" parent="0" />
        <mxCell id="o3sZ8iPzQSWBcQItjnmb-1" value="" style="html=1;verticalLabelPosition=bottom;align=center;labelBackgroundColor=#ffffff;verticalAlign=top;strokeWidth=2;strokeColor=#0080F0;shadow=0;dashed=0;shape=mxgraph.ios7.icons.smartphone;" vertex="1" parent="1">
          <mxGeometry x="550" y="850" width="50" height="100" as="geometry" />
        </mxCell>
        <mxCell id="o3sZ8iPzQSWBcQItjnmb-2" value="" style="ellipse;shape=cloud;whiteSpace=wrap;html=1;fillColor=#fad7ac;strokeColor=#b46504;" vertex="1" parent="1">
          <mxGeometry x="410" y="200" width="800" height="560" as="geometry" />
        </mxCell>
        <mxCell id="o3sZ8iPzQSWBcQItjnmb-11" style="edgeStyle=orthogonalEdgeStyle;rounded=0;orthogonalLoop=1;jettySize=auto;html=1;" edge="1" parent="1" source="o3sZ8iPzQSWBcQItjnmb-3" target="o3sZ8iPzQSWBcQItjnmb-7">
          <mxGeometry relative="1" as="geometry" />
        </mxCell>
        <mxCell id="o3sZ8iPzQSWBcQItjnmb-3" value="" style="sketch=0;outlineConnect=0;fontColor=#232F3E;gradientColor=none;fillColor=#3F8624;strokeColor=none;dashed=0;verticalLabelPosition=bottom;verticalAlign=top;align=center;html=1;fontSize=12;fontStyle=0;aspect=fixed;pointerEvents=1;shape=mxgraph.aws4.sensor;" vertex="1" parent="1">
          <mxGeometry x="690" y="30" width="110.77" height="120" as="geometry" />
        </mxCell>
        <mxCell id="o3sZ8iPzQSWBcQItjnmb-4" value="" style="verticalLabelPosition=bottom;html=1;verticalAlign=top;align=center;strokeColor=none;fillColor=#00BEF2;shape=mxgraph.azure.laptop;pointerEvents=1;" vertex="1" parent="1">
          <mxGeometry x="990" y="850" width="180" height="130" as="geometry" />
        </mxCell>
        <mxCell id="o3sZ8iPzQSWBcQItjnmb-5" value="" style="sketch=0;points=[[0,0,0],[0.25,0,0],[0.5,0,0],[0.75,0,0],[1,0,0],[0,1,0],[0.25,1,0],[0.5,1,0],[0.75,1,0],[1,1,0],[0,0.25,0],[0,0.5,0],[0,0.75,0],[1,0.25,0],[1,0.5,0],[1,0.75,0]];outlineConnect=0;fontColor=#232F3E;gradientColor=#F78E04;gradientDirection=north;fillColor=#D05C17;strokeColor=#ffffff;dashed=0;verticalLabelPosition=bottom;verticalAlign=top;align=center;html=1;fontSize=12;fontStyle=0;aspect=fixed;shape=mxgraph.aws4.resourceIcon;resIcon=mxgraph.aws4.lambda;" vertex="1" parent="1">
          <mxGeometry x="710" y="405" width="168" height="168" as="geometry" />
        </mxCell>
        <mxCell id="o3sZ8iPzQSWBcQItjnmb-13" style="edgeStyle=orthogonalEdgeStyle;rounded=0;orthogonalLoop=1;jettySize=auto;html=1;entryX=0.58;entryY=0.05;entryDx=0;entryDy=0;entryPerimeter=0;" edge="1" parent="1" source="o3sZ8iPzQSWBcQItjnmb-6" target="o3sZ8iPzQSWBcQItjnmb-1">
          <mxGeometry relative="1" as="geometry" />
        </mxCell>
        <mxCell id="o3sZ8iPzQSWBcQItjnmb-14" style="edgeStyle=orthogonalEdgeStyle;rounded=0;orthogonalLoop=1;jettySize=auto;html=1;entryX=0.08;entryY=0.5;entryDx=0;entryDy=0;entryPerimeter=0;" edge="1" parent="1" source="o3sZ8iPzQSWBcQItjnmb-6" target="o3sZ8iPzQSWBcQItjnmb-4">
          <mxGeometry relative="1" as="geometry">
            <Array as="points">
              <mxPoint x="655" y="915" />
            </Array>
          </mxGeometry>
        </mxCell>
        <mxCell id="o3sZ8iPzQSWBcQItjnmb-6" value="" style="shape=image;verticalLabelPosition=bottom;labelBackgroundColor=default;verticalAlign=top;aspect=fixed;imageAspect=0;image=data:image/png,iVBORw0KGgoAAAANSUhEUgAAAoAAAAHgCAYAAAA10dzkAAAgAElEQVR4XuydCZwcRdn/n+459t6cm93c4Ug4PMALeEEEPFBR/giKoIiA3IcgGA4hJAQ5BbkhgFzhRhGQV0WBFwUE5FJASCAxJzl3s7vJ3jtH1//z9Mwkm83uTM9MTXVXza/fdz8T2e56nvr+qmt+W11VbREOEAABEAABEAABEACBsiJglVVtUVkQAAEQAAEQAAEQAAGCAUQjAAEQAAEQAAEQAIEyIwADWGaCo7ogAAIgAAIgAAIgAAOINgACIAACIAACIAACZUYABrDMBEd1QQAEQAAEQAAEQAAGEG0ABEAABEAABEAABMqMAAxgmQmO6oIACIAACIAACIAADCDaAAiAQFkReOnmK8TSf/ydWj9cSIdO35FqPrUbNc65AX1hWbUCVBYEQACdHtoACIBAWRB4Y/7N4qPnn6X1779PiVicohUV9J0pk8lOJsiuraaKT+5GjRddgz6xLFoDKgkCIIDODm0ABEDAeALzj/yGaFu2jGI9vWSHw2RZFoUsiw6ZOsX9JMchIRwK1dVSdPp0apyNEUHjGwUqCAJlTgAGsMwbAKoPAiYTuOew/UXbio9JJB0iy3KNX+bYygBm/qMQREKQFY1QxS4zqPGSW9BHmtxAUDcQKGMC6NzKWHxUHQRMJfDQMQeLNe++R0Qhsuyhu7khDeBAIGwaozZV/89e1HD25egrTW0sqBcIlCkBdGplKjyqDQImEnj8jKPE8ldeIScp3Ee92Y6cBpAv5gHBeJzsuiqq2e8AGnPyBegzTWw4qBMIlCEBdGZlKDqqDAImEXj9vpvE4heep3X/eY8S8QSFI1H3cW+uw5MBzBTiCBLxGNl11VT56d1p3C9+lTtArgTwexAAARDwkQA6MR/hIzQIgEDhBN5+5A7xwdNPUuvSZRTr7iE7Etlqjl+ukvMygJuNoEPCSVKovo4i02dQ0+zr0YfmAo3fgwAIBJIAOq9AyoKkQAAEshG497tfFm0rPyYnHiey7LyMX6bcggzggBFBsgRZFRUU3Xk6Nc25GX0pmiwIgIBWBNBpaSUXkgWB8ibw4NEHibXvLyAS9rCLO7wSKsoADgziOESREFXv+QVq+PmV6FO9CoDzQAAEfCWAzspX/AgOAiDghcBvTz1CrHjtnySERXYo5OWSnOdIM4DpSLxYxKquoJov7U9jT7sIfWtOBXACCICAnwTQSflJH7FBAASGJfD6vTeKhc/8iVoWfUTJhJNe3CEPmGwD6GYmBIlYjOzaKorutCs1zb0Rfaw8yVASCICARALonCTCRFEgAALFE3jrwXliwZ//l1qX/Jdi3b15L+7wmkFJDGAmOL9ZJJmg0IgRFJ0xgxovvg59rVdhcB4IgIASAuiUlGBGEBAAgVwE3n7kTvHeE49R+4qPKdEfI8subHFHrjiZ35fUAA4wgvxPq6qSojvtiMUiXsXBeSAAAiUnAANYcsQIAAIgkIvAAz86SKx7fyFbpaIXd+SKpdQAZoKlXzFHIYuq99qDGmZehb7Xq1A4DwRAoCQE0AmVBCsKBQEQ8ELgsRO/K1a88aa7qtcOy1nc4SUun6NkBHCIZEQ8QVZVmGr23Y/GnjEbfbBXwXAeCICAVALofKTiRGEgAAK5CLx+703iw2f+SM0ffUhOkigUjeS6pCS/98sAupXhxSL8ZpHqSqrY9ZPUOOcG9MUlURmFggAIDEcAnQ7aBgiAgBICbz5wi/jwL8/QhsWLKdbDb+6IFrSBs6xkfTWAmUrwYpFEnEKjRlJ0xk7UOOvX6JNlCYxyQAAEshJAZ4MGAgIgUHIC933/QNG+YgXFe/vIskPK5vllq1ggDOBAIygE2bXVFJ0xnZpmY/uYkjdKBACBMicAA1jmDQDVB4FSEki9uSO9uIMDWcHpcgJlADMiZBaLhNNvFpmJN4uUsn2ibBAoZwLB6Y3LWQXUHQQMI/DIcd8RH//rX2RRiKyQHcjaBdIADiAlEgmyKsJU88V9aOyZl6KvDmQrQlIgoC8BdCr6aofMQSBQBF66+XKx9OUX3cUdwiEKRfxZ3OEVStANoFsPd7FInKyqKFV+4lNYLOJVXJwHAiCQkwAMYE5EOAEEQCAbgTfm3ywWPf8srfvgfUr0xykU9Xdxh1e1tDCAmcqkF4vwHMGKT+xGjbOuQd/tVWicBwIgMCQBdCJoGCAAAgUTmH/k10XbsuUU7+klKxz2dVVvvpXQygAONILCoVBdLUWm82IRbB+Tr+44HwRAIEUABhAtAQRAIG8C9xy2n2hbsYqE4/C7OwK1uMNrZbQ0gJnKZRaLRCNUsfN0app7K/pyr8LjPBAAARhAtAEQAIH8CDx0zMFi9TvvkWUFYyuX/LLf+mytDeDAqiQdoohN1XvvRQ1nXw4jWEyjwLUgUEYE0FmUkdioKggUSuDxM34olr/6KjkJQXY4XGgxgbrOGAPIVAW5i0Xsuiqq2e8AGnPyBejbA9XakAwIBI8AOongaYKMQCBQBOYd+DnRvnINRauqtHzUOxxMowxgppKOIKevh6I7TKOJtzyK/j1QdxKSAYFgEUAHESw9kA0IBI7AvK9/QXSubTZm5C8D2EgDyIOBiQSFx4+jSbf/Dv174O4mJAQCwSGADiI4WiATEAgkgdu/sYfoWLMeBjCQ6myblGsAJzTSpHm/Rf+uiWZIEwT8IIAOwg/qiAkCGhGAAdRIrMwIIAygXqIhWxDwgQAMoA/QERIEdCIAA6iTWulHwDCAeomGbEHABwIwgD5AR0gQ0IkADKBOasEA6qUWsgUB/wjAAPrHHpFBQAsCMIBayLQ5ScwB1EsvZAsCfhGAAfSLPOKCgCYEYAA1ESqdJgygXnohWxDwiwAMoF/kERcENCEAA6iJUDCAegmFbEHAZwIwgD4LgPAgEHQCMIBBV2jr/DACqJdeyBYE/CIAA+gXecQFAU0IwABqIhRGAPUSCtmCgM8EYAB9FgDhQSDoBGAAg64QRgD1UgjZgkAwCMAABkMHZAECgSUAAxhYaYZMDI+A9dIL2YKAXwRgAP0ij7ggoAkBGEBNhMIjYL2EQrYg4DMBGECfBUB4EAg6ARjAoCuER8B6KYRsQSAYBGAAg6EDsgCBwBKAAQysNHgErJc0yBYEAkUABjBQciAZEAgeARjA4GmSLSPMAdRLL2QLAn4RgAH0izzigoAmBGAANREqnSYMoF56IVsQ8IsADKBf5BEXBDQhAAOoiVAwgHoJhWxBwGcCMIA+C4DwIBB0AjCAQVdo6/wwAqiXXsgWBPwiAAPoF3nEBQFNCMAAaiIURgD1EgrZgoDPBGAAfRYA4UEg6ARgAIOuEEYA9VII2YJAMAjAAAZDB2QBAoElAAMYWGmGTAyPgPXSC9mCgF8EYAD9Io+4IKAJARhATYTCI2C9hEK2IOAzARhAnwVAeBAIOgEYwKArhEfAeimEbEEgGARgAIOhA7IAgcASgAEMrDR4BKyXNMgWBAJFAAYwUHIgGRAIHgEYwOBpki0jzAHUSy9kCwJ+EYAB9Is84oKAJgRgADURKp0mDKBeeiFbEPCLAAygX+QRFwQ0IQADqIlQMIB6CYVsQcBnAjCAPguA8CAQdAIwgEFXaOv8MAKol17IFgT8IgAD6Bd5xAUBTQjAAGoiFEYA9RIK2YKAzwRgAH0WAOFBIOgEYACDrhBGAPVSCNmCQDAIwAAGQwdkAQKBJQADGFhphkwMj4D10gvZgoBfBGAA/SKPuCCgCQEYQE2EwiNgvYRCtiDgMwEYQJ8FQHgQCDoBGMCgK4RHwHophGxBIBgEYACDoQOyAIHAEoABDKw0eASslzTIFgQCRQAGMFByIBmVBF6/90ax8Jk/UvNHH9E+o0bT5IbRZI8dQ5GmSRSeOJnGnHAO7g8iggFU2SqLj4U5gFsYvjH/FrFp9WpqXbqENn68jDpbWmiUQ/TVGTtQ1a6fpMZLbsQ9XnyTQwmaEkDj11Q4pF04gTfm3yw+evYvtGHxIurv6aVwJEpfbGqiCZWV5DhJomSCKGSTXVdLofqRZNePpMj202jsSeeX5f0CA1h4W/PjynI3gH+Ze47YsPi/1NW8nno3tVGsu5ccR1AoHCayQ9RYXUX7NY4jSsQpNGokRWfsRI2zfl2W97Yf7RMxg0MAjT44WiCTEhN4+5E7xH+eepzal6+keG8vWXaYLNsivgn2aWykCdVVJDI58D+EQ8IR7qcVCZNVWUF2RVVqlHDH7ajhpAvL4v6BASxxw5RcfLkZwKfPP1G0r1hJXS2tFO/ppnhfHzmJBFl2iCzLJsuyyL3J+ZYmonGVlbTf+KbUf3IcEsKhUG0NRafvSI1zbiqLe1pyk0NxmhJAY9dUOKSdH4G7D91PtK/4mIQQ5Fo+/lJIH0MawKGKFxl7KIgsO1WGZVFk6gSKztiZxp70CyPvJxjA/Nqa32ebbgCfmX2GWLvgA2pfvjr9RxqbuNS9mTJ7w9+G2xjAzX/w8R96gigSpoqdZ1DTpbcaeS/73TYRP1gE0MiDpQeykUzg4WMOFqv+/e7m0b6hivdsAIfLzREkHIcoGSerupKiu+5MFVO2o9E/mWnE/QUDKLlRlrg40wzgXy45S6xf8D41L15Cyf442WEeuQ+5o/f5HsMawIEFJZNEEZtq9t6bxp59Wf5B8k0K54OATwTQuH0Cj7ClI/DSzVeIJS//jVo++ojIsciOhLMGK9oADixdCBL8BcKPlpwkhUbWUXhsA0XGT6WGCy7X8n6DASxdWy1FyTobwBeuuURsXLWS2pYtps7m9dS3sZOsUMg1fbYd2vwot1BungwgF84Dgok4WRVhqvzEp7BYpFDguC7QBLT8Qgo0USTnGwFe1bv4hedp3fvvUyIep1AkmnoklOOQagAHx2IjyIYwkSCqjFBoxAgK1Y2g0NhGapx9be7kciWv4PcwgAogSwyhkwH8+/VzxPoPF1Hn2tXU3baB+jZuomTCoVAkQnaIR/lsiWSGmAOYq3S+f+NxsuuqqeKTu1HjRddocc/mqhZ+DwJMAI0Z7UB7Am8/fId4/w9PUNvy5RTr6SE7HPFk/DIVL6kBHDQ6SPy4WDiphSUVFWRXVZFdU0uh8Y3UNPuGQN6PMIB63SJBNoDPXX6uaF60iLqaN1B/VwfFe3oo0d/vzql1DZ87t7Z0vD2PAA71hxyP6NfVUXTGdGoM6L1aOnIo2UQCJbzVTMSFOgWNwD2H7S/aV64iJ5F0J397GfEbXAdlBnBw4MyiEv7kJGw7NVexqoIi20+hpjm3BOL+hAEMWqvPnk+QDODfrrlQrFvwAW1YupziPX3kJBOp+bLu8ENqBX62RRuyyRdsADOJ8L3Kt2tFhKI77UhNc7FYRLZGKE8dgUB8wairLiKZQuDBo78l1r73PpFV2GTwgRx8M4DZxHC3p0itTLRH1FB0xx2oafbNvtyvMIB63TV+GsAXr58r1vznX7T2/QXu/nvugg02epIf5RaqSNEGcGBgNrIRi6r33JMafn6lL/dmoRxwHQi4f3sBAwjoROB3px0plr/6Ggle3BEOSUk9kAZwYM0yC0t4LiEJCk+dSJGp21HjeVcruX9hAKU0M2WFqDSAr9xxnVj3n7epZckial++yl2dy49y+UflyJ5XuFINIAfNLBapqaTa/fanMaeUx96gXnnjvGATUPIFEmwEyE4HAo+d8n2x8rV/UjLpuG/ukPnlEngDOFigZJJE0iGRiJFdW032iHoKj2ygcNN4aph5qfR7GgZQhztkS46lMoD/vOvXYu2CD2nTqpXU3bKOutvaKdEfoxDPuc2YvoCjkm4AM/XlP9LiMbKrK6lq7y9Sw1mXSL8PA44W6WlIAI1UQ9HKMeWb9t1F9HX0pkYWJB/aGcBBo4PuljM8OmgR2TVVZFfXkl1XT+HxjTTu/OJHCWEAJTe4EhcnywD+49bLxLoPP6KNK1dRf2cHxbo63Fcn8sw9Nnz8WLeQObclrn7W4ktmADNR+Q0kY2ppyj1/wnern0IjticCaKSeMOEkvwnc+pXdRE9rR0nmEmltAAcLk5436L7xhDfK5TlY4QjZI+souuP2NO6c/OcqwQD63frzi1+oAXz5ll+KlsUfUcviJdTbvomS8bj7SjW3LaXfsKGb4dvm9hj8Krj80OY+23HIbhhBk+98Ct+tuWnhDJ8JoJH6LADCeyMAA+iN07BnpVcv8qQl/r/w+AaqmD6DGs7OvTk1DGCR7BVf7tUAvn7vTWLNu29S84cf0qa1zaktWDy8Tk1xdaSGK/kIIAygVL1QWGkJwACWli9Kl0QABlASyEwx7ptK+PV1SXeD6ui0yVSx3XQac/rF2/QJt39zT9Gxep27otOkI2RZdMjUKcSfJh1sACMTm2jibY9tU7EnzvyRaF+5gtpWfOy+Vs0KhckO8fZDcjdcDipPGMCgKoO8/CBgVs/nB0HEVEIABrCEmN1Vxg6Rk0y99aC+hkJjxlBF0yTaFArRcy88R52tm1yjYNJhqgG0hKB4TTUtmziV1rc0U+fqFdTV0kL9nd0UjlakV+ryhsvl1/3DAJp0B6MuxRIovx6gWGK43hcCMIAKsfPbSpwk2Y5DGxNxeqVtI3XGYmQbZhhMNYCsU0c8Ti+sWEEd/TGKRCKu6XPnhJb5AQNY5g0A1d+KAHoENAgtCMAAqpeJjcTGWIz+sW49dfLIIAygehEKiMg6bYrF6GVDdSsAyeZLYACLoYdrTSMAA2iaoobWBwZQvbAwgOqZy4gIAzg8RRhAGS0MZZhCAAbQFCUNrwcMoHqBYQDVM5cREQYQBlBGO0IZ5hOAATRfYyNqCAOoXkYYQPXMZUSEAYQBlNGOUIb5BGAAzdfYiBrCAKqXEQZQPXMZEWEAYQBltCOUYT4BGEDzNTaihjCA6mWEAVTPXEZEGEAYQBntCGWYTwAG0HyNjaghDKB6GWEA1TOXEREGEAZQRjtCGeYTgAE0X2MjaggDqF5GGED1zGVEhAGEAZTRjlCG+QRgAM3X2IgawgCql7EcDOB3pk4xbn9DGEAYQPW9BSLqSAAGUEfVyjBnGED1optqADOdnmVZdPCUyVQVChHvDyf4lXjqMUuPCAMIAyi9UaFAIwnAABopq3mVggFUr6lJBtA1doIoJog64wnqiTvUm3CoJhymppoqmlxbTTPqa2hURYRCRO6ooPvik7Qj1MkYwgDCAKrvLRBRRwIwgDqqVoY5wwCqF103A+h2ZmnTlhRESSEoIQT1JJzUT9yhmOO4ps4d8UubQjZ6PBpoE9GIiihNrquh7WqraVJVBdVGwxS1bfcnZPMoIZET8JFCGEAYQPW9BSLqSAAGUEfVyjBnGED1ogfdAHLnlXo9seWavbgjKOEI6k861J1g45d0R/kyh5fOLvMo2BFE4ZBFE9kIVldTU1UFjauKuiOGI6IRqg7ZxA+M+bygGUIYQBhA9b0FIupIwEufqGO9kLNhBGAA1QsaRAOYMX1s1Njw9ScFxTabvtRj3UTSIYuHAlP/X9TB5s79IaKaSJgaq6toSk0VNVVX0KholEZVRGlUNExhy3LPS7It9Pl5MQwgDGBRjR4Xlw2BYvvHsgGFivpLAAZQPf8gGMAtCzbY8BF1J5Ob5++xAcyM+rHp2jIiWBpW7uNfEu5oI7Ph0cC6aIRGRsM0saaaJtSwOaykUdFIelQwNUKo+oABhAFU3eYQT08CMIB66lZ2WcMAqpfcbwPI3onn7nW58/eSFEumzBfP6+OpfJk5f351YpmRQZ5MGAnZVBkKUVXIptFVUZpUU0tTaytpak0VRexUhgPzLKUvhAGEAVTfWyCijgT86jt1ZIWcfSQAA6gefikN4OaOx8osrEgt2uDHub1Jh7rcVbpJSjqpR6qZRRtB7bAyC0p4XqC7oCT9UxMO0YSaappaV03TaqppVDREkVDINYX82JiPzFxCWQrDAMIAympLKMdsAkHtT82mjtrlTQAGMG9kRV8g2wAOXLSReXTLpo9H+br5J550H+kOHi0ruiI+FpAZ6eM9BtkYjqyI0rT6WhpfXUGTqiqpJhJKPUqOhN1VyMyj2EUlMIAwgD42eYTWiAAMoEZilXOqMIDq1S/WAA40fGxqeHSPH+PyViyZrVn6EklyRGrPvXLojHg0k00e/18oZFNjVRVNrK6kqbVVNLoyQiMivLAk4j5KdheVpFcZ56M+DCAMYD7tBeeWL4Fy6HPLV12Dag4DqF7MQgzgwFW6vELXHd2LJ93VulsWbfCa2vIxfdmUS5m81BtIqtJbzPCikjFVFTSltsY1h+Oroq459rrlDAwgDKD63gIRdSQAA6ijamWYMwygetHzMYDckfAq3dTjXN5/L0kxh9w5fLxoI7NKV8bWLOpJqInIj4nZGrMptG2beP4gv6ZuREWExvM8wtpqmlpTSfWR0DZbzQxcVAIDCAOopsUiiu4EYAB1V7BM8ocBVC/0QAPYFY+7Cxv4YJOSeSMGL9joSQjX9PUlnG1GqdDBFK5bavFLytqFbNtdNMKrjcdVV9K02hrarq6KmiorKGRbFLFsCtvu7ofu4/SN/TF6ad166hygW+GZmHMl0xxXWUn7jW8qzZQDxyG7YQRNvvMpNH1zmo2xNUEjNVZasyoGA6hez4wBfHHtOtoYi7sJ8Is12OzxKl0e7eNRKxzqCAymXRUJ06TaappcXUXTaiupLhJxN6yOJ5P06vr11AEDuJU4MIDq2ioiBZ8ADGDwNUKGRAQDqL4ZsAHkkb//W9tCK7p6qb0vRhv74xRytzih9Ce6EPXKbImYWVSSmUvYWFNFU+tqaHxVhDb291JvIuGuPsaRIgADiJYAAlsIoGdAa9CCAAygPzKxwWiPJ6g7nnDNRFc8Qev6Y9TaF6eW3n5q6+93R5t4CxN3/7v0pz/Zmh11y5YyKSvDJrwiFKKKsE0VtkWVIct9HMydetgiqgyHSvOYU2PMMIAai4fUpROAAZSOFAWWggAMYCmoeiuTR/x4EMkmyx1B6U0mqS+Z2qi5L5mkjliC1vT205qePmrvj9GG3r7Nj4Yzo0/oaLyxHnxWxvQxPzZ60ZBN1SGLqsIh1+SxNiE7/emO9KVnDaY3zy4sqrlXwQCaqy1qlj8B9Mv5M8MVPhCAAfQB+jAhUwsN0gsO0otC4o7jbvPivqrNEa4hbO7rp5a+GK3q7HZHEPl3mY2O+ZFl5siUFZwaqslk4Hw+l2l6AQeTDYfI3SC6IsQje/yaucy2OanH7zzSOvDATExvmsEAeuOEs8qDAAxgeeisfS1hAIMv4eDOZKAp6U04tLa3n1b19rkrVNd391AXbxWTdNwNovuTSUo4Du8OuHlTaFOM4daPbmnz/EkesHNH8CyLqiIWRUOh1OheyHbPwSGfAAygfKYoUV8C6Gb01a6sMocB1F9uXlSSGeVi09PWH6f1fTFqj8VpbXevawx7EknqiCfcR8s98YQ7mshmiK8M8WfAFzRseScw65V6/Rtv35LaqiU1shexbfcRbtQmd3QvYqcWJ6R3fMl86C94AGsAAxhAUZCSbwRgAH1Dj8D5EIABzIeWHudy58OmMPVI03L3F+QtZnjLGTaCPYm4u9ikuS9Gm+IJWt/TSx2xeGqjZEpdlxkx9KvGWwwfm72UuePFF1Hbchdm8CNcNn/uHn786Q7tpcYEU/v84VBJAAZQJW3ECjoBGMCgK4T8XAIwgOXREDJm0F10YlnuvEI2hf38/mBejZxIUlt/jFb39NO63j7a1B+jjv74lsfG6UfIpaK12bAJogjPz+OFGe5bO1IjeRmzx7mz6bOt1KKMzJRHGL5SKeOtXBhAb5xwVnkQgAEsD521ryUMoPYSFlSBzCNjHuvLLHzgV8vxvMGY45Dj8KvnHFrR00stvTFa39tHrb197iPkzB55KQMm3NHCzL4ow3V8A1fdcsKZ+GxM+V29VeHMogzbfSS99ePpLUbPHeErqMa4qJQEYABLSRdl60YABlA3xco0XxjAMhV+mGpv7rjS/8g8TnXfpyuIWvvj1NIfo+VdPe4oYVtfP/FClLhw3IUnvGqZr3HnJaaNnPs4ml+7ZllUEebHtyGqDvOijBCF0+4THabe7RAGUG/9kL1cAujP5PJEaSUiAANYIrCGFrvVVjUWj8xZtKqnj9picVrX20ttvfxWk5i7kTU/yq0I2e7qW/6sDGFRhqHNAm8CMVVY1KsgAjCABWHDRaoJwACqJm5evMwIn/vGEouoI5akP368Ml1RgXl65km+TY0wAlgGIqOKngnAAHpGhRP9JAAD6Cd9M2PzauKnVqx0N6fGUR4EYADLQ2fU0hsBGEBvnHCWzwRgAH0WwMDwbPz+AANooLLDVwkGsKzkRmVzEIABRBPRggAMoBYyaZUkDKBWcklJFgZQCkYUYggBGEBDhDS9GjCApiusvn4wgOqZ+x0RBtBvBRA/SARgAIOkBnIZlgAMIBqHbAIwgLKJBr88GMDga4QM1RGAAVTHGpGKIAADWAQ8XDokARjA8msYMIDlpzlqPDwBGEC0Di0IwABqIZNWScIAaiWXlGRhAKVgRCGGEIABNERI06sBA2i6wurrBwOonrnfEWEA/VYA8YNEAAYwSGogl2EJwACiccgmAAMom2jwy4MBDL5GyFAdARhAdawRqQgCMIBFwMOlQxKAASy/hgEDWH6ao8bDE4ABROvQggAMoBYyaZUkDKBWcklJFgZQCkYUYggBGEBDhDS9GjCApiusvn4wgOqZ+x0RBtBvBRA/SARgAIOkBnIZlgAMIBqHbAIwgLKJBr88GMDga4QM1RGAAVTHGpGKIAADWAQ8XDokARjA8msYMIDlpzlqPDwBGEC0Di0IwABqIZNWScIAaiWXlGRhAKVgRCGGEIABNERI06sBA2i6wurrBwOonrnfEWEA/VYA8YNEAAYwSGogl2EJwACiccgmAAMom2jwy4MBDL5GyFAdARhAdawRqQgCMIBFwMOlQxJwhKAnV6wk/sRRHgRgACnhGOcAACAASURBVMtDZ9TSGwEYQG+ccJbPBGAAfRZAw/Bu52ZZlOnk+JN/EkK4pi/mOPTsqtXU7zjExoBHBDPnpC5NXYlOUkPxh0kZBtAcLVGT4gmgbyueIUpQQAAGUAFkDUOwR2OLt9nkpf83G7z+pEMJ4bjGLpZ0iG1e3BHUFY9RX9KhrnicxlVVup9xx6GeZNI9L3V+0v1ks8j/ZuPAhjBjEAebSw3RlWXKMIBlKTsqPQwBGEA0DS0IwABqIVNJknRN14DRuIHma1MsZd66EwnqSybcUb2eRIISjqBe19AlXRPXnzZ0/OkaRosobFn0ve2muZ+ZkcLeBJ/vuOdzGVxe5tqOWMz931wux8jE3SY/jByWpB3IKBQGUAZFlGEKARhAU5Q0vB4wgIYLnH7UOvixK//vjljcNWGdiTjFk2z24tSTSLoGrC+ZdB/n8r/jQrijdnyOIEH2QNM4hCkLWRYdMnUK8WfmyJi5rR4bW5ZbXn8iNToYF44bz/2347ijhp3xOHXH2YBynolUnskEHikHrNnCAAZMEKTjKwEYQF/xI7hXAjCAXkkF67zBHUxmucXmZRfpBRh9jkOdsbhrpHiULTPaxiYq6aTm7LHhGvjpEJE9oLr5ztkbygBmo5caeUw9ck7/0/0X55FIG0KuDo8gcv3YHLJ57XOS1MWfyaRrCtko8qgkpes+cAnK4OUo6KDltmcYQLk8UZreBNC/6K1f2WQPAxg8qbfMu9t6sUTGqDmCzVHKtGWMGz+y5cen/MiWzV48maSORNz1Qvzl7BogweNtW/7tPq8daPQkocjXAOYKO1RnOlSdMuZwUyzmLkBhc8g8eJSzK5HYbHQz3NxPNprpRSoZ85nhgk48lzJbfg8D6J0VzjSfAPoO8zU2ooYwgP7JyI9SBz8S5REvHsXKjHzxaJe7utYR1BFPj3a58/KS1BOPuwss+JzMkRmt22xmfKiebAOYbxU2d74D+HIZzIwXprBRdkcNXXPIi1RScxtd9lvx5xXMztaPvAfMm8w3L5PPhwE0WV3ULV8CMID5EsP5vhCAAfQFuzsM1+skKJbkBRGphRFxhxdBJFPmjhdesDlJJDYvusgsqBg4QhjEjsZvAzicogMXuWRWHadG+wTxIhVmzfxZj9SnQ73pEcTUqmWeD5lavIJjawIwgGgRILCFQBD7ZegDAtsQgAFU3yh45I8f0769YQPxo9uBo31uNgO3RdFw5WtQDWA2pbdZpDJg2xs2gpmRQX68/PaGVtcsZhbDqG9BwYsIAxg8TZCRfwRgAP1jj8h5EIABzAOWpFPZOGyMxeiltetcIxiyU0suTOk0dDSAucwhm3KuFxvAF9O6wQBuoQYDKKlzQDFGEDClLzdCDFRieAIwgOpbR8YA/mPdetcAmmYkTDOAmRbCOrEBfNlQ3Yq5E2AAi6GHa00jAANomqKG1gcGUL2wMIDqmcuICAM4PEUYQBktDGWYQgAG0BQlDa8HDKB6gWEA1TOXEREGEAZQRjtCGeYTgAE0X2MjaggDqF5GGED1zGVEhAGEAZTRjlCG+QRgAM3X2IgawgCqlxEGUD1zGRFhAGEAZbQjlGE+ARhA8zU2ooYwgOplhAFUz1xGRBhAGEAZ7QhlmE8ABtB8jY2oIQygehlhANUzlxERBhAGUEY7QhnmE4ABNF9jI2oIA6heRhhA9cxlRIQBhAGU0Y5QhvkEYADN19iIGsIAqpcRBlA9cxkRYQBhAGW0I5RhPgEYQPM1NqKGMIDqZYQBVM9cRkQYQBhAGe0IZZhPAAbQfI2NqCEMoHoZYQDVM5cREQYQBlBGO0IZ5hOAATRfYyNqCAOoXkYYQPXMZUSEAYQBlNGOUIb5BGAAzdfYiBrCAKqXEQZQPXMZEWEAYQBltCOUYT4BGEDzNTaihjCA6mWEAVTPXEZEGEAYQBntCGWYTwAG0HyNjaghDKB6GWEA1TOXEREGEAZQRjtCGeYTgAE0X2MjaggDqF5GGED1zGVEhAGEAZTRjlCG+QRgAM3X2IgawgCqlxEGUD1zGRFhAGEAZbQjlGE+ARhA8zU2ooYwgOplhAFUz1xGRBhAGEAZ7QhlmE8ABtB8jY2oIQygehlhANUzlxERBhAGUEY7QhnmE4ABNF9jI2oIA6heRhhA9cxlRIQBhAGU0Y5QhvkEYADN19iIGsIAqpcRBlA9cxkRYQBhAGW0I5RhPgEYQPM1NqKGMIDqZYQBVM9cRkQYQBhAGe0IZZhPAAbQfI2NqCEMoHoZYQDVM5cREQYQBlBGO0IZ5hOAATRfYyNqCAOoXkYYQPXMZUSEAYQBlNGOUIb5BGAAzdfYiBrCAKqXEQZQPXMZEWEAYQBltCOUYT4BGEDzNTaihjCA6mWEAVTPXEZEGEAYQBntCGWYTwAG0HyNjaghDKB6GWEA1TOXEREGEAZQRjtCGeYTgAE0X2MjaggDqF5GGED1zGVEhAGEAZTRjlCG+QRgAM3X2IgawgCqlxEGUD1zGRFhAGEAZbQjlGE+ARhA8zU2ooYwgOplhAFUz1xGRBhAGEAZ7QhlmE8ABtB8jY2oIQygehlhANUzlxERBhAGUEY7QhnmE4ABNF9jI2oIA6heRhhA9cxlRIQBhAGU0Y5QhvkEYADN19iIGsIAqpcRBlA9cxkRYQBhAGW0I5RhPgEYQPM1NqKGMIDqZYQBVM9cRkQYQBhAGe0IZZhPAAbQfI2NqCEMoHoZYQDVM5cREQYQBlBGO0IZ5hOAATRfYyNqCAOoXkYYQPXMZUSEAYQBlNGOUIb5BGAAzdfYiBrCAKqXEQZQPXMZEWEAYQBltCOUYT4BGEDzNTaihjCA6mWEAVTPXEZEGEAYQBntCGWYTwAG0HyNjaghDKB6GWEA1TOXEREGEAZQRjtCGeYTgAE0X2MjaggDqF5GGED1zGVEhAGEAZTRjlCG+QRgAM3X2IgawgCqlxEGUD1zGRFhAGEAZbQjlGE+ARhA8zU2ooYwgOplhAFUz1xGRBhAGEAZ7QhlmE8ABtB8jY2oIQygehlhANUzlxERBhAGUEY7QhnmE4ABNF9jI2oIA6heRhhA9cxlRIQBhAGU0Y5QhvkEYADN19iIGsIAqpcRBlA9cxkRYQBhAGW0I5RhPgEYQPM1NqKGMIDqZYQBVM9cRkQYQBhAGe0IZZhPAAbQfI2NqCEMoHoZYQDVM5cREQYQBlBGO0IZ5hOAATRfYyNqCAOoXkYYQPXMZUSEAYQBlNGOUIb5BGAAzdfYiBrCAKqXEQZQPXMZEWEAYQBltCOUYT4BGEDzNTaihjCA6mWEAVTPXEZEGEAYQBntCGWYTwAG0HyNjaghDKB6GWEA1TOXEREGEAZQRjtCGeYTgAE0X2MjaggDqF5GGED1zGVEhAGEAZTRjlCG+QRgAM3X2IgawgCqlxEGUD1zGRFhAGEAZbQjlGE+ARhA8zU2ooYwgOplhAFUz1xGRBhAGEAZ7QhlmE8ABtB8jY2oIQygehlhANUzlxERBhAGUEY7QhnmE4ABNF9jI2oIA6heRhhA9cxlRIQBhAGU0Y5QhvkEYADN19iIGsIAqpcRBlA9cxkRYQBhAGW0I5RhPgEYQPM1NqKGMIDqZYQBVM9cRkQYQBhAGe0IZZhPAAbQfI2NqCEMoHoZYQDVM5cREQYQBlBGO0IZ5hOAATRfYyNqCAOoXkYYQPXMZUSEAYQBlNGOUIb5BGAAzdfYiBrCAKqXEQZQPXMZEWEAYQBltCOUYT4BGEDzNTaihjCA6mWEAVTPXEZEGEAYQBntCGWYTwAG0HyNjaghDKB6GWEA1TOXEREGEAZQRjtCGeYTgAE0X2MjaggDqF5GGED1zGVEhAGEAZTRjlCG+QRgAM3X2IgawgCqlxEGUD1zGRFhAGEAZbQjlGE+ARhA8zU2ooYwgOplhAFUz1xGRBhAGEAZ7QhlmE8ABtB8jY2oIQygehlhANUzlxERBhAGUEY7QhnmE4ABNF9jI2oIA6heRhhA9cxlRIQBhAGU0Y5QhvkEYADN19iIGsIAqpcRBlA9cxkRYQBhAGW0I5RhPgEYQPM1NqKGMIDqZYQBVM9cRkQYQBhAGe0IZZhPAAbQfI2NqCEMoHoZYQDVM5cREQYQBlBGO0IZ5hOAATRfYyNqCAOoXkYYQPXMZUSEAYQBlNGOUIb5BGAAzdfYiBrCAKqXEQZQPXMZEWEAYQBltCOUYT4BGEDzNTaihjCA6mWEAVTPXEZEGEAYQBntCGWYTwAG0HyNjaghDKB6GTMG8KW166grkSD+3yZ1GCHLokOmTiH+NOXgmoRsmzbFYvTi2nXUGY+7uuFIERBENK6ykvYb31Satuw4ZDeMoMl3PgXoaHSBJ4BGGniJkCATgAFU3w7YOHTEYvRGSyttjPW7X54xxyEhBFlpM8gdCP+bD906E10NYIZ5hjfjZ2vuCEH9juN+tvX301stG6g7bdzVt55gRoQBDKYuyMofArr12f5QQlTfCcAA+iMBm4nuRJL6kwlKCEFxx6G+ZJK64gnXXCQch7ricYoLQb2JxFbG0DWFAR41DLoB3Mpkp2Dy/1NnLEFx1iCRcPXgz95kgmJJh/qTSVcn/mSdWD8cWwjAAKI1gMAWAjCAaA1aEIAB9E+mzKPfzMhTMm0E2XywweBRQf5k49ERi7vmgx898u/5s4dNieNsHiHMjBj6PWoYBAO4uQNOj+JlmPBIXmcsTt2JuGvsOuJxl2F3MkmxtLHLcGfOzJ41yDzu5XLx6HfbewYG0L9+BJGDRwAGMHiaIKMhCMAABqtZuB3HoNE9/m9sDtmIuD9E7if/NzYrHf0x6kuPGPa4o1ZJ4k8+h7+Y3bGqgf8eVGXZnVUpDOA2OfJ/EKm6uT/p+nHVmMumWNwdqWOjxyOp/UnHHVllUzeQJf+br2dWmx/9pjXw20gHq2VmzwYGUCe1kGupCcjuU0udL8ovUwIwgHoJP1THknkYufkz/XiSjSCPFLLx6YknXFPIo4aZx5kZQznQEHEZg41Qvp1ZIQZwy7y7rec9cj5Jh01vyvBmjC8bPn6E3uUavAT1JRKpR7aJhDtfL2N6Xe+blnjwQ9t866VXS1GbLQygWt6IFmwC6FuCrQ+ySxOAATS7KQxeTJIZTeRHnzxC1pNk85Sk3kRqbhv/8ChZZqTMfQzq8GNox/M8xOEM4MDRTTevAaOdmZgD47Hh47zYwPJcvB7OcfMIZ5J47K5Ys2q2+upqBwOojjUiBZ8ADGDwNUKGWAVctm0gs8J18IrXeNJxRwq70osfeEStz+H5cY77aJnny8UcHkVkY8j/Tj1SHThHLmzbdNi0qRTOrGJOz8Pj8/v4OsGLKlLlsLnkTy6bzR7HS8VMLbxgQzhw0UbKM5q1bY4JjRAG0AQVUQdZBGAAZZFEOSUlgBHAkuLVsvAhV8nyVjVp85YareNHsltMIM+5Y+PIj1/ZwH1mzBh3/l1qwUrq8XNmlC+z6pkNYWbhy7ZbsMDk6dR4YAB1Ugu5lpoADGCpCaN8KQRgAKVgLItChpunx5XPrFzmBSo8KsibJWf+G5s8/nFH79KkMo9/B/63soBoaCVhAA0VFtUqiAAMYEHYcJFqAjCAqombGy/T6bHZe3LFym1Mn7k1R81gANEGQGALARhAtAYtCMAAaiGTVkmyAfzDAAOoVfJItiACMIAFYcNFhhKAATRUWNOqBQNomqL+1wcG0H8NVGcAA6iaOOIFmQAMYJDVQW6bCcAAojHIJgADKJto8MuDAQy+RshQHQEYQHWsEakIAjCARcDDpUMSgAEsv4YBA1h+mqPGwxOAAUTr0IIADKAWMmmVJAygVnJJSRYGUApGFGIIARhAQ4Q0vRowgKYrrL5+MIDqmfsdEQbQbwUQP0gEYACDpAZyGZYADCAah2wCMICyiQa/PBjA4GuEDNURgAFUxxqRiiAAA1gEPFw6JAEYwPJrGDCA5ac5ajw8ARhAtA4tCMAAaiGTVknCAGoll5RkYQClYEQhhhCAATRESNOrAQNousLq6wcDqJ653xFhAP1WAPGDRAAGMEhqIJdhCcAAonHIJgADKJto8MuDAQy+RshQHQEYQHWsEakIAjCARcDDpUMSgAEsv4YBA1h+mqPGwxOAAUTr0IIADKAWMmmVJAygVnJJSRYGUApGFGIIARhAQ4Q0vRowgKYrrL5+MIDqmfsdEQbQbwUQP0gEYACDpAZyGZYADCAah2wCMICyiQa/PBjA4GuEDNURgAFUxxqRiiAAA1gEPFw6JAEYwPJrGDCA5ac5ajw8ARhAtA4tCMAAaiGTVkkmHYeeWrGSHK2yRrLFEIABLIYerjWNAAygaYoaWh8YQEOFVVktRxAJh4QQRI5DTnUl/XHFSurq7CLbDpFl22RblvuJw0wCMIBm6opaFUYABrAwbrhKMQEYQMXAdQ/HJo8PIVzDZ4VDZI8cSaHRoylUP5JC9WPIqq6itr5+6u7spA1rP6aNrS3U3rKeOlrbKRFPkMVm0LKIMp+6M0H+BAOIRgACWwjAAKI1aEEABlALmdQl6fq7tMnjf6aNWurTptDoerLrRlB49FiKjGmkUSed7bmvW3nXLWLjhvXUvmE9rft4BXVv2kgdbRvJcVKjh5mfTGXdgjkujsATgAEMvERIUCEB9FoKYSNU4QRgAAtnp/2VPJqX/uEvcB7No1CIrHCErFCYrKoqCo0aSeGxDRSqrafRp5xbkn7tvatmiY6NbdS6bi1tbN1APZ3dlIj3u6OFiXicnGRy82ihRZnRQ+3pG1UBGECj5ERliiRQko6yyJxwOQhsQwAGsEwahTs/j0fZHNf0sdmzKivJikTIjlSQVVNL9ohasutHUmR0A436yZm+9mELrpsrNm5optbmZurp6KTuzg7q6+mmRCxGfb29lORHyTy30LZTj5Qxv9DXhgwD6Ct+BA8YAV87z4CxQDoBJgADGGBxCk0tM6qXXpRBIZvsygqyqqrJruSfKrLrR5A9sp5CVTU0+uSZge+vVt93m2jf0Ew9nR3U0dZGm1rbqKerg3q6O6m3u4v6enpJOCJtCG2y7PRIYaEMcV1eBGAA88KFkw0nEPgO1XD+qJ5HAjCAHkEF+bRBhs8eUUchXphRXUuhUWPJrh9NVkWERh/v76heKRB+fPfNor+vl3q7u91HyO0b1tGmtg3UtXETdW7s2GqEkB8f8//jkE8ABlA+U5SoLwF0M/pqV1aZwwBqIndm9e2gRRFWVSXZdbXuPL1w/UiyR4yl0Sf9rOz7n1X33Ca6OjfRhjUr3VXILWvXUNemDorxSGFacnfbmvSBBSfF3QcwgMXxw9VmESj7DtgsOc2tDQxggLQdsMVKaiWuRcRz9UJhIp7rFg6TPWY0herqKTxyFI09Zy76mTzlWzrvOrF+1TLix8ntLc3U0bqREok4JROJ1E8y4a6L2bxVjbsQGZhzYYYBzEUIvy8nAugxykltjesKA+ijeOntT1zHQYKsaNT9sd3PSrJ4rt7oURQeM4bGnnER+pQSSfXfW38lNrW1UNv6ddTessF9nMwLTvjRcjzWT7G+2OaFJtjQemgRYABL1DhRrJYE0FlrKVv5JQ0D6I/mPKoUqa93V+JSJEqiopLsEbzHXj01nDkL/Yc/smyOuuS2X4n2DS3UubGdOto3UufGNurv66Penm7q6+pObZ+DYzMBGEA0BhDYQgAdOFqDFgRgANXLxJ1DdyJBq2qqqX7KFGrafieaetI56DPUS+E5YvPdN4ju1Sto/eLF9NaHi6gnkXBfb4cjRQAGEC0BBGAA0QY0IwADqF4wNg7t/f30SnML9YdCVF1VTdU88jehicZP3Y4+ff5lcBbqZdkmYuu8X4n4+jWUbG4h6usjKxGjjZ1d9OLqNdQZj8MADiAGAxiABosUAkMAHXhgpEAi2QjAAKpvH2wAN8Zi9I9166kjFkvtTCIEhcJhCkUiFA6HafS4BmqcNIUmbD+ddvkZ5v+pUKntNzeIePNqSqxfR8kNbUROkkQiQcRvIiFeh2PTpnicXl63HgZwkCAwgCpaKGLoQgAGUBelyjxPGED1DWCgARxqJCmzPQl3IjzVrLq+lsZNmECNk6fSxO1mUEVVFU067jT0MUVK1373LSLRspbiLWsp2dxMTndP6t3Dw2y5w7ptisVgAIfgDgNYZGPE5UYRQOdslJzmVgYGUL22uQzg4IzYELo/vGqYBI1ubKCxjRNo0g47Uf3o0VRdW0dTjv8p+pwcUrbOu1Y4HZso0baeEq0bKNnaSiQy7xbmTaKzI4QBHB4wDKD6fgQRg0sAnXFwtUFmAwjAAKpvDvkawMEZOmwEHcfds66iqpJqR4ykupGjaOSYBmqYMIHGNE2g7U/5eVn3Qe333CTibS2UbNlATmcHOT2d5HR1kYjFiexQam+/PN8fDAMIA6i+t0BEHQmUdeero2DlmjMMoHrlizWAAzPOjAw6TtIdwaquqaHKmlqqqR9BY5saqWHCJPrsrKvLoj9quWGuSG5opmRrOzm9PeT09ZLo63OXqFps9tj0FbFyFwYQBlB9b4GIOhIoiw5XR2GQ89YEYADVtwiZBnDIx8XpR8W8mCQcibo/tSPradzESTR+yna0+4VXGNE/td12lYg1r6FEczOJTV0kEnESyQRRImWGizV8g9nCAMIAqu8tEFFHAkZ0sDqCR875EYABzI+XjLNLaQCHMoSZ/5Z5pVk4GqFxEyfQuAmTacK0Hal+9BgtFpW03XGdiLPh27CeEuubieKJVNWGWbQhQ6uBZcAAwgDKblMoz0wCMIBm6mpcrWAA1Uuq0gAOVzt3QYkQxPMJ60bV09imCTRu4lR365nq+nqaduJZvvdhrbf/WjhtzRRnw9e6gZyNnVIe5RaqOAwgDGChbQfXlRcB3zvP8sKN2hZKAAawUHKFXxcEAzgw+4wRdJJJCkdCVFNfT3UjRtGIseNodAMvLJlIO51V2r0I2+6+QSR4/l7bRnI6N1Gyu4McfuVaPJEyfZk5fIVjL/pKGEAYwKIbEQooCwIwgGUhs/6VhAFUr2HQDOBgMygcHhnkzY8FRSsrqaaujqrrRtCocQ3UMH4CNU6aStNOOrvoPq7lhktEoqWFHDZ9fd3k9HST6Iu56chYtCFbWRhAGEDZbQrlmUmg6M7RTCyoVdAIwACqVyTIBnAwjc37DwpBdsimSLTC/akbNdLdcqZp8lT6zEVXeervWm+5QsRb1hGbPtHRmVq0EeeFG05qW5YiV+mWWkkYQBjAUrcxlG8GAU8dohlVRS10JgADqF49nQzgUIYw89/YtPHr0UKRMI1qGEsTpm5P46ftSKPGjqMJx5xs8aKNRMsaiq1dTU5rOwl+pZpwiBzeNjh9FLEti2rlYABhAFW3OcTTkwAMoJ66lV3WMIDqJdfZAA5HK/O2El5UUj+ijr45ZTJZ3T1kWcXvv6deoaEjwgDCAAalLSKPYBOAAQy2PsguTQAGUH1TMNEADqRoE9F3pk6hUJ5v2lCvRH4RYQBhAPNrMTi7XAnAAJar8prVGwZQvWCmG8CQZdEhbAA1erzrpRXAAMIAemknOAcEYADRBrQgAAOoXiYYQPXMZUSEAYQBlNGOUIb5BGAAzdfYiBrCAKqXEQZQPXMZEWEAYQBltCOUYT4BGEDzNTaihjCA6mWEAVTPXEZEGEAYQBntCGWYTwAG0HyNjaghDKB6GWEA1TOXEREGEAZQRjtCGeYTgAE0X2MjaggDqF5GGED1zGVEhAGEAZTRjlCG+QRgAM3X2IgawgCqlxEGUD1zGRFhAGEAZbQjlGE+ARhA8zU2ooYwgIplFEQ2CdoYi9E/mluoMx4nNhYmHUZvA9Mfo5fWrKXORJxCdojILOkKbob8bpdxlZW03/im0iBxHLIbRtDkO58C8YJVwoWqCKCRqiKNOEURgAEsCp+3ix0n9Ro0J0kUCVOkvp42kUUvLvovdfb1wQB6o+j7WbzBdacQ9GZPD7V3dlCss5OchENWKER2KESWYRtf5wMcBjAfWjjXdAIwgKYrbEj9YABLIKQjSLDZY9NHDtkj6ijc0EjhseMpNL6Jxhx/tts/3P71L4iOdS2ueTDpMHUEkBJJsprG0pQ7Hnf1e+6KX4jWZUupu2UddaxdS30dHURWiELhsGsK+V3J5XLAAJaL0qinFwLlc+d7oYFzAksABlCSNJlRPn6k2zCKwhMnUOX2O9HoE88dti+4/Rt7iI4168kOhyUlEYxiTDWAIpGg8IRGmjTvt8Nq+pdLzhbrF7xHrcuWU19nD4UiEbLtEFkhHj8094ABNFdb1Cx/AjCA+TPDFT4QgAEsELoQRPxD/CEossMUiu44gxpOneX53ocBLJC9T5d5MYCDU/vThaeKdR9+QG1LVhK3Fh4V3DwyaNAIIQygT40SYQNJwPOXQCCzR1JlQ+CWL39a9LZ1lmT+Et8E+zQ20oTqKvfLT8sjbfTY5PEojhWOEEUiFBo1gqIzdqSGn84t+F6HAdSrRRRiAAfW8O2HbhNr3vs3rX73P9TXwfMH4+QkEuQkk2RZNrtDbR8bKzGAY+tp8m/+UPD9pldrQ7Y6E0Aj1Vm9Msr9jm9+QbSvWEOhaAVZttxmq6UBFCK9YMMhCttkV1WRXVVN9qgxFJk2mRrOmC0NEgygXjdasQZwcG3ffvBWsfaDD6h12TLqam6mWHcnxbp73IFld1GJRvMIS2oAeU5tPEbhaRNo0i3DP37XqzUhW5MJSPuSMBkS6hYMAg/88Fti/cIPKBFPUDgSdUciZBxaGMCM4UsmSQiH7JoqCo8dS6HR4yg8aTKNPeU8OTCGAAoDKKOVqStDtgEcnPk/775ebFiylDatXkVd69dQZ0szxXv6yLJD7jxRm1cZS7o3ZVMriQHkezMeJ6siTNHpO9H4K28v2b0omwfKK28CaKjlrb+WtX/izKPFkpdfIich3MnrxR6BNYDugg2HKJEgq76KwlMm7oSV9AAAIABJREFUU3TiFGo4q/DHuYWwggEshJp/15TaAA5Vs9fvu02se+8tal68kNpXrqZkLJEygwHbdka2ARTxBFlRm6r32osaZl6J71P/mj0iF0AADbYAaLgkGAQePeFQsfLNt90tLdxRhwKPwBjAzDw+x+ElGxSaMI4qdtiRxs28ytf7FAawwIbl02V+GMDBVX3tN9eLte++SesXfUQda5vduYO8/6C7sMTH0UFpBpD/OBMOVX3+M9Q46wZf70+fmhnCGkAADdcAEcu9Cvd9/2uibdlySsYTBU1QV24A06tySThEPKmeF21YNtl1tRT91C407meXB+q+hAHU6w4LggEcTOzlm38pmj9aQOsWLqL+jk4SjkOOkyThiJQx5AsUGMOiDKB73wqywmGKbDeFxl99d6DuU71aKbINAgE04CCogBykELj/qG+J1iVL3AnqdijsebFIyQ0gf3HwiAGP7FlEdlUlWZW8aKOGwpMnUuOF1wT6PoQBlNI8lRUSRAO4jSG89XKxbsECal/xMfVtaqd4bw8l+mPsAl1DWKp5hAUZQHfD9ATZNdUUmToNc/yUtWQEKjWBQH/xlLryKN88Am8/dLv44E9PU/OHCynRH6dQNJpzywrpBjBj+DKvVYtGKDxmNIVGjqFQ0wQaN/NSre47GEC97hMdDOBgoi/eMFds/Hg1tX+8gro3rKfuDa3uiL77hxy/wk7SwpK8DGBmcUdllKI77Ejjr7pDq/tWr1aLbP0ggAbtB3XELDmB135znVj8wnO0bsEH7pPWbItFpBjAAat0KWxRaPQo97VqoTGNNO68y7S+z2AAS95cpQbQ0QBuYwhvukK0LVtCG1cuo67WFurZ0MaD6EW/vs6rAXRX9YYtqthpZ2q6EsZPagNFYYEhoPUXU2AoIpFAE3jshMPE8jfeJMtOb1ExKNuCDWDmsa6TJHt0PUW3356a5txi3D0FAxjo5r1NciYYwKGIv3DNLLFuwbvUsngJ9bZ3bF5hzI+MvR45DWDSIUEOVX3hM9R4ERZ3eOWK8/QkYNyXlZ4yIGsVBO77/ldF65Jl5DgOzzTaPOk8pwHMvE4ts4KR34RQWUGRnXag8RffZPw9BAOoonXKi2GqARxM6PkrzxMbliyi9QsXU7yv333lIa/MTb/LbsipH0MawMyiLNui6A5TafzV9xh/T8trbShJZwJo6Dqrh9wLIjD/h98U7UuXUqynNz0qaG15FdzArVj4tWoVEbIqKsmurKFQ01gaf9ltZXfPwAAW1Mx8u6hcDOA2hvCKmWLdhx9Rx5r1FO/tpkRfn7uwxF1lnP7ZygDy4g6RdN+iE5k6hcZfdWfZ3du+NVIEDgQBNPhAyIAkVBN4++F5YtHzz9Hqd9+hZF+M9h0/niZWRkmEQ2TX11FoxCj3LRtNc68r+3sEBlB16ywuXrkawMHUXrjmItGyeBl1rltFPW2t1NPe7s4jbKqppQPGN1KoqoKiO+9KTZeaP4pfXIvC1aYSKPsvN1OFRb28EeDFIv/9+//RJ2uqaOJ202ncL7Cb/2ByMIDe2lJQzoIBHFqJ5664ULQuX0oVm9por+23x3YuQWmwyMM3AjCAvqFHYBDQgwAMoB46ZbKEAdRLL2QLAn4RgAH0izzigoAmBGAANREqnSYMoF56IVsQ8IsADKBf5BEXBDQhAAOoiVAwgHoJhWxBwGcCMIA+C4DwIBB0AjCAQVdo6/wwAqiXXsgWBPwiAAPoF3nEBQFNCMAAaiIURgD1EgrZgoDPBGAAfRYA4UEg6ARgAIOuEEYA9VII2YJAMAjAAAZDB2QBAoElAAMYWGmGTAyPgPXSC9mCgF8EYAD9Io+4IKAJARhATYTCI2C9hEK2IOAzARhAnwVAeBAIOgEYwKArhEfAeimEbEEgGARgAIOhA7IAgcASgAEMrDR4BKyXNMgWBAJFAAYwUHIgGRAIHgEYwOBpki0jzAHUSy9kCwJ+EYAB9Is84oKAJgRgADURKp0mDKBeeiFbEPCLAAygX+QRFwQ0IQADqIlQMIB6CYVsQcBnAjCAPguA8CAQdAIwgEFXaOv8MAKol17IFgT8IgAD6Bd5xAUBTQjAAGoiFEYA9RIK2YKAzwRgAH0WAOFBIOgEYACDrhBGAPVSCNmCQDAIwAAGQwdkAQKBJQADGFhphkwMj4D10gvZgoBfBGAA/SKPuCCgCQEYQE2EwiNgvYRCtiDgMwEYQJ8FQHgQCDoBGMCgK4RHwHophGxBIBgEYACDoQOyAIHAEoABDKw0eASslzTIFgQCRQAGMFByIBkQCB4BGMDgaZItI8wB1EsvZAsCfhGAAfSLPOKCgCYEYAA1ESqdJgygXnohWxDwiwAMoF/kERcENCEAA6iJUDCAegmFbEHAZwIwgD4LgPAgEHQCMIBBV2jr/DACqJdeyBYE/CIAA+gXecQFAU0IwABqIhRGAPUSCtmCgM8EYAB9FgDhQSDoBGAAg64QRgD1UgjZgkAwCMAABkMHZAECgSUAAxhYaYZMDI+A9dIL2YKAXwRgAP0ij7ggoAkBGEBNhMIjYL2EQrYg4DMBGECfBUB4EAg6ARjAoCuER8B6KYRsQSAYBGAAg6EDsgCBwBKAAQysNHgErJc0yBYEAkUABjBQciAZEAgeARjA4GmSLSPMAdRLL2QLAn4RgAH0izzigoAmBGAANREqnSYMoF56IVsQ8IsADKBf5BEXBDQhAAOoiVAwgHoJhWxBwGcCMIA+C4DwIBB0AjCAQVdo6/wwAqiXXsgWBPwiAAPoF3nEBQFNCMz7+hdE59pmssNhTTL2lmbIsuiQqVOIP006XAM4fhxNuv13ZlXMJJFQFxAIAAF0EAEQASmAQJAJzDvwc6J95RqKVlURGWSWjDSAjiCnr4eiO0yjibc8iv49yDcWcgMBnwmgg/BZAIQHAR0IPH7GD8XyV18lJyGMGQk0ygAKIhGPk11XRTX7HUBjTr4AfbsONxZyBAEfCaCT8BE+QoOAbgQeOuZgsfqd98iyQmTZencfxhjApEMUsal6772o4ezL9RZFtxsC+YKAxgTQWWgsHlIHAb8I3HPYfqJtxSoSjkMWWVo+GtbaAAoe8hNE0QhV7Dydmubeir7cr5sBcUFAUwLoNDQVDmmDQBAIzD/y66Jt2XKK9/SSFQ6TpdEcQS0NoOOQEA6F6mopMn06Nc2+AX14EG4E5AACGhJA56GhaEgZBIJE4I35N4tFzz9L6z54nxL9cQpFo1oYQa0MIBu/RJzs2mqq+MRu1DjrGvTdQboJkAsIaEgAnYiGoiFlEAgigZduvlwsfflFav7oQxIOUSgSCWKam3PSwgAK4S7usKqiVPmJT1HjHIz4BbpRITkQ0IgADKBGYiFVENCFwCPHfUd8/K9/kUUhskJ2INMOugHk/fysijDVfHEfGnvmpeirA9mKkBQI6EsAnYq+2iFzEAg8gQePPkisfX8hUWqpSKAWiwTSAGYWd4RDVL3nF6hh5pXoowPfypEgCOhJAJ2LnrohaxDQisB93z9QtK9YQfHePrLsYGwhEygD6C7uEO4cv+gMXtxxI/pmrVo4kgUB/Qigk9FPM2QMAloSePOBW8SHf3mGNixeTLGeHrIj/i4WCYQBTC/uCI0aSdEZO1HjrF+jT9aydSNpENCPADob/TRDxiCgNYHX771JfPjMH93FIk6SKBT1Z7GIrwbQXdwRI7u6kip2/SQWd2jdopE8COhJAAZQT92QNQgYQeCxE78rVrzxJpGwyQ6HlNbJLwMo4gmyqsJUs+9+NPaM2eiDlaqOYCAAAhkC6HzQFkAABHwn8MCPDhLrMotFFL1iTqkBzCzuCFlUvdce1DDzKvS9vrc6JAAC5U0AnVB564/ag0BgCLz9yJ3ivSceo/YVH1OiP0aWbZd0Q2klBtBxXL5WVSVFd9qRmubcjD43MC0OiYBAeRNAZ1Te+qP2IBA4Am89OE8s+PP/UuuS/1Ksu5fsSKQkRrCkBpAXdyQTFBoxgqIzZlDjxdehrw1cS0NCIFDeBNAplbf+qD0IBJbA6/feKBY+8ydqWfQRJRMOhSNR3k5Q2lESA8iLO2IxsmurKLrTrtQ0F9u5SBMMBYEACEglILE7lZoXCgMBEACBzQR+e+oRYsVr/yQhLLJDchaLyDaA7ivbqiuo5kv709jTLkLfivYLAiAQaALopAItD5IDARAYSCD1ZpEF7qphq8jFItIMIM/zi6Tf3PFzvLkDLRYEQEAPAjCAeuiELEEABAYQuPe7XxZtKz8mJx4nsgpbLFKUAXQEkSXIqqig6M7TsbgDrRMEQEA7AjCA2kmGhEEABJjA24/cIT54+klqXbqMYt38ZpH8FosUZAB5cYeTpFB9HUWmz6Cm2dejD0VzBAEQ0JIAOi8tZUPSIAACGQKv33eTWPzC87TuP+9RIp5ILxbJ3bXlZQCd9Js76qqp8tO707hf/Cp3AEgEAiAAAgEmgE4swOIgNRAAgfwIPH7GUWL5K6+QkxRkh8NZL/ZkAAURL+6w66qoZr8DaMzJF6DPzE8SnA0CIBBQAujMAioM0gIBECicwEPHHCzWvPseEYWGXSyS0wAmHaKoTdX/sxc1nH05+srC5cCVIAACASSATi2AoiAlEAABOQTuOWx/0bbiYxJs5ixrqw2lhzSA6Ve2WdEIVewygxovuQV9pBwpUAoIgEDACKBzC5ggSAcEQEA+gflHfkO0LVtGsZ5e99GwZVm0lQHkxR3CoVBdLUWnT6fG2Tegb5QvA0oEARAIEAF0cgESA6mAAAiUjsAb828WHz3/LK1//31KxOIUraig70yZTHYyQXZtNVV8cjdqvOga9ImlkwAlgwAIBIgAOrsAiYFUQAAESk/gpZuvEEv/8Xdq/XAhHTp9R6r51G7UOAcjfqUnjwgDCdx///1i/fr1xD/Nzc3u56ZNm2j06NHU0NBA48aN2/xzzDHH4LsazUc6ATQq6UiLK/DXv/61WLJkSc5CPvOZz9CJJ54I/XKSwgkgAAIg4D+Bk046Sfz5z3+mVatWFZxMdXU1feUrX6Fvf/vbdPLJJ2vT/8+cOVOsXbuWWltb3Z+NGzfS2LFjadKkSTR58mT3h/99+OGHa1OngkUM0IWAHSAxOJVwOCwSiUTOrOrr66mjowP65SSFE0AABEBAPYHbbrtNPP300/T3v/+d+vr6SpLAbrvtRt/61rfoiiuuCNR3wUUXXSSeeuopWrBgAQleWJXHsccee9CPf/xjOuOMMwJVpzyqoM2pABwgqa655hpx7rnnes7o9ttvp1NOOQUaeiaGE0EABECg9ASmTZsmli9fXvpA6Qi8qIlN0/z58339Pjj22GPFww8/TLFYrOi6RyIROuigg+gPf/iDr3UquiIBLgBgAyTOLrvsIhYuXOg5o913353eeecdaOiZGE4EARAAgdIR2H///QWP+Pl18JOhOXPm0M9//nOl3wu//OUvxdy5c8nL06tC2Bx//PF09913K61TIXnqdg2ABkux/MbKU7lDw2BpiGxAAATKjMCpp54q7rzzTkomk4Go+S677EILFy5U8t2w9957i1dffbXk9Z42bRotX75cSZ1KXpmABADMgAhxwgkniLvuuivvbHjY//7774eOeZPDBSAAAiBQPIHDDjtMPPHEE8UXJLkEfix8//3309FHH12y74cxY8YIXtSh6uA6/fznP6drr722ZHVSVZcgxAHEIKhARHV1daKzszPvbCorK3mCMXTMmxwuAAEQAIHiCJx44oniN7/5TXGFlPBqnkcXj8dL8v0wbtw4wdvX+HFcdtllNGvWrJLUy4/6+BUTAP0iPyDuvffeK4477riCM7n22mtp5syZ0LJggrgQBEAABPIjwCtdL7/88vwuGnA2b+nCj2obGxuptraWBwHcz3g87u4H2NHR4W6XwvPCN2zYUHCcmpoa6u7ulvr9MH78eHdbF69HKBSiz3/+87TPPvtQU1OTuwUMm8f333+fPvjgA/rwww+pt7fXa3Hum3yEEFLr5Dm4QScCYADE3HfffcXLL788bCYHH3ww/e///u+wv58xYwYtWrQIWgZAS6QAAiBgPoFbbrlFnHHGGXlVlM3dIYccQg899FDBffXpp5/urrJtb2/PK/aYMWN4/72C4w4MdsABB4i//e1vnuLzZtYzZ86k8847z1PsffbZR7zyyiueymaeXV1dnsr1VGAZngR4wRB92MUfA8xdrgUi0DIYWiILEAABwwnU1NSI7u5uT7UcP348XXnllXTsscdK66Mfe+wxcckll7ijg16PHXbYgZYsWVJUDvPmzROnnnqqp5CFrtzl/RMvuOACdwQ017H99tvT0qVLi6pTrhgm/x7gfFb3ggsuEFddddWwWWRuoqqqKpFtiPywww6jJ554Anr6rCfCgwAImE1gzpw57pYnXo7TTz+dbr311pL1yxdffLH7/cGPjb0c9957Lx133HEF5+Nlrjo/np03b17Re9R+8YtfFP/4xz9yVuvuu++m448/vuA65Qxg8AmA5rO4EyZMEGvWrBk2i/nz5xO/B/LQQw8VTz755LDnhcNh3oMJevqsJ8KDAAiYTWD06NGira0tZyWvueYaOvfcc5X0yZWVlcLL20Z23nlnnm9XUE5nnnmmuOmmm3LWmw3pBRdcUFCMwYXPmDFDLFq0KGvMT3/60/Tee+9JiZezcoadAGj+C+rp0e5DDz0kjjrqqKzZ8l+lc+bMgab+a4oMQAAEDCTA72rnbUhyHZdeeinNnj1baV8cjUaFxzdwFJSXl9G/73//+/Tb3/62oPKHY2rbtnAcJxdyqTFzBTPl94Dmo5K5RvX45dirVq3arFFFRYXo7+8fNuPB5/tYNYQGARAAAeMITJw4UaxevTprvfbaay/65z//qfy79bLLLhOzZs3KyZxX47711lt55XfTTTeJM888M2vZVVVVvJI3r3JzJkvEcyfFfffdl/XU//f//h89/fTT0mN7yU/ncwDMR/UikYjINnfjBz/4AT3yyCObNTrkkEPEH/7wh1wZQ9NchPB7EAABECiMQK4nNlyqb31wHq8TzSvHXXfdVSxYsCArMV64cdVVV+VVbh4SZOVeUVFB/f39pYqdR5p6nQpgPunl5VECL/f/4Q9/uFmjRx99VBx55JFZMz7wwAPp2Wefha4+6YqwIAACRhPIakSKmWMnkVpOk3rFFVfQhRdemM/3RM4yS2l8J02aJFatWpULUT71yVVWWfwewHyS+ROf+ITgDTCHO4b7i6a2tlZ0dXUNex02yPRJUIQFARAwmoCXvf/OOussuvHGG339Xm1sbBTr16/PqgXPJ/e6H+H9998v+JWj2Q7e4PmVV14pWb2POOII8dhjj+VqXyWLnyuwrr8HMP+Uy/oX1be//W364x//uI0+Rx99tHjggQeyZn3uuefSNddcA2390xaRQQAEDCNw1llniRtvvDFrrX7961/zu2p97XvPPvtscf3112fNc/fdd6d33nnHU55e5uCV+m1UXtjfdddddMIJJ3iqk2FNs+DqAFbB6Aq/8KSTThJ33nln1gJy7NeU1Tzya3Y2bNgAbQuXCFeCAAiAwFYEDjroIPHnP/85K5XbbruNTjvttCD0vVm/I/J5h/xRRx3l1jvH20dKWudLLrnE3fg623HRRRfR5ZdfXtI8TLslAMsHRevr60W2Xc5z7enn5T2MPEp49NFHa6Pv1VdfLZYtW0YrV66kFStWuJ+8r9WECRNo8uTJNGXKFPdz1113dfdFlCkbb+zKMTM/H3/8sVs8vz5p9OjRxDv5f/GLX6S5c+dKjVtsHe666y7xr3/9y31PaGtrK/HeZJlPnibAq/JGjhxJo0aNcn/43/xqJl6lePLJJweqLsWyCNL15513nju9g3XJ/PD9zu9+Zf6ZH34nKj86k/mGCFUc+E0Ur7/+OvGK2MwP72fK23Xwu225bvwzderUkm6ErKq+HOfggw8W2V7JyeecfPLJdMcddwTh3irZnL2rrrpK/Oc//+G999x3+AohSr4HrZc9CEs9CqmyramKFYSGqqqugYgzf/58ccwxx2TN5Wtf+xo999xzw2pz7rnnCt5kNNtR6jkZHPvhhx8Ws2fPHjYNXhWWbUj+d7/7nbjjjjvo//7v/9xOxOvBpozfkFLMY+4777zTjf322297Deuexy9W507+uuuuU37v3H333eLvf/878U/GpOaV/KCT+Yt6v/32I95C4Uc/+pGU+uy4447ehSwm+SKv/e9//yulvpwGfyHy6vw333yTvwjzzozn7X7mM5+hb37zmyUdwch1v/I2H2eeeWZWLscdd5z4/e9/7+k1XQNBsPnlBWrf/e53tfrDdGAdfvazn4kbbrghq76FbLGSd4PxcMHgFwzU1dW5f9DyDz8h4s+HH35Y2j3gIaWiTvne974nHn/88VxlaFOfXBVR9XsAU0U6HWe//fYTL774YtaobEw8jNB4+aItqb653gs53F9k9957r/uux1wTlXNJY9s28cajjz76qOd6Xnvtte5rnDo7O3MVn/X3/AjlnHPOoSuuuMJz7EIDnnHGGeI3v/kNb3NQaBE5r+N3al544YUy5tB4aZc581FwQtG6zZw50/0joti2NLCubAa/973v0e9+97ui8xvMMNf9OmfOnGFHub28kcGrZp/4xCfogw8+kF4/r/ELPc/LXnjYjqRQutmv23333cU777yTq3Dt2lSuCpX69wBWasLbli9lbsbnPvc5kWv0il/aPW/evJJpnOsLZSgDyPNJHnroIanU99hjD3rjjTdy1tPLI5x8E/v6179Of/3rX3PGzrdcPv+0004T/J7LUhq/wXnxI7sVK1YUUx/jDSC/v5sn+3t9/2oh2vM0kGOPPZbuuuuuYrTYKnSu+3UoA8hzry677LKCRjZz1ZtHPJ955hlp9csVT9Lvc7bvIKwEllTXIBWTlTt2vyhMKt1uvsJqGZCrLrzwQsH7L2U7jjjiCHrsscdy6nLzzTeLn/70p1nL4mH/zs7OnGUViifXF8pgAzh9+nSxePHiQsNlvW6nnXaijz76aNi6Tp061Z3nV4qD5yUuWLBAKufq6mrR09NTinRzlsmjmzyH9PDDDy+kTjm/IHMmoOaEQupGn//858Vbb72lJkMidw5qW1tbQbkOTjLX/TrYAO65557uPL9SHjNmzKBFixZJqV8p8xxQttf2rVOdFKErLIyXN5zsvffe9Oqrr4J5nogBLE9gxZzu5TVC+Wym6eXdj7fffjudcsopJdE51xfKQAOYa//CYrhmruXHmEuXLt2mrl44FRs/n321ssXiPbd+8pOflGTEJZ868l/UPPr4k5/8JN+24/ULMp90SnFuXvXiubunnXYadXd3lyKXrGVGIhHi+/j444/PK+diDOAOO+wglixZoqSuAdk82VNdvUzh4YJkGndPiRl80siRI8XGjRtz1bCoeyNX4ab+HtDUKpv1y5FXvK5Zs8azJl4mxuaz31O+KLwawGnTponly5fnW3xB5w/eh2vs2LGCV2KqOHJs3ZMzheuuu8590Xw+C2JyFlrECQWOIBtnAB988EFx9NFH+65Lsft75rpfMyOA++67r3j55ZeLaDn5X/rlL3+ZXnjhBc99X/4RpF7hqY3zfEBmmucbN6QmqnthBx54oHj22WezVkOnPyCCpocuN1zQuOWdz3e/+1139Vy247zzzqNf/epX+WripTPKt0xP9cv1hXL55ZfTX/7yF/LyZcKrBHkEb4cddnBX2vI2GrzFQL7z3wb+5Z3rbStcSR5d+dSnPuVuWdHQ0ED82JXN6tKlS90tVfI5tttuO1q2bFkxrL1ouTkl3p5mzz33dLfGYW719fVbPba955573DcC8FxRXqFayCNwXpDw+OOP51OnvOqQD99s56bnAHkqjpm9/vrrnuuU653dQwXltnDQQQfRtGnT3G2EeJX1b3/7W7F27VriV1rxynfewiffgxfqFLrwKNf9ymaFt2K6//77c6bFC7C43fEfrXzf8P/ObOHE9StkNXQ+Tz9yJljCE/JdEMN9y0knnUSXXnqp5zZXwvS1KdrLAAdXhp9UFDs6rg0UyYmiQUoGOlxxHh9D5q2Hlz0BefTigQceyLvsXGhyfaGkzdiwxfA+dbwlzu233541txtuuMFdNcz7Ano52EizgfzTn/407OnDvWll8AXf+MY3xF//+td8Rn8K4ux1fiQbHdbz/vvvLyjOT3/6U8Ff8Js2bfKCMnNOQbHyCVDsuV42iuUY+S5yqaurE15X+fIfE/yYOJ9XgV1xxRXi6quv9qxHMZPdc92vvM9mtu2FOPZ3vvMdevLJJ3O2hxtvvFHwpsgfffSRZ2l32WUXWrhwYc6yPRdYohNvv/12ccopp+RdOi/s4S2+mKGHXR7yLt+kC77whS8I/qM117H//vvztliBbzO56uHX7wFOAfnrr79enH322VkjeV3JOrgQL3sC5rPrez44cn2hDFcWjxbwru2//OUv82p/2223nbtZdDHH5z73OR4Ryysux/O6KOOrX/0qPf/883mVz/vIscHNdUgYYdwc4lvf+pbIZpAH5nLxxRfnrVWuusj8vZd3lXI8HiHt6OjwrI2XP64y9ShE94EMjjnmGNeYe3n8zxt6b9y40XM9MnEKvV/5+kMPPdST8RusK2/5xGYpj5H8vOslsy15LcvLE51sZbGZ5g3ZeZT44osv1qLOXtkUc97XvvY18dxzz3kqYrfddqN3330X7DzRGvokwCsCntdLP/nJT4r3338/6+m33nornX766YXqkfOxWyl2SS/kC4VH/Xp7ewutJ332s591335RyPGDH/yAHnnkkYJj53qDC+dUyD5gXhbIlGK15CmnnCJ4cUGuI+gjM14e0eZ6u85gBieeeKK796KXg19RdckllxTcrjIxHn30UXeuoZftZXjj6H//+995xSzkfuWpGfz+2xNPPDEVErwSAAAgAElEQVSvWIO5jRs3TjQ3N+fEecIJJ0jd+iZnwCJO2GuvvcQ///nPIkrYcin3i//zP/9DPKI1e/bsolhLSUhhITzHludu//vf//YcVeYfw56DGnhiWTU0H/XLatAKMQ0D67LHHnuIN954I2v1pk+fTosXL5aqd75fKLz7fGtrq4wcchrewTBkfLHwJtIzZ8700ow813Hu3LmC515lO6LRKMViMc9lekkwc87gNwZkubYk8fPJdahzR4wYIbw8zs73Ha3hcFjkmsfGozj8ZoizzjpLKpuqqirR29ubE828efPo1FNP9Rw73/tV9pMDy7JErhFOni+3bt06z3XKCanEJ2y//faC5wvLPvg7gd8qsu+++/KbZrThkY3D+eef706n4NXl/MNzkr38sTO4zB133JFkvslHtnY6lWdEwwoycC+jLIcffnhRO//n0bFL1TuPuK5Ejz32GB1xxBFF55BvpytzJbSX2Dxi4tUUeBnRVPAI1ouhLlo32ffplClTBC88yHXw9Ivrr7/ec/4//vGP3cexuY5f/vKXpXx8l1OT4bY9Gi7vfO/XBx98UNorAjmno48+WvD+kh4Oz1p5KKvkp+S7KKSQhHjazGc/+1l3DuGVV16pFR+ur9d7KhsbNsXnn38+FtMU0oCGuUa7hiSx7kqK8jhCUbQOlZWVItciicMOO4yeeOKJomNlwOXzhcKPN1577TUpsXlRyM9+9jNP+hUzaX6oAKeffrrgx/XZjjxHG7N+0dfW1lJXV5cUbsPl7OUL7K677pLxmjhPmnk5yYtx5nL4PcdPP/10XvxCoZBIJpNZ08h3JbGXOg08x+sj6Icffph++MMfeqpfPvcrL86aP3++p3LzqZuXUcB77rmnkP0n80lD+rn8nmD+wy/XCKeswPzImLfO4QUlxT6el5VTtnK+9KUviZdeeqngUMXOsS04sOEXSr/BDeeVV/UeeOABd05PtoO3iFi7dm3ROhxxxBGCR9iyHfnOg8pV2Xy+UEqwxUPOERLO/xvf+AZvRVM03wwL3hCYvxyzHfzC+9///vc5Y3p5m8uZZ55JN910U86ycmmV7fff/va3xR//+MesRfBK1fPPP7+keXitg9cFLIXMk/MyUlHsPFav9fQy2pzPRHif71e32rvssotYuHBhVgT8ru45c+YEoq151SpznsoNtDMxeXRwn332cXdUOOGEEwLJbfLkySLbCvNsnPmPYJ5nO3PmzEDWLd82EqTzAbSEahxwwAHib3/7W9YIPKfs2muvlaVDTlMka8I6V8rrF0op/nrzMkqTBi+L7UAds3L+yle+wvu85Yz79a9/3d1iJseRs5xcBeT6/VlnneWOXmQ7Zs+eHYhHL16mVHA9Jk6cSKtXr86bnZeNw3mrl9tuuy3vsnPpMPj39913n+D3AXs4POXi9X4t5dYaJ5xwguDR5GwHv+Ly5ptv9lQnD2yUn3LeeecJnp/pdfsgmQny5u3HHXdcyf9ozDdn27aF4zj5XrbV+fwImJ9iFbOQr6gEDLxY25tMBy28PO6QOTLm5VVzkyZN4o1opeju9QvlpptuojPPPFNKzIzuXupawpGarAawkK1m7rjjDvfVWzyhPDNJmldgqpgQz3u28Qvssx2S/1Ap6Pa9+uqrBc8BynXwRuLd3d2Ftrecf0TJvGdz1WXUqFGivb0962le/6jzer/ed999dOyxxxbKL2uuvDk5v+ow2/HjH/+44H0uc/FU+ftf/epXgh9n84b2qg++B/ieLnTT8BLk6+W+8hyW3/3OI8VHHnlkSdqp50Q0PxHwSiTgrFmzxGWXXZa1dF7l9dZbb0nT4Be/+IW48sorvdRISkyvXyil+ML0svKZH4u88sorUuo6CGrWzqwUW7Z4EbXIc7LWib9M8tnguMhctrn8scceE0ceeWTOOVb8OMxxnII051fxnXPOOVlTL3S/zkJ5nH322eL666/PevkBBxxAf/vb33LW2c/7NZ/7p4C3zxSKV9l155xzjnjyySfdN62oPNKbe+dsGwpykmoAOV+e333VVVcFZmqKAobSQwShYUivVBAKnDRpkuBXImU7brnlFjrjjDNka5DzRjvwwAPp2WefLTquly+UUo3CHXrooW6Hmu3gL/Prrruu6HoOjlFRUSGybWxbii13FLTprO3G78dyuZhn+LBZOvvsswvS3MvcwlKMZnvQNqs2Xu8xL/erikVHRJS1Pl7f0uOBWyBP4ZFs3oT9tddeK2gblHwrxUaJF83lsxI+3xjZzr/rrrvErFmz3NdW8g/3j4cffvhW9yiPDPMrQ/m9v6tXr84rfL6r/PMq3PCTC+ooDWciq3pZO7lS7e229957i1dffTVrHWStjPXyhSJ7lDNTMS+rJO+8805+B6f0Nj5mzBiR7T3BJhpAVfPehmq4uXhnrik2R4+vfZPennJ1OB73BcyZl5f79Utf+hK99NJLOcvKlXOO32ftG7/5zW/SM888U+ociqyCvMt5fzyeK87v7M61+ryYqLxi+KmnntKC61e+8hXB78v2ehx11FH00EMPaVE3r3VScR6A/f/2zgO4qqKL44v0IgjSBymjoqCEiDoodVAERqVDMBAEhmYgFBOCoUMYqSFSAoIQgZAEAtIGQZqgNEEFIVgG1EHRAaSKFAWE/eY8iV8Myd1z27vvvvu/MxmYeefu7vmds2/P23LWBsqdO3eWq1at0izZrmWO9957T9LF46rHij1dnAGFeyJW1d6cn/fv318uWLBA87WVK1eKsLAwy31cNbvrpgCQlhjXr1/v23uo9ZgNrvTaN0uee6rSotPemoEJ3fV769Yty/1JxaZhw4Zy7969mmLTpk0Tw4cP12wbp7/S/rz333/fbh01OVu1QqHiGqifU0D46aef+gJCI4mStfSy84CPHTwrVqwoz5w5wyqatoisWLHCbt9ltcUtQoBlg6UKFSokb968qSrZNvacGYOyZcuK8+fPm2oDZ0CxK3DgBIB27D0ko6pSGgRyADhs2DBJS080uKjyRmZ3YLvsqNVJuFdt1alTRxw9etSUL99th2ZgYiStjOpLgPM55ZijG0e0Hs52B05/9dNymiZnSna8bds2K+zJwRvwMjExMb7ZsCNHjij3wHKU6d27t0hOTnYN32eeeUZ++eWXHNVIxjV6cRWyUw6wLKbLOVFp93VH3bp1k2lpaUrNKCt/9+7dDfsAZ0CxK6cXAsC8zZuenu67nurYsWPim2++EZR3jXO1WCDNAHbo0EGuWbNG6cNW9SW6h5dmELQep06nLly4UPbt21ezbZzEzZz+StcSTpgwwfB3gtJg/wggAGSCyimWkpIiN23aREvkgnMFYl7VJCcni969e9ttZ4Na3vtaaGioPHz4sLK8ADr0omxrIAi4xgECARanDSEhITIzM1NTtEGDBpRmgVOcIRn6tUT731QPtWPfvn2GfYAzoCQkJNiSwNPrAWBycrL84Ycf6E7Mf//szDvmzxlAzowX+Tb38IOqH9Dnc+fOlQMHDtQUpY30M2fONNxfOO3QkNEMmlq3bi02bNhgegl4xowZIiYmxm4dEQCadIas15s3by63b9+uuzSjeTJ1V2ThCxUqVJC//fabssSFCxe64nYUpSJ+ELC7o/tBhYCrQnkKN8BabNgHOAHgnDlzxKBBgwzXkRcrrwWAvXr1kp9//rlvNs9sQlUj/uevAJAzg07tt+ogUxaL+Ph4ScmutR4/zY7l1QTN7xXOjzlOf/XT4IkA0Egn1HinRYsWkk7Q6nncNgt4Vzfl+GrXwUM9bN0ia/nA7BbF7WjngAED5Lx58+wo2rYyIyMj6UYPQ37AGVDsOonrhQCQ/Imu99M6cWybY+Qo2F8BIPfGAMr/FRcXZ8hvc2PGuQ0lMTFRREdHW1anTttpDnyPP/44JRw2PQPop3t4EQDqND5XXLU/OXs5lEz52LFjTvkzV6X/yHH3BWMvIA+vq4zPU8k5qQceeED+/vvvzjXAQM10ddCVK1cM+QEnALRrQAnmADAyMlLSTMzff/9twKL2vOKPALBYsWLy+vXrSgXs2MQeEREhU1NTNeumK8wcvGtVM2jiLOk52V9zgEUAqPRy4wJPPvmk/Prrr7kFGPru5xZuk5xyFpAmYgYMGOBG3WxClnuxAGQR7rS0NEm5iNz40L2VkZGRun3ByQElGANAOrzxxhtviD/++MN2N8qfP79o2rSpCA8PF5STkg4RaD12B4Dly5eXZ8+eVer9wgsviB07duj2VVXB4eHhcvny5ZpiixcvpntWLa9b1ba7n2sOeo888gjtBcUMIBNmsItxZ8rceOKak6/TqQNbbvMrp77M3MZJ2V69iSuVBfpRoG7dupRiQLcvIADM3UhG0sBMmjRJjho1ypI0D7m1igK+2rVr+4K+pKSk3GytGWDYGQA+9thjkk4sqx7OMqeqjLw+52zfoFQsQ4cO1d1PjLYpx3ua9gkJCRGZmZkIAC2CHQzFcLZTuPHUbLt27eS6des0TfTEE09QBgSn+qpr3AeALDJVvnz5pJTKmWmLarOlGN2+gADQmgBw8ODBkq4Ys+qhZf1atWr5/kJDQ7lXozkSADZp0kTu2rVLqboVeSu1KuHc3W1XSiOl8v8IaNrnueeeE/v370cAyIRpVIxm6Wmmmv7oRCr926ZNm4A8ddq9e3dJqb60HqsPUxnlque9yZMnyxEjRmi+Yvf3hZ72BrKs7kE/kJVxqm1jx46V8fHxTlVvSb3du3cXy5Yt0+UPCADNB4ArV66UYWFhhmxYuHBh36wezf7Qn8n0HX4PADnLrgSG9Lxx44Yu39QLdMaMGTImJkbzNU6yZb31cuQ5OQo5S+NO9tccerpmDyDd2/vWW29pmumVV14RGzdutNU/OX6ShwxnViJQ256rSpQCi/YBaz0FChSgPdSu0suEjQ2/CkCG0f3/xapVq8qTJ09qltSoUSOxZ88ev/PmptUoUqQI3Qyhq31ODijBsgewdOnS8tKlS2wvrFevnmjbtq0YN26cLltpVcBJNGz1EnBcXJykk7ych5Kad+vWzTJ9c6uTLqOna9C0Hj9dk3ZPE+bNmyeJv9bTpUsXkZGRgRlAjkPpkFmyZIlU5WwtV66cOHfunK3+qaPJ/xEtUqSIZNz4E5BtV+gcdIGtURubec+Nhjejr13vKp2RNpiHh4c7wrtWrVqS8sepnunTp4vY2Fh2GxEA5k6Uuwewffv2cu3atSqz+D5v3Lix2L17N9s2rELvCnFmOehwyvz58y2pf8GCBbJ///6sJo4fP16MHz/eknoZFZpeZmXUoVuEToXTQS2th5bEJk+ejABQN13WC8rv90BNO1KnTh159OhRTSVnzZolhgwZ4q8+xgLOENK0iRuXthk6Wy7iNqNbDsBsgV26dPHlatN6SpYsSSc7HWM9ffp0GRsbq1SVG7hkFYQA0FwAmD9/fnn79m2lXSZOnCjGjBljm//Q5fNTp07VbEe/fv3odhlL2sDVOyIiQqSmplpSpxLyPwKag4qVN48w2+MTq1+/vjxw4IDmK5wEzk721xyNd80S8N12KwNAf8xS6/GZLNnWrVvLDRs2aL7KTdafkZHhu2Iy+x+tfN2+fduffVRwZuuxB5DnLX41HK9J7pIqXLiwvHHjhmaje/XqJRYvXuwo6wIFCkhmXjl2O50cUNy+BMy5eYKcKioqKq9Tu5Z1lH79+knV1YF0F+3ChQvZvpFX40qUKCGvXr2qbLsTWyaKFy8ur127pmqbaQaqCnJ+btUynpP91c0BICftSMeOHcXq1av97hsqX6pXr548dOiQplh6erro2rVrrm3nnLj1d37MKVOmyLi4OE2d6tSpI44ePRpw9lDZy9+fA5AJ4nPmzJGDBg3ilOA4Z05HJkXat28v1q5dy2qvkwOK2wPAGjVqyBMnTmj6TsWKFcWZM2dYtuA4YV4ynGukrEi+XLlyZXnq1CllUzk57ZSFGBDgpHLy92DHnYHiLEE62V/dHAC+9NJLctu2bZoeFahLjszk6nl+x8TExEi6H1rr6dq1q0hPT7f9eyqrDZzTzW7Mb2jgK8v0K34zmumWBmABoaGh8vDhw5otC7A8S8qlDD2np5wcUNweAKqWG8mpJk2aJEaOHGl7H+XMMJk9AMG9naB06dLi0qVLtuucW6flnOZv0aKF2Lp1q9/aN3z4cDlt2jTN7xhufkQn+6ubA8AJEyZIugda9TiwZUHVJPrc1F65lJQUSUmVtZ4KFSpQShy/9Yly5crJc+fOabbJyj3LHMhulfGb0dwKSNFuZUBFKQSmTp0aEJwrVaokT58+rTQFd+O9kwOKFwJAzqyO0pg8AaUfG0kTlFV18+bN5fbt25UtKViwoLh165bTfcXUgKlUUqdAhQoVJOWb03q493k72V/dHADebbuyj1CydX/vh9PyC87sHfM+YKXufvyuUga1d5k4/T2is6c7Iw5IBrlHRUXJpKQkztsBw5ibeoNzrygp7uSAggCQ43pqmYEDB8q5c+cqBTlpRnIrpGfPnnLJkiXK8knArnujWZXfFSpUqJC8efOm5isjR46k2Vl/9Wvl4Ltq1SrRuXNnZXuc7K9uDwCff/55+dlnnyldiZOQW1mIRQJFixaVf/75p2ZpnPROpUqVkpcvX9Ysp3Xr1mLDhg1KHzSrWrdu3SQduNF6ihcvLq5du2Z7W8zqEgjvA5JBK3Dytz311FPiq6++CjTGygGF+wvKyQHFzQFgamqqpOUixmO773A2uFM79ewNzdJr/PjxkmaTOQ8njQmnHLMyPXr0kEuXLtUs5sEHHxQXLlyw3TZPP/20PHjwoGZbSpUqJS5fvsxqi5P91e0B4KJFi2SfPn1Y7tWsWTOxc+dOlk1YBRoQ6tu3r6ST4YxH2U7OITF/zX5yrrcz8l3F4BSUIkrjB6XWJpVavny5DA8PV5aSmJgooqOjA4px48aN5e7du5Vt52yidXJAcXMAeBc+JxC31Xe417BRe/XedrB06VLZo0cPpZ+RgJnlZVYF+oWUtmnXrp1Yt26dbfaZOHGiHDNmjLLlQ4YMEbNmzWK1w8n+6vYAkNpfvXp1+dNPPyltYqS/sAplCo0bN07StYWqR+dJWWWfePXVV8WHH37I8kVV23L7nHNIi95bsWKFeO2112xrh5G2B+o7gGTAMpxTYf76RaS3+ZzM9lQm51SbkwOKFwJAO/P/cXNDZvnXiy++KD7++GP290XBggXlrVu3lO7ZqlUrsXnzZna5ygItEGjZsqXcsmWLsqSUlBTx+uuv29J2Dj9OH82uhJP9NRgCQO4P/yxdGzZsKPbu3WuLf+TlnCNHjpR0eIzz6LmcoGbNmvL48eOcYm3RNzY2VtJFBaqHbko6dOiQLW1Q1e3GzwHKgNXy5csnpdT+QdSyZUuxZcuWgOTLXfYbNmyYSEhIyFMHJwcUtweAnKUMO7/MOPkrs3eNZ599VnzxxRcsf+bsGaKy9ZRpoJuafUU541GsWDFx/fp1FhM9jalSpYr89ddfla/oTc7tZH8NhgCQdODuBczS97777hOUQsmKHJoqh+jYsaNcvXq1Ssz3ef369cWBAwfYvsu9vadMmTLi4sWL7HI5jeUkfs5WjqV1c9rnZhnA0mk97r6m1NRUEREREZB8uftDVNnUnRxQ3B4ANmjQQO7bt0/pfW+++aZ45513LPMjSkBN+/Lu3LmjrDu7ADfVCOdebCq3Zs2a4vjx45bppUsZhnCzZs3kzp07lZJ0cpk2pYeFhVmiS/ny5eXZs2eV9daqVUt89913uup0sr8GSwBIenDzWWbXmfZqUvLiESNG6LKZ0hGEEPR9vnjxYsFM9C+Mnrbn3EhD7a1Ro4Y4ceKEJXrS9xWl4FFNuFC9dm/L4NjCbTKWGMltSptpb7Vq1eTPP/+sWUSJEiXE1atXA52tcoaDlNRa5nJyQHF7AMjJZm/1r9pWrVrJzZs3G3L/SpUqidOnT2v6NOfWAaqcU5ahRlr8EicFC1VJszxDhw4ViYmJhvs8JZUfNWoUXRmp1KJw4cLixo0buutysr8GUwBIunBnuXMzZmhoqGjTpo2Ij4/XbcOs8hITE33JqelHyl9//aX0mewCZrYucK9xVE0ecBocFhYmV65cyREVVtTHqijIhAw7YJBx0KOOMnCixJkpKSkBzbZ27dry22+/VerdoEEDsW/fvlx1cXJAcXsASOA5CZhJjpJzUyJmo3fxRkdH+062XrhwQWnvvARUe1pffvlluWnTJmX5NPuwbNmyezZpp6WlyevXr1P6BlpW/fePO6uhrDgXgfLly4vRo0dr9lPOUn1W0RTY0v6rXr166er7nITy2Zs/a9YsMWTIEF110PtO9tdgCwBJH07KIJVfUsotysVHt/5QQmX6o//37NkzX3p6ujx//rzI+qN8kLRqwMnlmle9ZpPLc/fiUf20R5UOS+q9JYRW2RISEmgSRYXP93mRIkUoCNbdH1iFB7kQoOkwcHh4uKSNs4wn4LkmJCRI2uPHfBAAZgP10EMPyV9++SVPdI8++qj4/vvvlT4wYsQIOXnyZKYJhChatCgN/GLKlCnKsmnfTHJyMm1CV5ZPX9RVqlQRWjrdLUSrXuUPI2VD/CzAWYbm3tmcvelkJzrcQien+/Tpcw8zOkywY8cOOkUsVDca5ESi9zR29vcRAFrrYCtWrPBlg+AsT1pbs7HSuAnDVaV36tRJfvDBByqxfz+n75emTZsKukUnr5uNZs+eLTdu3Cg++eQTmt3WVXZGRoZlWzDYFQeJoHIgCRI9LVGDM2NTuXJlcerUKVdw5Zw0JHB5Xavj5IASDDOAxNbIfqIsZ6ZAg/bb3L2KSZw8eZL9qzmrjKylk/nz50uys9ZDX7RdunTJy7eDMgAkHgMGDJDz5s2z5DvETCFmT0w72V9z6K3pK5wUVGY4WvnuzJkzJe3TDfQgsG3btmL9+vWWjUvc232sZJ1bWXRPcUxMjGV62d3eQCsf4JgWSUpKklFRUUpp1clZZQF+FOjQoYNcs2aNssb7779fXLly5R5fcXJACZYAkOBzT2UrDaVToEmTJmLXrl3Z7ao5MCtOnQZtAEhYaYaCBvrbt2/rpGxenJbf4+PjxahRo0x9XzvZX4M1AMzSKyQkRGZmZpo3tsUl0PIo3VwzduxYU76TW7MaNWok9+zZY3GLecXRPns6+MK5AYdXojelLHeKYMXI3eDu5zsRrcDNGrjfffddERkZ+R9/cXJACaYAkIzInY21wuB0aGH06NH3bEJX7Xd7+OGHxY8//ui5GcDszEuWLCk5BzWssBOVYeWBGSf7a7AHgKQfzQaOHTuWdZDHKv/QKqd58+Zi+/btto7xtCeQ9uv5cwaUm5HAH4zdXoetzuF2OHq+tEg2JCREZGZmuoopdwmybt264siRIwgAhRBW7QHM2T/03DRgtG9pLSMyb4nxdABI3Nu2bSvXr19v1ATs96wewBEAstGbEuzatatMT083VYaZl+lwE91C5c80ZGXLlvUdWLHzoR+udGvQ0qVLXTXG2snEbNkAySA4ePBgOXv2bKUkZSqPjY11FVOdBxEQANoYAJKDRURE+C47t/oXNW3A3rp1q6ZvchKuauTaYs0kKzuRHwU4h0C0msPNFahHpUKFCvnuXc7IyLD8ewQBoB5LmJft3bu3/Oijj2hPuPnCGCXUrl1bdOrUyVR6GUY1eYrExcX59spaPUNOgR8dtklLS7O8T5jRNxjeBVCGFcuUKSMvXryoKUlOeufOHbfyZA3eERERIjU19V8dnRxQgm0JOKdzRUVFySVLlug+1JG9nKpVq/pO3i1atIjtl8WLF5eUiiWvR8PPWT7E6G5+EzEbAGY1tEePHnLr1q2m0nNQKpC+ffuKYcOGsW2lF5ST/TVHW4PmEAjXBm+//bYvTdL+/fst3UdKtwV16NBBmc6I204r5CZNmiSTkpJMB76UDodOvScnJ9vWJ6zQ181lAKybrYe2e4LAmDFjJA0cR44c8eXyy3kQgfIElitXzvdXvXp1QUuHgwcPRt92wDsowTcl56VZH7rRg5bFsturZMmSolq1av/5Gz58OGzlgK2cqpLSAB08eNDnG5QGKHuuv8uXL9/TLJoVppP+tB+UgiL6l34wREdHB7zf0OFJSnlE+QupP+R1AxHlB6WMBJQkm76/cLLXP94Z8A7kHwyoBQRAAARAAARAAAS8QwABoHdsDU1BAARAAARAAARAwEcAASAcAQRAAARAAARAAAQ8RgABoMcMDnVBAARAAARAAARAAAEgfAAEQAAEQAAEQAAEPEYAAaDHDA51QQAEQAAEQAAEQAABIHwABEAABEAABEAABDxGAAGgxwwOdUEABEAABEAABEAAASB8AARAAARAAARAAAQ8RgABoMcMDnVBAARAAARAAARAAAEgfAAEQAAEQAAEQAAEPEYAAaDHDA51QQAEQAAEQAAEQAABIHwABEAABEAABEAABDxGAAGgxwwOdUEABEAABEAABEAAASB8AARAAARAAARAAAQ8RgABoMcMDnVBAARAAARAAARAAAEgfAAEQAAEQAAEQAAEPEYAAaDHDA51QQAEQAAEQAAEQAABIHwABEAABEAABEAABDxGAAGgxwwOdUEABEAABEAABEAAASB8AARAAARAAARAAAQ8RgABoMcMDnVBAARAAARAAARAAAEgfAAEQAAEQAAEQAAEPEYAAaDHDA51QQAEQAAEQAAEQAABIHwABEAABEAABEAABDxGAAGgxwwOdUEABEAABEAABEAAASB8AARAAARAAARAAAQ8RgABoMcMDnVBAARAAARAAARAAAEgfAAEQAAEQAAEQAAEPEYAAaDHDA51QQAEQAAEQAAEQAABIHwABEAABEAABEAABDxGAAGgxwwOdUEABEAABEAABEAAASB8AARAAARAAARAAAQ8RgABoMcMDnVBAARAAARAADUCAHgAAAA7SURBVARAAAEgfAAEQAAEQAAEQAAEPEYAAaDHDA51QQAEQAAEQAAEQAABIHwABEAABEAABEAABDxG4H9rC9GS8msYZwAAAABJRU5ErkJggg==;" vertex="1" parent="1">
          <mxGeometry x="490" y="399" width="240" height="180" as="geometry" />
        </mxCell>
        <mxCell id="o3sZ8iPzQSWBcQItjnmb-7" value="" style="shape=image;verticalLabelPosition=bottom;labelBackgroundColor=default;verticalAlign=top;aspect=fixed;imageAspect=0;image=data:image/png,iVBORw0KGgoAAAANSUhEUgAAAgAAAAIACAYAAAGDf+RsAAAAAXNSR0IArs4c6QAAQABJREFUeAHsfQd8HMX1/5MtW7It9957792AKTbN9GZKAGMgpELgRwgJJPxCGkkghF/+oSWB4EYH0zs2HWy5917k3pss25IlW//vW92edvd272br7d7N+1i+3dmp35l50968l0NTCispi6lGFpddKboEQLaALEcgN23lP3GSKm8ZFU8+Z3IhUY2c+HtQDznpGAUqbxphWb6cqXMsv/nxIXAmmKzwXMBU370GIdgugGav0sWfraH3tx5UX2lA4zq0+JL+Ve88MwmoNwTaArR9Xlt4LvWSA8eqCo//Kydad5G4J48eAmkBos36JGpe5YNqGL95gq8t4E+D2tnq02rhtZXLQDxzametk6fPvgHAGf/NgDa6zN49d3P1e0U1P1AcNe/rD5dV+8PTbd2a2wJSFzjFiy/DoNp81bTrvTCPjsYYoPEb84KL2jVSvSq/arN/5pTOdFv35qbfdI4uXjwHwFhAtTDaPBr9aL+J+Dfzo43DzrOnXcBYMKuMsvsflmzX5fOJVbsomX+tZ2M62m92nz0DYN2VA3VpWxVG9fTgoq3qo/L7szmbdO/GF2N8+68bYvTi6N0zALoW5MUzYMxs/IPLB228jWt7M4J7AoC2SeZM8XcuP+jdZXEYtenGHW0+eAKALk2fp7CLDxzVJef2xR0AGLu/Htc7nge/a19NqN87S9VH+u6CPkQ8hXRIzjqSYS2vps1zeG0/Vd29/l12aWzRhIhPaV5AlTePVJJwkrb9FmBReLWQXvRLNS6z32TxJ/tmFhe72W4B2hWdFvHGtWrS/u8NVdLhjGi/WSVu111bwJxJs4lqxuqvshIryKpWYDdtey0ACalkLOCB8hN0GH8q1czJIeMfafYDVH+mv+jTxrD8rtIA5gFq4dkR33KeAyAOyFYLOKtVw6RJNHhpfnzRUjFhuKlfI3BmntQ+bfaN3ZYerN47iPvJ1dQlA60FKO4p8UETKvGj0WXB/iNGJ/27SA1rWpE+sIdvZutqi+httYBiTRO/qWszmrp+ry5aK/7AnrT9VxcoyYuxtahxmPXzk9qNVk13SRK98slWC9BGNuW0LlWFYraA+YCaOfaTN82f2eAn2w/Fs6Ckx+M/M0BmuvEv9h5stQCOmmtFW1iz/bvj1bzSXm5S+D5/xmp92rHxXxvM2Gq038yeHbUATsRs8lXnhbm+DH/ajHPaN36zXuukPM/YUewobdstQE25ptrMNROjsnJwXxsMSI3L7u9Dg9vFg+jmA3FX8QdHLUAXvWa4OWnSJHV+PXrpWK966S063Fkl7R4AxHzPvC3x+Ps3rht/9uNBy3/+u26P6yQ8AeCxFTviGVlySb/4s+cPBsZz23cbXSfhCQCci5wpON2NkbaWVDcvfrUzROU02YNIPQOA5+Pz91XPFL0GQRvftqPHPWO23gGA2hj2/nJdnSiZNjRbnQeBl27Ya9QWnoO0e32RQEgxL46HQavoEyZKLkYGY8E5TbsTHat8qu6eA6BmsmVeLdp57WA1nfhvm7q1afux8vi78eFnvVoanZT3rm8spg0l+iMzU482HT0/GTKmb1aLRj+p3r2udW16vrQAbQJq5p0AoYbVxuf1s6dMUCRzPFxeCukQM7rqi7We93GzdLRugQPAib+LE2Fj7fL7G5sPaPMWyHNaAAikZIKJSAAEgfLOm2a76q45m5V4/71mt3fx24zJ92HQZn4C9y67QOCQhyxB2QJCViGBZyenEhR4qiFKUHaBEFVGWrLiejW4+tAx6vX2UpoFUZVRkNa4EguaNzGnV1d/PMe/p09renRYexxhz4JEQk3lm3EtoPpXUeDvRjftN/VZ/bXyq363/GUe4Ib4xsnsPSWV/KuS8Vl959/caXMUb6qbGsb4m+o7+xfxY4zX+O4JDxjZrF4CwBXIX+vXFtJEnCJrqfzGarkBYyvQ+lOfb5u1kXLRGphE/KvhRH9dAXDfgq26dCZ8s6HqHYWvBXnBndj6moxTZDNSmywXKlnB/rt2D1XEjr45TMfp3m2Icr5cAfDwsip5X7UAz2+okhc4PgE3PgxnhCUacXgVEC6QCoTqlur3kEZGIZVfke+umaC2ACoQtQyFH96sgOq/OI9Y/F2lnEmF9Puh7enBhWhFyQ73Adzu0nJqkV9LaSna9NS4XP0amYLo+7e7D1d+vO2gzju/f7WzWHHjZ+137TN7uO6rtZX03KzKcTNW6+JQX7T+X9m4T/GrflN/tX5UN7u/ciboqvlkQGC5IZIBleiqCK6GQVcphySwBCAkFZG2bLieCDnN+ebxg6g9ToqZeKLT8tWFTqNyFS7wLtC3YR1l+qsWnnPPszye4Y1t1cBVYZwEDhaAE5W07LLq2x7GDM88rxcJi9QbAzt8D3QeoJ3Hq+sGNd/Jvql+/PgNtgXESqCVKFMLFdSFKzU99dd/JqgRpVUTZYmyBNI4qa3BrRhsQhomDr4CoBbEJF0hJ/X+gbG7CAUW9ORLF2gd4+pWeTADxsxNDc/fePTwgzxngvMu6kdDm+rlhdUarIuNkiOaPcGDx0/QCWyfNc2rbogdIAO4hQUhQUZQio6UUefpiz3FwdMW8PaYHrrC82amWnjO9VEITWqVpTSqXVNXeJ4QqYVn/xz2tU37+VGhTpASn3tRX/XVk1/vWoCB2WkLbpZTY+0m9W+MW3tn0CxyG26etQCVYXHaSQsTy5zWj/bZNO+4k5D3/Nz4J21acUeHD54AoK3Nrm9620fVch1H98HVLPU1gT/EP9h88AQAbZobDBpgtN/cPtecWt0K3MalhncNgLb2UzZlNVUXvzU0Chq0aTuN0hUA57VJfpXWaaaShavUzBjZX2+X84PqAThZqoZvVshf3r4xvbXFX2nPdVcM0OVmhWZ16aQF2m4BVoXnXL05pjv978C2ugx6+cJpd62fbxllsrxZBbLVAvpD5Z1KC/cfpSHvJSo0+QMA+OPibao33361ta0rON9QMRzNJcuErRawRNX3hxi1hecEtBn6YY8WSe//J8sQfzPTHaAtpDYt9q99116s4m+pyFYLUCPr/fYS9dH099+jOhH/mZE2s2bftQU1+27lxvOE2jZqXo3HVgtQA/1hYPXVVdUt3b9OCs95dtQCru7UhOgrQ5G578VIUWeh0ejgtFa1reXevq3pERynpyK78gO2WoA2Q1woNfD7Z/eIq7JRMqgpfKoMi37/2/Lq26mc9jWdmipBezbI102LG0GNhx2y3QJ+OX9LvCZOICNG0oJk/Ob2nfcSVW0xr5zRlfhPS050E6uVqI0n6TPXhNW1VT8Lr2QKe4lWaSjuDpig7RagZAQJqRlx2r+Tomzjo5oPG0F0Xm23AF1ovOiuy5oIQhn9u33/7Lxq3WXXf52oScJu/K4B0F2YvrVaV7jdjIj6H9OqftzrSxv3xZ+dPrgGgBPurtkE8bNLaOMe88kqp2XWhfMEgHWGTZCbuuilQ3UpOnzRFp6j+GJnscOY9ME8AYCj1DKjKaO70F0Wl6D1yYu9GQuvTUssBmtfngHASWgz9o8RHXUTFOssJP/iZ+E5ZU8B4Ai1IPA7FwCn4o7I78JzpjwHgCM1glBTu42FkyBLSoKUMU7LOGx+8O5gxCThJjj52XddlZJFk89CTm0gOrMDJ0Z+kS8tQM3sfpz9uak5Dutn4TmfvgKgAqH95TN/RQuM1hHPO3C3QJEHMLj7/epsLeAmVzjmUrXAqEwu3ko0arncJGEnbOAtwE7mgvArAQgCZTOhKKt0i2KqcvprtEdb+fXC3ddh0IsM+h2H7AJ+Ixz2+GULCHsN+Z0/eWvMb4TDHn/W8wDXawF1Hq+d1/9lSHu6r1/rKpX3OCbTfuNnFoZkiVCV1O/qOy+KkonCqWmq/vnXGIf2W7Jn1wCYRX7/gi0KAGRxRsiF/yUOOx8WOOw0i18tLIvYm6n2Ngtj5eaqC/AFaEV0DyfDyjNSee/snvq0sAG0/Wg5Xfa5XoXeIzhim/ht7Lq9PoTuTa3tv+KmutWRnC6AzRdXAECUQ6kBRSojtu91UVu95NjTEJRo++oCemfLwfidIK7BxtgtYvX8agGt8t0sJkh9X782tkRfrOIzursDALFxAcwK8dy6vYqoy497tohnXLkTFMvBfmyVaZuyMWP8zruHfRpVyyWZ+XHr5pgHKFdcsNkZL0QMCOUdws3f/25D/JsxkwzYGS3rE0uLM314rqHbxALwXupXuw7H3nz6sXvfXvXPd/fLT55UXyv3lpZb6gtgv8a7/jRptqlOAI7w4616vQQ1pxZWXvpZop4BY5zxzNh4kDNBnxpWZKLN+g2RyNSUTxl1PQr6lC8ZbUAIyAYQENBhTUY2gLDWTED5kg0gIKDDmozjhWBYC2SZL8PNW0t/sQ9BqC1IlYcgvmf8KoAN9Kw1WES3A+xZn6ykL3f6vBthJ0Me+83oBqBuUxkxOwCprSZQbam7V4cd3S3XDKZ2Ma1OxjBm+31GP1F8z9gGsP3qwdS6Ti1dnbB2W1bxm4oWXNyPBjfRq/8og/BmPixpZhpl1iQQ0reTT60ygmusfK44kcpnf8bLsOyWx0cfOMbga9GmdlbZUwQp2pNAVDjrmtZaI/e7DlgxgPFWspNLen7nUzT+6DUAjNXGChAt7AMD2tCfllTpAE8W5ooOjZN9TvimzU/UGkNk5gAsP8ByBKmo9rS5VB67iGE1CTz1wxU0a09JQlQ9oZFilUEth+pJnQTegQPex0d2Up0tf1/ENb4bPLjLaJmARx9C3wCWX9o/6an4d6jI01ChVvTVuN50eovq+5VW/qzc2bInW/g0JQFulE4dsaZ5NjiGtgGwoY7ZF1rrilNkzs10URoKqL6OQHyFSeJT/am/bAeTTUGKUhtoTdyGZaQVXQFzM2+lwYSkVX5U91A2ACvWzZlWWbFaAKe/Zml4EjeuzFcmuTXuSRpOC20SLlzLQN6uxazejFjsLmzgmeWTIAvJ+fzx7CLTz1w+iOGYfkuHY2gaQCts2phJw1awzCUAZRHEKBGbTbVqsCcnjiStFrJ0lisUDSAXY/kO7NwZ6T5IGNfSaA41fo/Cu1UjYC1sqlRkOsuR/gYAblg+odramgrG/y7aRg8vq1YVpbpH8deqERzga/TgcOmkwDeCfgy9giwtnor+tHgrZnzRYvvJymR14UO7icThm748n1jFQFAUSAPgRMotJndWBVX1o83bd4SGv7/cylvo3a0mtVYZ1yrXsLvUtYozmbvvQwADYFX5z8BuJKyNKpdezvnUXAfUsKb1qlYGWCFEiS5p38hyRcNaYVpBCwqrmGRNh+sPl5oWjTtB0VWDTL955ejrPoBZ60+6s6aWCssklQOoTvzr5T67Wd6sxmptHkSeh6LRzjMxeKBep0kWh1m+vt1zmEZ/uDJZMMff/BsCTNa6Kw4eo74iGiBYQ6TJJUnjeJmq1E+u3k13FBal8pby+4imBVR4UZ+U/pJ5UBqXwJSG/RkbwWnNnW9lJ8sTf/NtCDi/baOEtC/G9qoweaA553a+mWfSEIXzEPPotvLtpldsZkHYpyHQNw7wsYky/Q2QzRNls4rghQG5ZeAgC/cfMbhWv07wQV1jdez6p2kxU9J616o3s3zkYNw3WkAwC8sNtkGtqluTuu8edAhdfLEX3xoAIcN/Xrqdft0fF3s1xOytDzSwrzxkPvHhdbEVq0+lQMgMeE3Snj7epBpTN4n1JhwDG+cwJydWbXEn6wALIYo2yCCKxtH7KaHsXwNAxn8D2+F/gQDG4RuG6WBacZneFIbuo8nL/rIKavrKApMvIXXiOYzJWM65NY7vqUqgLAV96v2ctq8NgBMowdjFYAxBy56PFm6H2N5aY2yMRJWU3s6sP9b77ZQj3ut93gzzvQGohV4Asytx9odx7jxMEt88qzvVtdAkEverRhDVX8z8lbIkOSbecuS4ooWdhUfi5GOvj6eBh8AagDZR3uL9ZPshqsey+SAztshuGdMIuIwWMgLpLqNvy0ClZgX/swLBrGEIRhkebzyptdgGtyp3kJkPRQPgAluBoYDnwVo+SFDVtHo3hIGbm0eqr7pfq/LqPAXwEpoGwGW1AoWXVN9AuDNKxA3XarVjVc50lC9UDYABYHC6mEjhngbJXgb1bI0FlXQAlipNzqPCtUw8svRymCqfs5ieSaAJOFqnjRDFZqDMgJwRsyG0triUeryV3KSfNk5fn5NsXqnphq3i1XyFsgGomVNBM2sI3TUG5O6Zt5keW7FTDRbML+Ylxt0+s4TVMph9C4NbqBuACpAK4ncX9KFTmheozvHfvw/rQPwXJCWrfD6zSLVtHWRek6UViQagFoCvdClkY3dNW1EsfvcvSOs+sWqXGqXu91rYCL0Dpq9GO7xJFIQEjy7DHrz4KhDiQf6EoriMTXnzte2Aie0YemHKL+Bs65LLiAaglshsrqB+8/pXHZa8jjfo+CI1BDgBx4otmzUWq0o18+skL2EME7p9gDCClMl5kg0gk2tXoGwZ1QCOmcrNCUhiCgCVqV4yahKoVBIawWzcu/s7jHK8tml/0nprCnsUX4/rQ+NmrKLNOJNPRqyv4FkooBr47tJ03+ZKlk3b3zKvAdiGILsDZNQQkN1V6az0sgE4wy1jQskGkDFV6awgWW80yBlsmRNKcoDMqUtHJZENwBFsmRMoFGcB1321Po7oy2d0jT/zw9VfrovrAjZ+03k0vDyOI99vd1dpA72hS1O6pF31ZdVh7y2j+awplC9dQLCjeb3atAwKKVtA118yGg9df7k1apCdfKjxacuoupn9OonbLB5Rt7TPAVhJAlCtzi82cozawrSHNNqDGa278U6h9psaRut2Nc7+HxzQlnZBhfz/LtpK3+0sTki3OlNVT+ptHTU+43c770pebMg12Inbjt+0coDprDkzVvkMqgIKbsT8Y+Uu+p/eLavLwVu8hpsyLHWjEIuMc0+uUb3le1SzJcw3kpngK05c6FfP6Ka894Vx1rGt3d39P+sjWBXZbbAqYtKQ4xkI0YOm6wWfK2apTKsvr7osenefVsr73XM3Kb/qf1qO8KOYAsb+MYHQipsgd8+iPqBub1YJidaDYWmF4N4ZJmOYuHmsiqVTwe8QOo3/QRmFU+I4voSBW27A2r8hkCrib3yxNcyUtgYQN4aNumMWfO1X62gbTKurpKhTUV/w2wHjNNN/INKlEPd4hGX9kerli7iunRhXOWm4lNEzJkiqVtSiS3BZlTkIuIvSGHg4skGqIodbuzdPCDU/piKmWchvNaelAZz9CRRCxVj2EyM70mioQGE1KPz7z+Edq8BExQ56d1kc2E0aZUlcWUxvjNWIgcXYviIAwh/xzr0+GQ1sXFcv2ZsqgCEyVZHDc6sTZQzf3YrhDfQcDpDCTGmZA3yGCRdTWxhouh1CmEa6c/ZGpVcuPnBUGbvVenlwYFv6/eJtce9XQBZQpSMTRlRdNo1dp9YOG6ofteGo79rfjuAwTjRyKXMXDDlK3DwUxTgKx22l8EGbbrqf074KSDcA2Z5+WoaAbAc9TOWXDSBMtZGGvEiBkDSAHqYkJQcIU22kIS+yAaQB9DAlKRtAmGojDXmRDSANoIcpSdkAwlQbaciLbABpAD1MScoGEKbaSENeZANIA+hhSlI2gDDVRhrykpbTwDSUM57kNRAFeyUmDRR3jD38EMImz6jyBsaPGfqeNVvBv8NRMh8nixBb/bQy/SoSPkp+sqIB8Jm9E0omP+AkvjCGyfg5gNPK58pyEzaMlW2Wp4xuAIe/B9OsLumkQ+7hMtnAgmfuJBDiWQVmxpcAbbvXF+kEUBntJrVrktZqp1oDLI6WD/nF0pjkseqeKb8ZywFUSWFjRfG4rpU+Vr+zvV6rMf/YjYnGrdVwUf/NzAYA2Uwziouim32MuRnF0eNeJQeIQxH6hybQ/WOk3aW4oKG5PWT8Hn8Hz58Pg9VGGmaio9joJ4rvGbUMrIcLISXX603UqZWS9/w8On5S0AA1ervVENICFz32hPy2j1pmkd/EriISKmR+ru3UNOWN3ePHwQG0l1CTlcFiCOEgu68dooS8vbCInoJt4qhTpOcAA/hmD5ZpIleqc/gOmShVpuYUT47spKQ9tlUD0VhD6S+aDYBv3qLiF/PdPkF6BTYKRel3Q8VtD8w8r5eSF76KFkWKXAO4H7aIza59pQL/6o5NUnmJfxc9M4gHwAPn6YkRHbVOkXiO1CRQdGv2BMZwM45fjnt7tafNTVox+64bgk0hd1Mjq/2EpAmn6WM0OADPygW2ZN+Cwglex+dOg63i95YnQFoLF0eVeMzW9Ggc/M2s8lm9C1eqoiEkIdZEB8s0Er2m3SX8HIDHe7DXZMQ7e+1eW1SlBULjMVWjWQh7xhVoDMOhBzgZJfRogTxxfKpKmWRxp/tbuBsAeHnlLdAAkoSSgsy9GkYn3ZCye2ixgfSD7i3oP6d0Shp90vwlDRnMx/A2gBSVV1Jxguq/KGBaXrC3msEtVHkC8SdrRGbpBukW2jlAsp7LKmWEKp+RZPUvqs4gG8gqmkYMiqlMg8fUy5h+izla7SomCxPUt1BygPIJwyk3punDCMRgqI1ZBM0hjghbwZU3J59PWNkYEkmvFKeGeRbDBYdPmEuIROqzn9BxgCs6NLas/H5vL3Fe+QwklDxyJXR6AxNGA5376aqqCrJoeAbvpq/5z89VJpWmH+F4V+9WVp/S5h6uBoBx/w2LHTtWD7f8UGnagBJNuBYagRX9Yzh2GEUPpKwi8dg9VA3AatznZV5cPZzHAPgRXTJWn2oI8iM/yeIMTQOok2TCxSJcUSNFBa5Fplum0ElsEcwX59A0gKM3mJ/jK0sxX4ruc6Q4ep68bq9pIjuvGWzqng7HUDSA1nXMtXTP3AF9gkk4QzoAs5PmLd9tsPTeH0fZYaBQNIDtV5v3iHMwM4868crAjJbYOMo2C++VW/obAHbSzGjiN9a9x8x/WN3KzA6e1Mwm+6b68fk37Q1gS0zEyljOqRvMx0+jvyi817XgAsUhEDdPWwOoiQ2XX/ZtTe2gL9hIrH49k+iYRU+vj4nizV2bxdXdp6PM7iQf7OZY4OCEo7z1m2oTMnaTCKv/uftKaHjTgoTsTTqtC/EfExvB6P/20oRj7YRAHjoExgG+PL93ynN9tVzroRpeOctPIp2r+g39L3o/l8Ws8o157wfrJZUTRxALuwZFgTQABuCMlvVtl4nBIJbviih1rJdneb8gWZFY2PX/jcC2cQDkewM4eJ27G7qpBEICwMhZEhjuiq4a6CwsQt3ZqxWNCUDk3NcG0DI/lxri1q0VdXljsSI2VfDivLiJNzO/UbyinUyM7aEl26tkDCcX0o1fW893PoPIuWKAwgwUj9x8nQTuvKbqFo0xrzpTcdjpO1JxkkZ/tELxZibHp1zpgB8SvdljTDDg999aqKJ5Zu0e+uGsjdW5gezACxv3KX8jmxXQ7Av7VH+LPZXcMJy4g/hFvnEAq36viEclqUirk7QygwEovwDxIt7fmzSAyev36ivfkFDh3hLqYHLoxfcd/STfYt9isr17/4ItQjd0za5x10Zv4b0DkT+dkUCv0IOsgkjaNSzW/Ld8m3pnc4vGapo222Z7Jdrvbp59GwLMDnj+unQ71rgCd/QsxKoqICpmhxRZQIHkUsVpNiylCqP9/rflO7SvSZ8bvDSfig2qbVhIZsQHifcckkYk+NE3DmCavkjlxwJ+5cFu4Dtje5hmw47juDbVNofthNP6/eV8cD5BOmxy9XxY0+T3FgSjNvUWbAMwzYK5o2qU0fyrmOvY1u5v7l7Z0X0DcDsk2eg3YsBofIW2AVyssfatyW8kH6/r3NRVvtcfLnMVPllg3+YAfOUq1zCWd4Ed3w0lzgszLckJIc+9JvLBSgCULB8nMFm8uWtzXS5eOqMrvVy0T+dm9bLHZOPstlmpJ5BW8aVy960B9If8/srL+uvSXw9L3lbLPK3HoisHaV/jzzclkxHAzltQDSBpPpBbYwPgArAR642pGj/2Opph88xIX2yHZJShMxn9OH33bQhYdeiYaZ5SzaifGtWJOhYkHhHX93EzxDSjLhyXHUgsO5uxr2d2Z11NB5VfeavFpRWfKp+T9q0BcOT3Wsx+uRHc2xeXJFRpILDNptDsxe4/6dGCgyZQCe8ERoT6v4MjXRPiXT1lKYvyxgnlWg5OaVX5fgvFJvKbeM7cPzyK9e/fhrY3jegRqGHhPxESuqQpElFQfrD3MOS9ZbTg4n4JKfJmktX9B6PnWXtKfBeK9ZUDcIFExnxjwbXvijhVBCWDWffAdCiscEo8mTz1w6rzEadxiITzvQFwJpw2At4SthKnEilcuv2M/2It3QF1cnZpBeZPuSlU2diN08p/IA2AE+dGcOZHK63yoXNfU1xa1Wh8nPzoEvTx5UnoErQzjnOj78tiYQGRr3MAYxm+2n24qmKxaGe1bWy+xYz4pm5GUZIhjFk9ywc8yAdl7C/gRh8YB9BVKAp57VfrlMZgdni2CTKBGUXaWb+hYMzqH1y8zffJniHZ+Gt6GkA8eaK6L1gIO0Ro2acpjunjzPN6m7q3n77I1D1Ix7Q3gDKL+/JW6+IgwfEkLSz5rQ6lth457kkSbiJJewPgzP9AKyalKU2O2fig+R6Fx6Lx5oKhj63YGYrsh6IBPAtZOTM6GSExMLP8Q18MsWi4Gd0zb7OZc+BuoWgAXOqrsGY2o4/O6WnmHAk3q2Hs/gVbQ5P/0DSANyx2zc5v05BqarbOQ4Nciozw4Y8V/XUZRONCQqFpAIxHzqRCU1gq+IZQkqWUaaA0Op7VsoFy/GuWhVxsiIWJQtUAWMX3XBN7PQyY6AFKusHNw2HP5+fjQocJbYXU7wkT93Q6hasBAIkR71tLv6aSJUgnkEraWLWUJpFcbm8i95/uPIeuATAgirZOC2SURhDCOUFTGKlMphLW7K6DRREDdQ5lA+C7A8kAq7o1HB4BEb4Kttcgy6+tRWXcD3iPX5t+sudwNgDOMQBr+eoCy7zz5cuf9mxp+T2oD8yRzK6Cqel3f3NJ6MZ9NW/8G94GgMyxsceuuEFsRU+O7FilSEIVLbPy6IN77wb5VWkniXsorJasO1yaxEf6PwV6HOykuCxGzlJBR5MoVGJusAoyBEGRyGS02cvzaR/sEYedQs0BVPBYKiiVUEUv9MiwEOc1CpXPeEWiASgVC2EJu6JlfKOY9+MdEVYarPvfjrk5TkfJYxIBEEd58TFQ6IcAY9kZ4KG4LDnvor7GTwnvtVCB2v341VA3/xdsw5oZh24JdbX/GN4RE8sWxOHs0thPVtHnO3GBI2IUSoshohjuxzWqxklU0IjG48bfUXCYeizUYr/NuEnWs7CRbgAKCtAidgLHxg46rWsQI3dfwaTE0W8AaqHKT1Dl909R33z9VTap0tHifChVdCaBqQofZIUEmVaqcrv8njkNwAQI1j7G5wr1cLF0KpQ0sQh2KmIptJeguYs1c3FPf2bt7lRBIv09cqsA22jjXIEnahOhpIn/mPj2sfEKOt9FmMEGKrSUQT1dWyztc0ZzAG1B5bM5ArIBmOOSNa6yAWRNVZsXVDYAc1yyxlU2gKypavOCZk4DwGzfSLtLy41Oyvu+0sRj2q1Hzf1uNru+lQE3llRgMqcBmCzZury2UC2n7rekIrEBWCm1+tNiExl+k7R0CUToJXO2gmOg39a9Od3UpRmdwbp1UxzL/hsayerl1qzS2Z/IQKqrET3+fdxQYrP1v1kYnls91Rl0/pRxDcA5FNkZMnOGgOysP9ellg3ANYTRjkA2gGjXn+vcywbgGsJoRyAbQLTrz3XuZQNwDWG0I5ANINr15zr3sgG4hjDaEeRUgqJdBJl7NwhIDuAGvQwIKxtABlSimyLIBuAGvQwIKxtABlSimyLIBuAGvQwIm/Z7AQ/BnvDSmJWtTpDX/+uQ9jpYr/tqvfJeDi0g08d0131L9qKGYz8vw26fSitxQ7jPm9A6oq59IAdwV9/WuBmc2n4Rx8mGv144vTo+Nd5kv7fP2UT7oO0kFfVsmAd1M+1SefP0e9qXgYpGMI04l1H7hlYngKNvEOZQtXclu8zJ1j1fSlGxnBfWOVCWRFuJWe10gFr4LWaiZQbPo1sU0Nfj+hhc/X1NOwdIaU2cFTzkJo5U/7FQMM1wvbf1YBy1t8+uMiA94RtwElVCCNzkUwDNpuo+3n6Ifg1rHSpDiAf08GGzwQDGP1ftorvAFWae14vGtnJv39hNVhORdRObzbA93lpSFYIrOVYDLV/Vy/H9GUobVGJbQir9xKBifvqmA+onug7WSFS6tH1j5fF5TYNhnULnwLD04CZ16b5+rekkNH29nKL3q/El+/WzESVL1823tDaAtbEKfQjjb+u6tZRyGCV57+/fOl6+C2aujj+rgrnNY6ZWr/u6utKP4Kq4QgHVCF8i5eGhBv74l/9e27Q/ntcwP6S1AajA/Lp/G9o6frD6SmUWat82HNSYZI0Jcb52ZtXEsAKKIuIUm1O0qVdtgvayTtUWvJVKgmLqgx5o8eK4WDvF8kth/ROcRJmnoHVe8+U62gbdwGGntDUAvn6tUKzetJLWdQx2hPLVsTv2e0Lt/mgoZ7asXxWPiVTv+isGxPF/i1cQ2oaF6XxjqHLjCmSrXU7oh7OKlGDfYD7Rp1Ed5Zn/Uyed7SzE0uMeQ/CQtgbAd/eZejbSqHeLVZCmLyt+Vl1WXZHscG1sadgbY7iWytEwpmpMzMcbTswTj/0zzoUmb7UBxdwfWLQ1qWpabRra52dW7lReT8PsPYG4fJrVTcL3kDikZRVw4Hj1mrh/o7qKCTnG4ywYh/hi12EFmk1YNnWMsXCtNfEPtx2i6VzJWBnErXHFVgo8039TNTyh7e0asM/G5E/toay9m1W4K6RlQRr/SR+ThVG5VtII0v8xLRyg6Qvz4yV/HZOlV4uq/tTK54+djHqCY71WMS0TWxa2hmo3ph+zJXLQK+v20vFYxd+OzZ1UtGX8ILqiQ9Uqgf3usrhKZhlPspP0ZN8sIwz+Q1o4QCVvpzGB1/+/ER3jGtaY9d9VWKRMquJrdvYHuggV9T7W98dMevbTIzvRv2CilbmCSk8gXhEqVlcM8Nwiv6pBiYRjP43QAC0nksm4g2gCAfgLvAEU7j0SL9aCS/opa/G4Ax5WFR+jp7kyQVzhF7VrpDy/N7aHMmFTXvg/wzged7d4UGbraDytCvLoqo5NqCUq+3eLt+qiMZlHWsRW5XwAegqrVhSziecXKvGcgqlXw+qJofotbL+BN4BR78Iwcmx85I0YIz2F3qw2gIuht0cLrNbvz/pUsf24G7Pc2KTLsiKR7s5j5fQkduKMZNxmNn63ep+Ae4jTMCdRG5iisJDzgca28rL+VsFC4x74WcAn2HpV6TxM+szIys8nmACq48W5CKut6M+gprUixhWGQJVsM2zzGom5z7VYn28Cl2HKq51Ln+DS5xnqUtIYwPDO+aqByuVdRCP1f2cpLYO9o7pI91ssCweZNG41DF8559vIw5DPJib5VP0F8Rt4AwiiUDINcQSqZ03iYaTPDEJANoAMqkwnRZENwAlqGRRGNoAMqkwnRZEaQpygJsNIBDIEATkCZEhFymJIBJwgIBmAE9RkGIlAhiAgGUCGVKQshkTACQKSAThBTYaRCGQIApIBZEhFymJIBJwgIBmAE9RkGIlAhiAgGUCGVKQshkTACQKSAThBTYaRCGQIAoky8xlSMFkMAwJ8XwbXJVoX5OMaQl3i6xTt69am5rgYtbesXFFhwFcq5u87SkXQn6XctYjIrTZDSeWrDQSkJKANsCLlFZ39lbO60zWdmrjO9qc7imkcLudV6XFwHZ2MIEQISAYQospwmxWezh24fhgVaO7Gu43TGJ71LzV9eR4dKpfswIhNFN8lA4hirRnyfHqL+vTVuN4GV/9fr/96Pb20cZ//CckUfENAMgDfoPU/4ppIogLqCNNNjV+aTwc12nXSnR+ZvjgCkgGIYxUqn7+A3rO/DdUr0xfJYBnm8H+FUv7J6/dQUUkZlNdgTo/NvvbQlnQ19gseGNCGGkNXil2asn4v3fztBrvBpP80IyAZQJorwEny00Z3pRu7VCs7ThXH7xdvo98t2AptXFo1SilCYRPx1h4t6L+ndk7hsfpz4d4SGvXBimoH+RR6BCQDCH0V6TMoYslEDXEfOv3Dy5wpvlbj4F/WnvoGThRESGE2YDiSooGAZADRqKeqXELXpJWeTGMx6mNdXuLhujyHxQgmiu03sJ0MeJcUAQSkJGAEKomVzPZpmE9LrhgolFtWku9l5+dEK7F6GPL+cqH0i2ASazh0nurMcQiFlJ6CRsD+bk/QOcy29NDZhzSvT+/Ctl2bmPEDuxA8v2aPTk++3fBW/hfurrLcYfVdde8Aqx5zLuqrviq/bBHkis/X0pesGDoiljN0BcjQF8kA0l2x6PBXwULp64Jr7HRn12n6fLLwxfl6WYUfz95I/14JNf2SITiF1XU4yQBcQ2g/gnwcuy2F0bNu9fPsBxYI0a1xHVp3GEd8HlM9j80Y/GtUZ+I/pj2wo90D9rulPIHHlZYiOrkJmAIgrz43rlWTtl0zmOoENNrlPDfb22UAZionbh6p2EbxChOreNjES6fpC2nL0XIrL9LdIwQkA/AISNNo0GlWY0OsRwONGVRTj/445k+bQ2VebMejR6pWNf3JqXWse8oqqAVONBSrW9be5BeHCEgG4BC4ZMHYpiHbM/SK5sHq2KWfraEdJTBni934wzfyhR8WBE5NpWBCdabOtScEpEaLsDtgA7GV4GYk85oamHnk4DLS/8FA5129WqoxefL7w1kb6Rne4AQGkrxBQDIAb3BU7tp/fH4vOq+1uclDO8nM3HGIzvlktXVDx4i8Gx2zeb69LRzeib8cO/Ff8U4827DU3vfneTd0BgxtXkBvjulB7WP2uUXzzaYZa00pNN/Qgw3vO/q1pscFrfamSnPxgaM06K0l5mmlCiy/6xCQDEAHh4MXyNKvHT8QG3rupvnjZqymj2ERWdcpU2TndoywoqawU0Tl6vNTq3fR7YWbhOOoh32QjVga2WVgxgT2YnnQ/MV5khEYgbHxLhmADbB0XjHifYez7lMwYjqlc6FkY4Y6GjuNBAxoyRX9qX+jRGvbTqMUDbcPHbCZyw6Yh1nInmuHUH1skjql9YdLqdvri50tc5wmmiHhJANwUJH34ibeIw5u4nFSH8LK+YWfrPR+1AIjmHR6V7q5WzMHJbIXZAY0BJ37ES79eHmigeXHpR2a0NtjxO4cmOX48VW76E6eicg9AjN4TN0kAzCFxdyxPja3iqFxxwmd/ckqYp17gRA27548tQv9tGcLz5Kbvnk/jZ+5NpBRlucCxycMd3zk2O61hbTtmDxCFKl8yQBEUMLo9Nm4PjSmZX0R3zo/3d9YTOv43n06CQyhKRSA/gobcTx7SUXTNuylX83fglMH5NvLUT5VwsbvyPdhMALREw9t8DVQbNoTgkV29lS04bPlWTKAFDWdg85/cuLIFL4SP4/+aCV9Kyg7nxjaH5eOBbWp6MpBKSNX9iYwzQ8NYb/FqRxCnefnUelJqb/Qqi7lbUArZOB+afvGtjv/S0X7KWfKnNB1/iTFDP8nbBTm4IpxLz76s0nHIDNxh8fyCDazEGrvkgFYVM8rZ3SzvSGVM2k2Xf/VOrkJZYGpW+fVxaVgroWwXXDEVlQsf/AtlnCSEhGQDMCICeRhiq4aaEuf/uR1e5URKq3rZWM5MvUdAkzDoJegzWuLbJXw1BYFdBDCU2wcRVI1ApIBVGMBSTiizVcPoo71xG/ptcKO8y3fSWWYWhiDeN5x7DjxjOsk9mhEqWHtmnT4BpziSCYQh0wyABUKtKPVVwxQzGWpTql+uQHuksdNqWDy7ztOKGpib2ANlgaiVACBowPXy5mAipdkADEkJo/uYuvWnnLdNp1HZGoNZvsvlgQ931xCH7FEpSA1YuUkF8g9AYZLMgCAwIYyJ3YVl6Dz/K69YMOV3iwQgOTfBbhL8QkuUYnSmZDpuK17c1HvGetPMgCsBz85p6dwBfO0n3y0vSecEekxAYHzIW1pZznwzCmdqbb2RmRCjJnvYO8+aVTxgETZEFzaeXxEJ+LdYKfU6tWF6ZWMc5rxbAnHy4Hpi4RVpzMsZTcO16FzDG3lIVhO+gv+FPmhDL9XkJkMABt6Q5vVo3kGzbS6mnbwshMqvdZiw4nXnKwmW1KIEMBMbiKm9JNP6+IqU6yy7U+D2il/akSf4w7H2A/5AlfmVXpmMQB0/NIJwyivhn8rm+5Q76UayHgeMvMTvlov5c3VnpKG3wZYjh1yeEFLNLtjWjXArKJKHPwX8zbT35fvzBhhL/96iii6XvjDtK0SVnIrYbnGz85vzOqNXZopMuqK+i8b59HGeOS7fQTqgclznfvd+Y05e3RYB6Wd/W5gW+OnSL5HmwFgxH8O115FzWX5VUOsA7ASF4Za2lTR5Vd+MjpeTPVXQKV6CWT800kPggEwA2KTaVGm6C4B0BAOQqqroU1NMorqrS0Hkm/mcaViB+hprCd/DAu5orTzmiF0BxRSPAkVWZJ8QAC6BStvHWUrYjaHPuCdpbTm0LHkSzXM4GpiE/Hzcb3p9Bbi1755OTjg3WW0FHoKo0jRvA6Mzr/ne0OpmaChirfQ4a+YuSZ5A0hWe2hE5TePoFw0EBH60ewi+s+a3SJeA/UT2evAjJLNzv+zOZvoCbY6JFZlCfXQEHsLB23sLXSD7oH1PhhjSciYxw6RXAI8MKitcOfnc3u2SedKMQR2f2tNm0vnQdhEhP49qhP2Ihy2PJEEstDPrEv6CZX6OAYHrvMnoB7MaefnhA6B4fAVZCUegZTXseFW7EVFjaK3BADIf8QxjQh5LbH3KcRNx7Jqr/N6pUy+1HC+nDKAoIcTmKpe+cVaemczNAiHjMd0xiWqheiofOkmHcSqyfOsVJM7zBDPJLhb3ymgU+A3g9vRQ0u2O0wpPcEiNwPoy2anBeiuuZt8kdj7HEzg4PETAjnwxwuvU9+G3n4+8XCrVtuzHMZOYTbgGnW6Oj+XpQ/W+n5cyb4LBklE6Bd9oG4NTChKFDkG0FPQzNbrm7DR5wdhas+afcNAqy/HtDMEx4//gEhtGGgtb/T5QajzHQK3PhvxzCcE9WEHgsgxgG2CBiOHNvFPT/5oF+LEdionld+wyLHXDYmEXEEtn1a0WAO0FjCPVorN4tCty1I0osgxgEJBRZtvs20+HzZl6teqYdtsVoo6kJ89QmDBxX09ikkfzbj2jfQOFm+vb9ofOXFhn1imBUJeOGM69hGm4OPaNkwaG++P7fneMGr+sneWZWuCwRcjThHqBHXgm5yqA+c19S32zrtF8pRuP7yr7oiwrmZNPqzMIxmxmDYz/stgSNUr6tUwnz4UvC06gfVBRuz0J3IzAK7YC9iyjgA1g2Qeq5PuZEPFl2m06PhPjexEFdh4E6H3YePPcecXSSDb/KBTNXoRjFyALmWpTEjo1XS7Fsd0niUOV+JPhH7AG4UR6/xcrujNADjXuLGVM3k2OrfYKLkRu9NM/1i5k+6eVSR8OsDjzborB1KnAnEdgcsOHqOLZ0JeQFBoCElIEkDgBKZ0DcAEilmdlwBVxGw53PTNBpq2FkJZItqbwDTa1KkNvZCDbV38e3r1bnp2LcyWR5CiyQAYaFwGYYGPIxNGUF1BBR3/07sV8Z9KfGKz5UgZbTxyXBHc4eleY6iLckqPrdhJ9+C2mOz8ThFMHu5wxQlbjJ9jmwpVb/ynEgsKbYAxUTYd1ghLCl42NEixtFDDmv2GzoiKWSaTuDlv7UkiDewTuHo9WKdllV52tPqo+eMZW0eM7vznlnImF0ZyCui23IGHZ8aPvYSHh3agX/atZuai+eCTk14N6yh/omHM/JVAUrD+NOxpiMwszCIIiVsk9wCM2LGEHjeK2wuLjJ98f6//wjwl7Siu/3wHx8cEfjV/M2YDhfTfdcFOvcswg8iZVEj1XZpF9xEaW1FHewZgKOpTWIvxH0tjrR8/iLp4MLIbklBeH162ne6buyVyRz5mZYm0G0bz277bqPwVYBm459qhlO+TTML3kc5zvJfAezs+pZGOusgoBhAHEA2jK47hFMKR2ghc73wDdufbwkKuU2J58JrPaRSCZlAjcIpJmMLxlLzOC3OVLP0dSjt+3sf+8kBbninr99It2EDUqX7LwI3dzGQA2prEGm0ObMm1e91gSoqPiTBTaFavNu3BPf5UxGulby/uR6d9tCKVV/k9jQj0xvreTucf+cEKmsPCZdy58U9Hxnfdx8x4yYg9AEdVoUzlatDe0gocD4op8GCNwn8b2t5RcjKQ/wjkY+a34rL+wgnNhB2BOXtLqjZvs6CzmwGTvQxAg8bdc4pop8BlDw7yi76t6V78SQoXArWQnWM2rmCXQePTOR+JCZSFq6Te5kYyAMYTs4HWLDIsSI9gFvCP4R0FfUtvfiNQDxuAxyH9Z4fyJ0f/CM9Oea38SgagIoO9AkWBiPqe4veu3i0V5RdRu/6ZoliR+8w3M0tsqO7iAkrrTtXVLBlANRaKiLDSOLRuSZ4HNa6raANmfXWSAkYAe7hv42Tn63F9bCWsCGxFXHjHVoFTeJYMwAgQzwQgYlx1t9v40fydNdWeCtNjkgJCgG9L4mLWpe0b20pQmeFho1BSNQKSAVRjUf0EJlDn+Tn09S4cDwnStzA3XQxNxX7oIBDMQlZ4ewQiwHavSm/Atewc1hUoeGckK4CMFVIyAKvaxsbgGR+vpEts3C2vj0sl3DgfgnJISd4i0BIq4Pma77025f/vgFJPRSiMj30lJSAgGUACJHqH93C3386+AIf+df82SmM9u3UDfWTyzTYCORDY4o6/89rUwlrGyHm9/ySrB5dkiYBkAJbQaD7wvgAuG907H/L/NmjGub2UxsumwyTZQ6A2Rmzu+Cdj9/rthOb7IIr2IbneTwlb5osCp4RA3MOjy3fQo0u2UTF0ENS3sZ5UjIciGZYvv/lraU04GeKn4VjvG5s7+2p8rJMzl69ly3saKiQpfyUDSAmRwQNmAw1wFbQAv6ynzg5N7NqM+I+pKQSP9qfRvoCdfPvuF7v6y68cRH2gkMUptX51Ie0sLZed3yaAkgHYBEz1XoJGy9PM9rhhuBlXj+3SvuuqVFttgTaiDnxRKdv2qIDff0/vSrd2a24XOp3/QTDMuTiihjl1BUnTi2QALoHfcvS4wgiaY5d6t4ONqva4jchn2kxxS7YHjrjMVTiD88x80SX9qV+jOq4z2Hn6YiqCOjdJ7hCQDMAdfvHQe8oqqjaeMLIduGE4KVZi4l/FHvLQQ1ZfIaaFVizGcPmqwN6JG2J9fnmshkse6bmBURdWMgAdHB68YG+gMV8swvHV7b1a0RMjM//SEPbefKUHFm2lhxZti13bzba1kq/QRlQtuL+YeBM7RqknV+9S/gjb0zPG9Sav5QL4Flxl7JiMbdNPXr+H/rNmD+1mgyR8BMYjpdv+wr07pjylLpY5F+JI88c9W9DYVg1cR50M6MK9R2jUe8uqFa3KI71kcDn+lkNTCv1m4I4zl5EBwQxeG9udxndskpHFc1Ooj6Dc9QKYX5cKVt2gaC+sZAD28PLWN9a0p7SsT19hdpCbhetaHnnGosN/gY4vO723TUs0NskARJEKwh82EE/F1PpjSBCylttMo2Mo34UzVld1eOyVSEo/ApIBpL8OEnOAjmL3xltiJOFzUcRzw5etrM6RZMMRrv5SMIp/wBzZfhxBpoMOQpLxKWx0vosLU5KiiYA8BoxmvSm5Ztn3u+duorvZHqGReIENxZcKYbrNJrFOg32Ez87rZfSZ8H7rtxvohY37iM/d4/oNYJLLatv/P6d0SohDOkQDAckAolFP9nPJx3+adbZiFLOkVCgelm5UOj/71sQhFFh6ihQCcgkQqeqSmZUIeIuAZADe4iljkwhECgHJACJVXTKzEgFvEZAMwFs8ZWwSgUghIBlApKpLn1m7Yv6i/kX96XMj36KIgGQAYaw17LxPWrcnZc5+yzfkbIgQFx0UOwX4dBtEc23QfQu2pvR9hI2n8LGipFAhICUBQ1Ud+sywspDNV5lrG2rwwjw6DEEg24Sbfc+e1oW+b6KJ51NYyz3vY4eXcSBzsP3aodS6Dpvp1NMPZm2kZ9emZmj6UPItCAQkAwgCZZmGRCCkCMglQEgrRmZLIhAEApIBBIGyTEMiEFIEJAMIacXIbEkEgkBAMoAgUJZpSARCioBkACGtGJktiUAQCEgGEATKMg2JQEgRkAwgpBUjsyURCAIByQCCQFmmIREIKQK5UjwzpDUjsyURCACBnEpQAOnIJCQCEoEQIiCXACGsFJkliUBQCEgGEBTSMh2JQAgRkAwghJUisyQRCAoByQCCQlqmIxEIIQKSAYSwUvzOUjkUc7BRj7jqb78TlPGHFgFpFwBVkzOpEPrvTRRhCZjoyp06h04YqxfnKjuuGUytTJRjqF7zXphLx8sTFXqsuXIgdW+Qr3pL+G308nw6hM6rIxzkHLp+GDWoVVPnzFp42r+2kA4ch+UgUc1BYA5Xd2lKr57RTReX3ZecSbPjNgXYKEnZjcPtRmHbf4fpi2jLkeO2w1kFGN2igL4e18fqc0a4Zz0DOP2jleadn6sXqrl6vbWUVl3e37Ky51zcl4a+u1xvNQe85MKZq2nBxf1Mw3GHPM4qskxs3p/58UrafvVg03DHoXXnUCk6syHcsGYFCZ0/5zl0QNXAqFnnV09/jd8Qd02jm2luwud4ZYcmSc2krS4+RnP2Holn/JzWDU01GKkeujfIUx8z9jerGcDXuw/TN7sO6zpvQW5NKqmoHmG50UzfvJ+uQuMyoyFN6lHT/FzaZ7DPt3BPCbGAhcm8gs75FGq3LDrZDoxgbPMv38Qiz8RvNiZ0fjbdVXhhX13WciZjRqN2fvULRvbKm0eqb0l/Vx46lvR7WD/+Y3iHpFn756pd1QwAlXN//9Y0FtaYs5myeg/gjPf1I3dDTKEPXz+UiEdnDY2fuUbpzBon3eMGTNtJHVHVL+jA9y3Yor7pfhfsLtG9614wAo//Yp3OSX152URR6MQeLXQTguMWegJ/M7CtGk3K394N66T044eHvWCiYz9ZRczAeAmh/ct/fi7dOWeTH8lmdZxZywBavrowvkZVWgBGyG2xqfczZ3TVNwp05novztO7ad547T0U03AjPbJ0u9GpiiloRvf6CDuxazOdv/c37de988urRXAzjupgVJOh4FNLtTVxa90fQl5ypsyhGTuKtc6heG6NumDT4c1fWUCf70T+YtOmHC5vbKZUhvp5HCM4+8uZUkh/XbYjFHmPeiaycgnADWl3abmu7q7s1ITqxTrYbdCYe8fsIuJGp9IxdLZfzt9Cjwxtrzrpfudd1FcZsXTGNNF45+07QsOa1ov7fXgxVHlrOunH5/SkUWAeU1hrrrq2Rz5+D38PakbtibDYa6S/j+pkdFLeT0wcSTV5E87IMNCxzuXlh0ooX234+RfiucVES7Dqza/fE5g15fJyRcUD+Um2TJm/H1i+u0xhCvdjdvUXMLVD38OMTZJjBLJuBsBHX3eic+sI0+bpZ3XXOSkbcYZp/d+Wba/aUdf5rH75SZ9W1S+xpwuwGajSh9sOVjd2dgR/OaV5gTLI9WlcV/Wm/P5u4db4e3H5CSrV7EsoH5C3n5ukx9+Yj1TeOgrLmWFUnztXNR+Lx6k8wCPjcet3G6tGVoyu9TDVDorqQrV5vPOjDpJ1fs7TUOy3LL98QDx7jIucCcThcPSQdQygLjdwdaSNQfba2B4J4DXJy6Vz2zbSu2NEb/LifL2b5u2pkZ0S9g/2Hi1XNvXY249j/pwAAEAASURBVNVf6tf2fxrSLh76mwt6o6Nqeiry+BlPh0FXfLE2PhVWA3w2Dv5TUAFG9+IbhlHlxBFUedMIhSHc1r058cahFVM4CobA0+wbv1mfInZ3nytQVu0x6AUdzTdZjan04f0J5FElXtpIco5AVi0BbvxmQ+KZPbAzdsykcKJjnvPpappxbk9Tb8+c3pXYEEac4J+n70+DORzBiKWuaXmj8Tf928S9Na6dSw3AdIo1Z/wXYfZw7Ibh9NkWzBw00/k6GNXHtLS/e80M4ZlTOit/asKzcFpxKm+GGpjiC+v20rPwa3YaoYZ181t2Ap04ttbneJoYZBiSxq0JxycmkpwjkDUzgA2Hy+iF9Vhne0AzYUFnPtb2ZsQjbE71AKV4eXX9Xrr08zXVnR+uF5qMeDPO7aUbmUvBJJQRTtP5eZagnDqYJe7AjZcg/z6tc2JIdDLNQJv43aWLst+imfG8sxVMToCYb2gz1t+wdBKIQnrRIJA1M4CukIjTjqKMAQuCfGoxkmswotrT5lC5oVMPe3upss7W+lOfv72wD536wYrqEQ4j9rfaoz/0rNfP6qZ6j/8Ox2Yhb3rHk8LLA5q9APbYrUGdpBKG7Ofiz9Yoswvu3KnoDcg4/Ah7APGZSSxAPYzIdbWMJ1VEDr4/hs3Hn8/drIQ8jNnRo8t30i/6Ju6jaKNu9gqWYJpNw7nAWpJzBLKCAfR7d2lC5+d1sEjnZ2i3XTOEWkAEV9dJ0Dnavr6Qto1PlNrjjtewdk06xFN+E2pRtxbxNN6MJo3uQjdjqWJKYBwrLrOWSlTDvI/RlP+EibmOhjoX5Hk6y9BErXu8u3cral+3Nl3Ncg/Iwr3zN9O9c4roVzj94OURH5EyrS4upSuxD7LioEZACfV34uZRxpWLLn75khoB81aYOlxkfLyLjrD8gKbhxHL+LNbqotScNwTbGDYEEXg7Nvj+vcZ8WbHhqoH6TT1NYp+fb72BN7ELZAIw9TejSyGNWMuwVjfzpwjyJNnoMwvDDPE/WPPzZqGXSwzTtDSO47EU4k3Kf/ORJucZjPFhnPE3eGl+/GSi11tLqjo/pkb1wXj3XTeEKm+RnV8Do+NHqRLMMXQyoEQg+ghk/Awg+lUkSyAR8A8ByQD8w1bGLBEIPQKSAYS+imQGJQL+ISAZgH/YypglAqFHQDKA0FeRzKBEwD8EcmhKYVzuxL9kZMwSAYlAGBGQM4Aw1orMk0QgIAQkAwgIaJmMRCCMCEgGEMZakXmSCASEgGQAAQEtk5EIhBEByQDCWCsyTxKBgBCQDCAgoGUyEoEwIiAZQBhrReZJIhAQApIBBAS0TEYiEEYEJAMIY63IPEkEAkJAMoCAgJbJSATCiIBkAGGsFZkniUBACEgGEBDQMhmJQBgRkAwgjLUi8yQRCAgByQACAlomIxEIIwKSAYSxVmSeJAIBISAZQEBAy2QkAmFEQDKAMNaKzJNEICAEJAMICGiZjEQgjAhkhWmwMAIfeJ7Y6g6sCo1oVkCntCig4fhtkVdLMa21q7Sclhw4St/sKqFv9xyOW+gJPI8ywcARkAwgcMgDTBC2BFvVq02PDetA3+vcNGnC1xu+f7DtEN1ZWETrYZdPGuBLCl2kP0qloJGuPovMo+OPblWfPji7Z9zApoXPlM7HEdfVMMz5zqb91VZ5U4aSHqKCgGQAUakpwXyy8cyi8YOoSW1vJ3fHsITo+sZi2nGsXDAn0lsUEJCbgFGoJZE8VlbSff1bU/H1wzzv/Jw8mzPffvVgepqt+GJWICkzEJAzgEyoR4zOcy/tT8Oa1gukNBtLyqjLawvlkiAQtP1NRM4A/MXX/9jR+TdfMySwzs8F6lyQRyUTRlSdFvhfQpmCjwhIBuAjuL5HffIkrblqELXHTn/QVA97DftvGCaZQNDAe5yeZAAeAxpkdC+c2Z26N8gPMkldWo2x0Vh4SX8iuSWgwyVKL5IBRKm2NHk9tXkBGc/uNZ8DexzRrB7d1K1ZYOnJhLxFQG4CeotnMLFh3V95yyhHaX258zA9uHgrzd9/lEogAcijd528XBrQuA49MKAtXdyukaN4a0wppMqcHEdhZaD0ISAZQPqwd5zy5NO60MSu9kbdPyzZRg/O35J65x7M5Y6+renxER1t5a9wTwmN+nCFrTDSc/oRkAwg/XVgLwc476+cOFI4TCk6dKMX51MZwtkinPXv+95QaoLZgSjVfX4uHZMyAqJwhcKf3AMIRTWIZ+LPQzoIey4+foLqTJljv/NzCrg41PTFebQBZ/6i9MpZ3UW9Sn8hQUAygJBUhFA2MJrfD2k/UWqIEZlwXOeYIP3X9dWFxPcBROgS3j9AHiVFBwEXrSM6hcyUnDatK37e3xly+646vwoaGEjTl+arbyl/Bzevn9KP9BAeBCQDCE9dpMzJL/uJjf6rDpVS0WHxqXuqhEswqn+I68Ei9NDgtiLepJ+QICAZQEgqImU2MAsX3fkf88kqIo9P5C7/bE3KLLKHsa0ayMtCQkiFw5NkAOGoB+tc8O49/v2ibytqmV/L2p/my84SKPHwmI5jFlAusBeQh32DPwxuV6VDRMC/x9mU0dlEQB4D2gQsMO/ocBd2aELPnNqZ2tQR6/ict4UQ8Bny7jLPZwAc98tndKNrOzXhRyHaV1ZBP5uziV5atye1/IFQjNKT1wjIGYDXiLqJjzfbMeL/v+EdFEm/98/uYavzc9Jf7IJOP4+n/2qRPttRrD4K/TaFDMGLp3dVysLCSzVZUtCuPIJQStKTUwTEpTycpiDDpUYAHT+/Zg7NPL83sYy/G9p+9Lib4EnDbj7qfGOR9y/4b8WhYzT6gxV0ADIKfjGqpIWQH3UISAaggyP4l9oQuJl5Xm8aDU29XlD9Wv5N6hrk1nSdxT4N69B+SBguOwhGANHhQ5IRuMbUTQSSAbhBz01YrPFfHdODrraxphZJrl+juiLeHPkZhpt/XlG/RnXoIBjB57icNPYj3CEAI5QUPAL+DRfBlyUaKaLjf79bc2Vd7HXnZwDGtWnozzoby5TL2zf2HOMx0F5cefNI+nX/NlKK0HN0U0coGUBqjDzz0bBWTUWV1rPY2feL6rLoL28mek3QPuSn8pGHcHRYAUbQ1saJh9dFzMb4JAMIotYx6j88pL0y5WVVWn7T/QO9l8a7xOOlihkGfEqwFZqH+cRA3ikwQ8h7NykH4D2muhhrY2l7EKq6Wa12kJQzabZ3Z+9gYDw6K8d4ARWCZYiavjyfDpbjtECSbwgE2yp9K0YII0YDPr91AyqD9tygOz+j8QGOFL1aCvxjVOdAOz/nn/cED2CTUBF/lrIDDIkvJBmAH7BixHxrbHf66Nxensb+FYR8Nh0RO+e/AJuB3+/e3HX6Z2GT7q7eLYXiEREVFopI44mXA99e2BdLAj82NjQJZemjXAJ4XfHo/NuuHUJtbFzdTZWFn84uoqdX7sSwWIN6Q3ffChgBEaUfztpIz6zZDaEb+8dsfKLw4Tk9RZOiyz6HDcGifTSsRX16c0x3auchBkcqTlIB6zeQx4XC9SHiUTIAEZQE/eSjkx2dMNwTAbcyLIIvnbmaPtl6UL+WhzunYWdZwTOHMyF9h3m8WEnAxF4Z24Ou6Sgu98/jcw3tvgOm7U1gfvzLcb3IS9kE1k2wX+4LiNWjgC/JAARAEvHSHHLvuzHye0EXzFhNH205oO/4moi71M+j9VcM1LiIPT61ejfdPW8THWfpO8wm4pyKey+O+QgblX8c1A7agXEmb5PO/XQVzTC7KwBGUIDjz8WwH8D59oJ6vbmYVnuo78CLPEU1DskAPKi5rjCVte5K+x3SmPSduDn3+PIdlh0/7h8d9qtxven0ls617xRB119RyXEsrSupI/LfzUXn3Ix9iY5sKzDZ9Bzp9IAY8BIwgjzRmUi8wIkPp3ywnGbvPZL4QbrYQkAyAFtwJXoe3KQuLbi4X+IHGy5z0ZBHvIcrvMk6kDE+TNOd2gYwRuX23ZZNAOT7voHt6C9D2rlNli6auYY+2IYlkiTHCEgG4Bg6Ii9G/lOxNp+1h6/wCq7PNflthMs5B64fqnEJ/rHHm0to7WH7Ckj4WtF2GDVtke/uOsrpH62kb3YDP0mOEJDHgI5gI2jnyXU17V964CixsM6svSWOOj9n+2DFCer11hKHJXAf7DzsVTjp/Jwyi/e0hKDPAwu3usrI11gK9cXSQpIzBOQMwAFu9bBZVsKWcR3SPfM202PLsNa3M+VPkhav39c62BRMEmXKT2d9vJK+ZOUjHlArMNMdmA24oVZQX76LTZ1JsoWAZAC24IJnl2vvTq8vok0+KO1ohJ12lpwLgrq+sQgGQ8QEkoTzA1y34BTFjexAjcmwT+gRUxXOd8Q9yiWAnQpEI90DuX4nxFJyNaYW+tL5OT8sM89Lii92FjvJnlCYldDmkzOp0PvOz6ljVtX+lQX0kaD6cbMMs3yEvERkhoy1m2QA1tjov+AYa8a4PtTMhq08NYLtx8qpNo9O8YN39YvHv+hEYz5eRd1wTl7iobBMBco+8v3l1If3Gzw4wrMsNfJ/wYxV9NDS7ZZekn3IR/gVVw6SasmTgWT4JhmAARCr16s7N6WzcbnHLvEmWVtsdnlipUckcRwmrIeQTP0X5ikbhCthJMQp8fn+CHT8WmBec/bhzN3BSYXttJEGbwzeXrjJdlAO0LthPt3LykUkCSEg9wAEYHK66aeo6H6bR8008lmM3oTlx+jWDenz83qBDyU/bmShwAsg1ffx9pgloCA6vUUdTOjSlKaO7mrxNblzWwgm8cxLUnIE0tgyk2csNF+x7neyucaj8JB0d34GkTswGNA3u4qJTYWnIuYXH/P9Aw6Xxs7P+Zy2YR/xZSYntA2KReR+QGrkJANIgdFkGMOolWLUNEaxu7SCurFobDpHfmOmIvr+zNo99Icl2xzl/rMLcI1YUlIEJANIAk8r6KcTtcenRoPZNrV8cV5wa3414Qz+fXDhNnpj8wHbJWSFo/191JJsO0MhDCAZgFWl8Ln0VdhRtkl5z8+Rnd8mZim9YzVyFYyT8qakXVpyKe5pCCx97MabKf4lA7CoyT8O65Byw8wYtCeOySp4F02S9whgGdYRcgJO4H3+zO7e5ydDYpQMwKQic7AT9oDNo6Q/4+x6TbHzIzeTbEgnIwLQqNwMCkHs0g04TbCjQMVu/FH2LxmASe19xzrobNAWiPb+Zv4WGyGkV6cIsDagHzg4GVhx2QDPlKQ6zXsYw0kGYKiVVvm1aJRNA50dcBHFq4s9huzIVxMEnoWOww02NQJ1KqhNfaFPUZIeAckAtHhggTnnInuj/+VQhCk7vxbEAJ4hn8AXkuzS7Av6SDFhA2iSAWgAaVW3FrWvV1vjkvyR1Wq9vXl/ck/yqz8IgAlc89U6W3GzbsIBTf0znmorMyHxLBmAWhEY/efaHP17QRtOuqXl1Oxn4+9rkBQsLk8t3ajF5htc6GLRaElVCEgGEGsJDfNq2rqL/s+Vu6iM5WYlpQ8BHA12no79FxtUH7OAblKDUBwxyQBiULw9pkccFJGHuxzsRIvEK/3YQ2B/2QnbOgE/Ogd1LXm3ArRkAAwDpoRn2lCx/VO+qhqAlV97XSFLfUNKcAwUg9qhrvXzbQt52Yk/Sn4lA0Bt/Ra26e3Q06y7X1JoEKhATt60eVfg2VM7hyb/6cyIZACQE/+tDUs4P4PxDjn6p7PJmqd99Rc4jrVByiUv2BvMdsp6BtAMx3527N4/wdp8JYUOAbZwNMempaA+zeqFrhxBZyjrGcC/RopPBR9ftUuO/kG3UNH0IBdw/qerRX0r/qaO7mLLfyZ6dmeWJWqIxM5/O0KP/hktG9AwCIVc1bGxcCnu4em/pNAicLCsnI5iWl9XcIN2aJN6iiFUNs3G2pTL2GiqYNjQgmAzY5nPAGLHPfdjnX9fv9bUAOfATmgH9MuV87l/mtVkOcl71oSBXMCtOJ59+XRxPYJsDVlLc6H89CezN9L83bDYlAUanTKXAaCv1q9Vg77Fzb7+jdxfAlGs4PAMwk+12NqWKJ/tIwAGPX8POq4LGt60Hs27qMrY689hwen/WEV5BjOCzNQKjJ191uHvRI13qrZz23cb6b+4jRa5C0DoHIdh1ITl4ZORwuMmz45co+fNrBWX96eeDdwzeyM+oz9aQd/uAmPJMX6J/nvGbQL2gpgnm832o/NzdfP58bqrBkp58rC0fUzKLmvfiE7cNMKXzs/F5PsDX8IIaSaqFsscBoCGcE+fVrTysv6+N02WJKu8eSQ1zLINI9+BtZsApivTTu9Cb9kU47abDPs/A5KiZRNHZJwIcWYwAHT+R4d3oEehxy9IOogpdcd6eUEmKdNSETiBc/9L+tGNXZqpLr7/1q5RgyrBBGr5nlJwCWQEA/g1dvh59E8HFWE5UD+DN4nSgWnKNLGf8d65PYk37NJBx7HcyJTlQOQZAF/iecimLL/Xjab4hmEZ0yC8xsaP+B7E0d1F7Rr5EbVwnAdvyAxLxJFmADmY+n9xPjZnQkDSKm0wldAyP5d+N7BtMIklSaVh7Zo0CVajon6tOLpyAJgGrmdT0A5oPSz2PrhoG70HG3iHynCXjM++sKHXEgpBf9arJd0HleB2j/vZKu0lkCp8d8tBBzmSQYQQwPHujmuGCHk1evoWgj0PLt5KsyEncIQl/tB+aqDOeQ/nftT3D7o3NwZJ+X5z12b06wVbiIXEokqRlQMY0LguLcYmkB36evdh5e44XxxJKtEHhtADx4lLLu1PeTY5Qc5zOEMP4+kAyhx1OYDbe7akJ0Z2tFPl9C/IbPzk2w2Q28BkN9k5PpjL+e0b00fn9LQV/yGoKW8EU+yRkwuJlTKaSwB00G/4XNYGjfpgBZ3x4QoC70/e+fk7RErXYJaQP7WQ2DilHfrt0PZ2vEu/oghAxt9u528CIyI/mV1UJdSUrPNzHrCRyybRmYGzWXdRagjBqsE21ciLxh2Ev0gygC6YbrNuN1FqBGOdhXtZkitVKzDEiEbxQ0j+KToADJ+sXn/P61N5z9wKHsfut/VuKRy2ArOdnEmFdACjs23C7G3IO0vprS0HhIN+zLMGXkZGkCLJAKae1kUY6g6vL6JDbjokeMYTUAA6ef1e4TSH2lAvJhxpNntE53pqZCdhBGpNnYMR3Saz18aOGeAVM9fQBqh9F6HmebmU6yY9kUR88hM9BoC12mkt6gvB8Tg6Lpvtck1oS7dAB/1xQS7/xAh761TX+cvwCPIwKtdCpxSh82ZAJ4DdmZ5ZxEiv62viGod54ziKFDkG0AZ3+UXpTi8192I5MOy9ZUJJs2mxGmAWrGnIqz+l/YP5hZ4w2+Ku6lW5OZ6buort0B/GlP9TnOx4Rqjz+7HLL0J3YIOSTxaiRpE7Brylm1hjeGIVbux5vBu/FHfFK9CxcwVGoxO4K+AHzcIx1qkfLPdmlPMyg2BOT+CiFO/Up4su88FM218Xb6O/DEm9sduyDgSEeYYYsaVA5GYAl7YT0+Dz64VinNtWY8WI8H8rd9oK4rXnUzC7qJw4kmqEabQ5eZJ2f29YWjs/4/z5Ng9Hf7XiwOxXHDymviX9zUH7iBpFK8fgsD0a5AthfLjUH+EMu8eCQpl14GndVRCCCsmM838HtafmkNBLJx1k4R4v1v7GQiDOf6/FbFKA+nigeEYgGU+9RIsBYNTjc9dUVM5TMT8aAxJeW1yaKvlAvncuyKPUSASQFWCtHH0GkFSyJJYcwNm9wNIsWRxW3z6CfIAINc+L3j3BaDEA1IJIv97L4r1im8Yi9ar3E6Kpd+M66R11FWDAAETqRA+i92/bjvoz4+OclggaIG0C+5JRo8gxABGAC3jzz7fpsV+cRaRkej+1WLw13RQSOFj/o1+UJzizYI3EUSP/UPMFiRwqgyKIVKRICab2lioa0++pdOqZBpKOviMwEHdD/KJ+gmv7A7wPETGKFgNAbrcdExTs8WlkujjN99Aj1r4Cy257WHjyS0nHBEGtQ6KnBYGBIpBQtBgAFptf7zosUCyicT511D8Mgqy/pFAiUN+PkwjIN4zv1ESovIePs5nSaFEIdpHsATZ5/R5SDDumCDZtdFdq/sp8sV3DFHGpn1kBSXfBY0jOJ0uxOaF2dWvTmFYNnAQNbZitEMn+HNZ3nNBgWPARmYZPRZ1fwcJAHlIXXAsXqUUWEKuSBBTx7WEGXUYVOQbwxXaxRtQMo0EvrN1WHfLu2O6ts3sIwV0CkdRbvuY76M4aw4WYvWQaA1i4/wjd9A0wcUAdceRZdCVUsaegy3Gfvyb64QlnsCfGjk5dCMMyIjSTmZsUBBKByr0fVsIgQisuG+DZ1Vw+d79UcFnxhyWwJuOw84uUK9v8bBKUxGNcNoyHgBSPxh7QTdASxAOJCP3P3M0i3kLnJ1p7AAwfOtbPBcHmgWA5S8wJnBwkq5maOPvfIDACqXE8Jk2Iq1B484tj3fcFL/l0wGbgU6d0dn0M3AmqwqbYuHa+CjOcKFL0GABQfm71LmGs+0B5yEI2FuLwjLYOGE4FZO9FadmBY9A65M0IJJpmNvi7DtexReknPVvQ06d0cjwTYP2OG9n6kyD9OcL2AyPJAHit9cQqcSYwqEldqoC5sDZQ+il8ZRO7v3z8c/TG4YLNoMrbabAjFwrROFu5Dr9n3ldh5ipKP+7RgoqwHLAlm4dB4v9gYEZZOoomBH+/mR/N6T8XMZoMABn/mc27/nxLc9s1g2n55QNgQw4XinhGYBTrje3kXtOpKVXgOu/U0V0YI2GaseMQFUdQGES4gOn0iBOVIe8utZUD3jysgBGP97F52xRaexLqnCdqYPTcCe7t24oqbx1F/9PbnoGZX7G+gDBIZNpCptqz2A5Htf/wPGEWcN6nq+kTWIixQ31wrLMKTICpGKMKX+45iN+2uM/dBTb/arvYvDv341Vy889OZdj0y9L+j67YSb+waQXqwraNaO+1Q5TUDuCsnk+GysDsO2O/oD3W+k6r/BiYxyPQFxDF3X8V+ugyAJTg0+0H6SsIBrHhRifUADcLh3pkXmowawty2pKcZD5Lw9xbuIluhT7+JjyiO6DGtXOJdSp4Qa1egcqwCB79acse2SWAUghMC8+EdhxWBZVOemT5TlpkQ5V0OvMa+bSxlmsKdd/ppnEzV1NxRXrbnRcYRJsBMALgwA1gmEEx9uEFIjbjmL75AP1q3iaboaR3VwhgplX3+bmuonAT+Jfzt9DH28R0BLhJJ4iw0WcAjBIaRO7kOVTq8rzfLuCToCp8/Gdr5K6/XeA88H8Ma/iCNDCBe+Ztpr8t3+FBCcIRRWYwAMYSU8M6sOQT1FT8p4VFdCuLtsp1f9pa8hEwgZzJMAAS0MnLKCw3H8MmZCZR5jAArhUsBwbjqGjCN+t9q6NS7PzWh6Whp1dDTxyLGkpKLwJgwE2wBHzYR+lLvsiUM6UQ1qWiKe2XrIIyiwFwSbEx+PyGfcrIICo+mgwg7bfbsQNdZ+pcKnEoVaiNSz57iABmf/fhPL7WtLm0mHUDekhjPl5J7V/Fbr/Dm50eZsWXqDKPAagwYWS4GOvzGlPm0JM2RIfV4MbfcyFz8BTHwxJFkkKJANsEHPTmEtd52wVz36fDkGzOpNn0BeufyOBlnrPDVNcQBxdBJfrrHRi574CRz4YQ9rmzVyu6vnNT6tYgj3JtcPVXzuxadfxkI0xwpZQpqQhcjxt8dol1+X2G67w8UHy0BbYFmMdzPUf8jF8Eh4xnAHEQUJmHsFn0xyXb6I8svcViwKj4XTcOoxZ8RyAFNYEASW3EIWofMEV08rMfCGBT8D98CUiQuC7znptFxKrmVcaewaO9GSyZuwQwK63qxhyeK7p2TfrBrCLVNeXvFJt3A1JGKD14ikAzzPDq5Ypf//ntoq1oAxgD1c7vaW6iEVl2MgBN3bxTtE/zlvzxOlwScnqtOHnM8qsXCHx4jr17IY8sg+KWLKesZwB8k2uBDWUOv5JKQUPZZXgRN8zGvY7dMB1XiQuh2U6SAWAlcMln4ook/8qWYuUxYOj6zXs2R//LfbAkHDpQBDIkGQBA2l5SRny1U5R+KWcBolAF4q82mPh5bRraSmuWQw3FthKJgGfJALiSsCFoR2PtwzwLsMEwItAOoptFnObMubifrfw/GPE7/LYKm8KzZAAxgF7fsDcFVPrPL4+BinCp+k8PShreWsKGgl2zYH9gLT6SFAQkA1AbAs74f4ILPqJ0LazFNKgt4RPFyxd/mIVtuEJceSfnQZEKzQIBH1G8ZQvWIPUvmze9Nl012LHmWU2y8tEhArf3bU112RK0DbpjVpEN35nv1R56mY4HRga+5itKjSBI9KNeLUW9S38eIsDHfk+M6Ggrxn+uxF2OLJP0SwWQZAAGhJ7GLAASosL0r1GdKF82KmG8PPGICtoeU/JpJ767Zm+04z0r/EoGYKxmzALO+gTafW3QTm6M8lTABmLuvP5uSDtqZlMp6C3fQnmLXPsnAC8ZQAIkRF9Dvz9LiolSQ1wmmXZmN3kqIAqYC39s+uvBAW1txcBKXCavgQIXSQkISAaQAAkcMKXv+Poisy+WbjfCitCY1g0sv8sPHiCAqf8mtvVokzq/sViO/haYSQZgAUwpGtvfV9hT/vjZeb2oMV8tleQ9AhjFD90wzHa878Co6E4o+JBkjoBkAOa4KK6/gCIRtiBjh/Z/b6g8GrQDmIhf1MGcS/oTG3KxS5d9am8/x278UfcvGUCyGsSmUatXFiTzYfqtDPbo5IUhU2jsO4L/voD9leHN6tkO20VO/VNiJhlACojYbuB9C+2JjrJ9wb08XZW3BlOgm+IzOv+jsNbLKtzs0rNr99BGXPKSlBwByQCS46N8fXjxdio6clzAZ7UXtka763osByQTqAbFzhM6/0M47rvHpiFQToJVv/3AR9XwdooRdr+SAYjUEEb0zq/aXwqwrsHd18uZgAjEOj9Y8z8BAatf92+jcxZ9afzSPLnrLwiWZACCQLEQSXMH+wHN83Pp2ETsCQRstky0WKHzh87/5tk96PaeLRxlrQfUgldmsY4/u6BJBmADsb1lFXQhrMLapXwwj8pbRlJDGwor7aaREf5x1LfmykF0efvGjorzg1kbae3hUkdhszWQZAA2a/5DWIX97SKoFXdAB7EnMLqFN7bpHSQf6iC5UMZfNnEkdYe9BifEm37PrtnjJGhWh5EMwEH1/3HxVnoXAiZO6OtxfejZUzvLuwMqeNjsG92iPpXfNJz49MQJzYHNvh+wrL+z4E6SzJgwkgE4qUqsMS+dsZq+3n3YSWj6frfmtBebg1kPPk5I3hzTnb4e19sRjhxoVXEpjXxvqbzm6xDBrG+DDnFTGtwZ76+ghTZUimvT4mPCExAYuqlrs+yTHMSo3w5GPE7cOoou7+Bsvc9YbjpSRr2n484GVLtLcoaARM4ZblWhYCh0yNtLaf4+52ajp5zWhXbgOnGew+mvm+ynJSw2+njU33L1YFczoLXFZdSJrfbKK76uqlEyAFfwITAa4LB3l9H7Ww85jqkVRsPSG4fTfzN4b6ACx3vfg0Rf5S3uRn0GuXBvCfWYLju/4wanCSgZgAYMx48YvS+euYr+7fLO+a3YG+AOcqMD0VfHeQ8o4BUdmtCLp3d1ndpbWw7QqPeWy5HfNZJVEUgG4BGQbGDyx7OKYF9gvesYeaSUlIjA3XM30xWfrZEbfonQOHbJHvPgjiGyERDHUNM27KNZu4/Q2isH2AgovaZCYNj7y6v2WqSUXyqobH2XMwBbcIl5XldSSjWmzqHDuEkoyR0CxyFCnT9trquNVnc5yOzQkgH4VL846aIGz8+l5zEj8IsuaNuwaicdG2yBEsxx8S3HXg3y6Y2z7ZnktpNPlrrMm1pIZZyeJF8QyKEphRJdX6CNRQp0BzWpSwsvsWe/zk6WTqCDvLH5AP1r9W5FOKkc12EJR5S8LxEn+DkM4aOCFFp1mJfUnDy7epONOx87Iq6O9fPpzt4taQL0H/IlJz9p9Icr6VsWtNIUwc/0sjVuyQCCqnmcf39xYV86s2X9QFI8ihH6y12H6atdxZg+H6XFEFhaf+VAIQYw8v1ldBYUnA5rWk8R020L+3tB0YL9R2koZCsUBhZUolmcjmQAQVY+BtL+jevQ4kv7y4HNBPcR2OibizN+3czFxJ908g4BuQfgHZapY8J0dunBY1Rj0mzcKNya2n+W+HgM1phygMlclqjULluypPzpLKacAaQTfayvXzurB43v6FwePp3Zd5v2B9sO0kW4VCU7vVsknYeXDMA5dp6FrIlRb8Z5Pemslg08izPMEc3aU0JjPl4Flesnw5zNrMibZABhqmbsEUwe3YUm8g3BDKTXivbTNV+ty8CSRbdIcg8gTHWHPYKbodjiXJ4WZxi9tUV2/jBWqWQAIawVp5pxQliUeJZ4mSMpfAhIBhC+OpE5kggEhoBkAIFB7X1Cd87ZlFYZ+cUHjtL1X8o1vfc1G1yM/spzBleOrEzpdYj/Pr5qV5WCUajF6tkony5u24iu7tiEejWsQw1r2zemaQZkMS41rYXuvTeRHt/HXw5ZBoJko6KNB78vwnafpGgiIBlANOtNn+uYWqzVh0pp9aGdMGu+s0p+n2X4oaykBu4FsNnyLeMHU53c5JM+Fv1v8cp8OlB+En0cnZwNmrC6MqPKMqmKS18HEX2TDCCiFZcy25pOy3xgH4ya8KWhVMQ+9h4rrxrdeeMuV27epcIsyt+TDwdRLpnMu0RAIpASAckAUkIkPUgEMhcByQAyt25lySQCKRGQDCAlRNKDRCBzEZAMIHPrVpZMIpASAckAUkIkPUgEMhcByQAyt25lySQCKRGQDCAlRNKDRCBzEZAMIHPrVpZMIpASAckAUkIkPUgEMhcByQAyt25DVTIpUByq6ohnRjKAOBThedh+5LhQZkpsmR7LoQNsMCQFHecLQHaUd6S+XqCkuOGwWJlSZE9+9hgByQA8BtSL6BaxemwBOsyXdkQJQ/CjK3ak9D15/d7Em3/JQuFW4A6BfPzLpen0ZFmQ35wjIBmAc+z8C4mbfJPWoSMmoXvmbcZNPXvV989lqRnAT2dtTJKqyScwlmHvLTP5UO20HzOPlVAeIil8CNhrQeHLf8bm6NZv1tNnO4tNy/ccmMNjy1N35oTAGK0bvjg/wVl1aPf6Qqq0M/2PBdyOGcDln69Ro9H9soXkpi/Oszer0MUgX/xEQKoF9xNdt3Hj/n7Hgjz6y9D2NLBxXfoGxjJ/vWCrcrffVdTQ4nNt1+b0054tcN0/h55bv4f+y5qF3Cr5QH4fGNiOroKhkz3HKujPS7fRF9vBxNhQqaRQIiAZQCirRWZKIhAMAnIJEAzOMhWJQCgRkAwglNUiMyURCAYByQCCwVmmIhEIJQKSAYSyWmSmJALBICAZQDA4y1QkAqFEQDKAUFaLzJREIBgEJAMIBmeZikQglAhIBhDKapGZkggEg4BkAMHgLFORCIQSAckAQlktMlMSgWAQkAwgGJxlKhKBUCIgGUAoq0VmSiIQDAKSAQSDs0xFIhBKBCQDCGW1yExJBIJBQDKAYHCWqUgEQomAZAChrBaZKYlAMAhIBhAMzjIViUAoEcilk4J6nUOZfZkpiYBEwA0COZUgNxHIsBIBiUB0EZBLgOjWncy5RMA1ApIBuIZQRiARiC4CkgFEt+5kziUCrhGQDMA1hDICiUB0EZAMILp1J3MuEXCNgGQAriGUEUgEoouAZADRrTuZc4mAawQkA3ANoYxAIhBdBCQDiG7dyZxLBFwjIBmAawhlBBKB6CIgGUB0685xzksqTtCRipOOw8uAmYNAbuYUxXlJxn+xjnJr6G3Yn8AViRdO70q1De7aVP60ZDstO3hM66Q8n9aigH7Wq2WCuxcOZnktx4Wu6Wd1s4z+d4u30d+W76CjZRVVfnJiZVWvgaCMZ7ZqQPf0bUWXtGtsGY/oh7e3HKCXNu5XvHMSfxjclno2yBcN7sjf4fIT9P3vNlINtWyOYqkOxPX/2pnWmFb7jPZT1jOA59btoembqxqrsSr7NKpDvx/Y1ugcfx/erB7978KtRHreQTN2HErKAJaDafR7czHC6QPWyq1Bx28cHo/f+LDlyHGavgl51QejTgV5Rq/K+0NLt9MDczcTuFvV95rGCV91RF/uOkz8R8crqPK2U03jE3VccegYvVK0r8o7GMBdffxhhtr8lJ5Ah+U0DZhq/dh65luyWcAAjC3CFkaZ4Plu7iAW9NCSbRZfqpzPb9OQ6GTiVHrfsfKk4aZt2EvEnZFnF5q/8uMnkoZ7ZRM38EQv9/drneB46gcr6AFmTmrnT/Bh4ZDAJCz8SeeMQCCrZwAnMc0r5mmxxTT/BEYVnlrWr1XTsrLr1M6lYycSmcBRrLHrWnS+qevBAMyoZg7tR36a5JlXy+R1JuEwUt3crbkutt+g48/aW6Jz072oU3/mJiYMRec3Ii/5wO7Grs1QHPMC8cRgKuMX+8w/E+A/DoWhnNw2soHMW1o2lBxl/PPSHZadX4EAjOHn8zbTM6d0tkTktu7N6fFVu/TfEe7zncV0UbtGevfY246SsqoZgPErWum0Dfvort7mU+YVJvsNOUjLuE/xZ4uRv2V+Lfr9oLY0olkBcYc5hBlHEZYVn2HJ8sG2Q7StuJQse4QxryF7ZyY9bXTXpLmaunZPfInAewVTTuuS1H82fMxqBvBHbI5piUcFI99/ds3upAzg3r6t6fGVO+MNS43vv9hbMGMAFTyyJFmn8uzAigFU8kzDMEUf11bPZF7mdbDJzONB7GX8zmQ/YxQmD9d1aqJmm7YePa5gEBso4+7yITMRyNo9gMOYoh83TN15Km0cTXnOuD3Jmr59vdpEWCoY6YOth4xOyvun2+FuseRgDwv2HTENt+oQRucaidVl7NTvbTmYGB5lNfpL9FTl0q5ubXWWbOUlMHeFWQaWWnYmlLUzgHvmbtJ3RPTh3w5oQ3nonP/CqB8nDIU/mrWR3h3bI+5kfOjYKJ82lRzXOZdhN92MeGaQlLCpyDsKxq6unFQYh2V07BE4idDSCmYUEaVHl++kh5dtp72YhRhpaPMC+i+m7AMb1zV+ku8uEDC2MxdRRSvof1drOjlnHR2Pj9N4jWxcB7+3+UDSwv1uYLvE77zGxgaikT7CWltLl3dorF93YIq/cN9RrRfl+TlevxqooE4tgwtRGxM3XhI8YxI+IXCaHNZg7yFn0my6d/5m2subsrzMMfzN33+UBr2zlNq8ujBNuczMZLOSAWw7Wk4nDaPpAGyMMbXARlmCpmTMCvjs3opu7Nw0MQzW+W+bMI4jpZqZAWYdT47olHCUqJuBxBLdyBt0BvpJjxYGF6LxncBQTOiH322gC2eupoqQaYGevaeEer6xWL+3wUsz/OXyXglmOfH6wPuO0nKqMaXQpITSyQkCWckAfjR7Y8JG3EODq0fx01vjfN9At6IDWRFLEZpJoE3l834N7VNGNw3nQSNvU7cW5ebqjxlf4/N+DfEOQ4LyZmwm3tevjcZX1ePErtjVM+xtKF/QeT7E7KPWlDnU/vVFyq5/QuCAHZgXnfLesuqlGMp0A5hp5S2jlL/yCcOp8tZRtPu6obqj0UqUpcebSwLObWYml5UM4H2WptMSOsxFmt30R4a110/L4XcOS8kloQvb63fj2esXO/Vhpm/CUoJHtRjViMkXnNGyvuqk/B4ybDouOYAlgXEDEJ2nSZ6ecXBgjv1mk5mBEjH/h6UJ7/RfhNkAT7vHfrKKdmNUTQddgDxoTzX+PqIjPQ/xayM1z8+lfdcOoVY8O4vR2uJjxEsHSe4QyDoGsNikM9WD4I2mX9IoXg4YR1GsSWfuKLZEm4/ZjGeIJwx7AP/Wbi4ipjGtqjr+j3sapvKYUbAAkkqvsFx9Nd9QnPs1sd4Mm4TNsr4NBWTvUSaWV2j58gJq/9pCOmCxcanmw8tfntV8gjsDKvHm6897t1JfTX/XXTmw+sQFFXb+DDAQSa4QyDoGcBsujBg70919EhteO5MOpCwdLOAe1hS78SZMY5dmNF+0X3/Ed0u3Zkpsl7XHul27Nkfjfk0zS1FEhw3p3tc/cfqv9bLssgH0vwPAlIx50npSn9H5tiKfTV6YT4/g0lAQpFyi4o2+GP1pCGZdKageNjPr1K6e9RQl2ZdJEZX8HEOgugayBJJ5xqk8Oh4L8xjpL5o9AfXb+hQNrjHO0HWEUfvFjdXr+ZPazoh0L4vdvFNkDwyip5M0Yr9bDxumuohHK7yjS1Pz8gecaPB6+nudsEmpTVvjR/eI5cGv5m2hJ40nJDpP3rzopCdR9gldkEcBulgrXYn8amdKAsGlFwMCWcUAPoXIq5mUXAMTWf8bu2B0Ngr4YMQyG41VTM1mEi8VVe03LGXmoV3Ho9EXaNJtU19/o++7PVX7B4pMunZ9gsRqYCSsaXBT82D2++IZXRVG8PE5Pak9M6lkzABM645vrTc8zeJ34rZOu34HM2QxZRE6q3UDjbcc2shi1ZIcI5BVgkA/nFWUAFRTnJtf+9W6BHdlyY0Rxkh34fbgBGYOJnQnZPh/u3CLbqNvbuxSzvN8IqCJrnEd/WzhR9i4e3DRtnisJ3H8xevkwr1YNhg6+/iOYqNlPLLYw3m4vbh5/CDl7Vfzt9AjfNtRMw2P+weD+efKXcTl8Yu2mQj7iKTVWssogOd2HOkOMD/5FIku6/1kFQMowj11Y4Pno7lXY6O0SGs4gIbLIqrKGbUhQEMe0Xktr2UcsdHWeAPwqo76Vsszjgf5Eo/a2dExeZf7VeWOuz6hBwcmX//rfZu/PTy0PfFfdxynrTMuMRDkP2t3+8oA8s0Yj3lWda6l2tkLoHYajy7SLH7JmiVA/A6+28pGw31kmfVG2SCIrOoI/ndgg22nYar6kx760bULK/UwLDn+g1ODFzR7CEq8mBn0aVhHl4Sbl7VXDDBdEmzFLUE/qbVWYhFMj/mmCG3TbKrysUsrbTwiEUg/OgSyhgHw1N0rYhVbVvR7E7Hgf6ww3BbEKDbI5BgvD7oFtPQ2LvbsMUyVmxXolw5a/46f1VmHJoLm2qm2xt2rR76SHCekL3qmr1ymUgOCaXT3WdWYmlSm/upbXIaWkkeXAzxy4LhLS7zu7hsbTXkAUr9qn/+Ju/7GKXI5RuGj6MR1Taaxl7JAEE9TNd+UozVt2tgM1L6qeRrXtiGxPj2V1vPUXLtxiA93eqxrkMtqlF9gp6FNreUM+LtbYtkH5To2g46/x1buoP+M6pwy2k/4LkW8oip1q62UgaWHBASyggGwQsyEHodO+uTIjil30/s1rkNjP15V3egYQvTee7GJ9iQk18yoNvYCjieZ0w606Fw/7NFcxwD+f3vXARhVlbVPICQhEAihhYTQe+82BOzYu1hX1LWvZX+7q666u+q6umtZ13XVtbe1V1ARG6BU6S0klNCSQBLSK/zfecnESZiW5L2Z92a+o8NkZt675bvv3nPuuaccVDbK/L0fY5kfcopkYU6xzESgkq5eIgu5l9v1nWUNdRb6I1aFP4/1fy7vXk5T/zaclhSjOn3J8+tz/C4AhkWkW0XHuB8Jun3PPwNHICIWgPuXbz8IEbW/D+Qo7ShEyzU4OjTj7vQvBAHxtgBoqKkXfXjfXYrfPVFtjEFMCk/igd4Azud+dOipDD0Xv31ZltyOSEbq1dgK/RwGo6bhifHSG9uHzlgUdkMamrOzUFbtLW4gqbjKa4OuDmh0LOn6zcz334/sIf/Q7ZES+jxl9jr5YfrQ2s8e/lVvwHolKRaPj44a5OEqftUUBMJ+AdB4feXqUdZoUh1kfusDtRTsM3c22ovr5WpDb3gPNrr3bljpvahmvx721jopL+7reQEwFiT83lDc+LXwQ7s19Bn49RcPfxn9VeXaASN0uafw5e7blPoSgFf6eePqP1r5x98n9JKnsQC4/CN/hPTS6a2l8uVxQ+rjHGh4bl1Mr1bbBLdt1RXYvrVvtChb2dZwLTvsF4A7wQ0bT36dhPci+Eeg9Mi4nvKbeY2MYzC5r1u4Rd6bOvCgYuo1+tGuzarbJdD0q3OLN+qHUOSZRZ6NW+7xY/7rrcyAv8dCuej0kdJboxwFifIvHC8Jry2un9wFkGAO+WKN28kEMNRtgtvkVz+HFw7vG6QWhnc1DeXaMOzrP9c2CtipfQST9cS5vXXfMPxpdESn176fmeftFknp0NCyz3VhjAcPPtdv+n6NN08+cOaTAtjzGhZ1KkX40EG412f8jWvVQrBy5iEyUX0agkjtsUVRc2Ujt4G220U64Y2X2yIKDK6F8lD9HEjmIBAFP3M31M0p1E6lfKUx+BpROyjpjmh8Xt/omsYfPZWj16iOoE2j7YV+nwEubmjx9YMbachvw3HI7Tv3PzVl13yIwp5ILfkCJTVw0uQc/03fI+vhOmsEInGbS1rOQOgFZvRNQii0VI99CLSuxtepeW66m6mvHvklujnxNL7e9XkbbA/0ZEAdofZp7AR9NLEI9IXu4pZhPeT6Fp6AuI9hFCS44xqYFbtaEVnvYb8ARNZwsrdEoGkIhP0WoGlw8GoiEFkIcAGIrPFmb4lAAwS4ADSAgx+IQGQhwAUgssabvSUCDRDgAtAADn4gApGFABeAyBpv9pYINECAC0ADOPiBCEQWAlwAImu82Vsi0AABLgAN4OAHIhBZCHABiKzxZm+JQAMEouSVhWHtC9Cgt/xABIgAESACRIAIGAhwB8AHgQgQASJABIhABCJAASACB51dJgJEgAgQASJAAYDPABEgAkSACBCBCESAAkAEDjq7TASIABEgAkSAAgCfASJABIgAESACEYgABYAIHHR2mQgQASJABIgABQA+A0SACBABIkAEIhABCgAROOjsMhEgAkSACBABCgB8BogAESACRIAIRCACFAAicNDZZSJABIgAESACFAD4DBABIkAEiAARiEAEKABE4KCzy0SACBABIkAEKADwGSACRIAIEAEiEIEIUACIwEFnl4kAESACRIAIUADgM0AEiAARIAJEIAIRoAAQgYPOLhMBIkAEiAARoADAZ4AIEAEiQASIQAQiEB2BfWaXiUDkIHDggAj+F303KEoE/3sl4zLXtbgqChe38nWD15L4AxEgAjZHgAKAzQeIzSMCfhFQ5r4fLzDr1PaxMiYpXg7t0l4O79ZeBiTESXLbNhLTDCauReaUV8nm4gpZtKdYfsotkSV4zygsrxUoKBz4HRpeQATsjECUvLLQTdy3c1PZNiJABAwEajBlcXg3KqmdzOzfRc7q3Ul6t4sNOjgqHHy2vUBe2rRH5ucUyYGa/SKteaoY9IFghUSgmQhQAGgmcLyNCAQNARXR9++XoWD4tw3vIRf0TZI4GzJabaYKBH9dvVPm7y6qhacZmoeg4cqKiECEI0ABIMIfAHbfxghgRz25Rwd5ZFwvOQLqfKfRpqJyuXvZdnl3895auwM9MiARASJgGwQoANhmKNgQIgAEcPDeBWf2T03qjZ1+57CB5PvsIrlqwWbZWFCGYwIKAmEzsOyIoxGgAODo4WPjwwYB7PYndkuQt6YMkP4JwT/PDxaO+ZU1ctn8TPl4C7QCNjzGCBYOrIcI2AEBCgB2GAW2IXIRAOOfAMb/ydGDpAd2/pFC5TBkvHhehryfuYeCQKQMOvtpOwQoANhuSNigiEAAqv5u8W3ks2MGy8TO7SKiy546mVVaKSfN2SCr80rg2UAPAk8Y8TsiYBUCnHFWIctyiYA3BLDrv3F4smSfNy6imb/CkxYfI6tOGyn/OqyfRNUHK/IGHL8nAkTATASoATATTZZFBHwhAD+5dtGt5JsThsohXUKz68+F7/7OsirZU14tpRBEyqr3SyyM8triPD4pNlpSwZCT49oYAQB9dcWK33ahXYd9sUa2FlUw+qAVALNMItAIAQoAjQDhRyJgCQJQ+Q/p1FbmTx9mMFpL6nArdDtU629k7pV3tuTJCqjX94PRG1xdDfCNlwdLfHXkd+3C9R0+/AM6xslZaUly2YCuMgR/W03VqPfUuekye1s+vQWsBpvlRzwCFAAi/hEgAJYjAOY/Fjv+eWD+8dAAWEVf7Ngn9yzLkl8Qrtf0GP4qEMBwL61DnPxxdKpcPrCrz5QCLe3jjB82yf8yaCDYUhx5PxHwhQAFAF/o8Dci0FIEwPxHwcjvpxOtYf6FVTVy7c9b5M1NubVq82AF24FGYUpqR3l1cn+EIY5pKUoe7z/7u3T5QIMI0V3QIz78kgi0FAEKAC1FkPcTAW8IYNOcGNtalp86wvRY/WU4v1d/+ncQh18s1Cp461r992jHpO4d4MY4ULrDdsBMKoWQMQk2AWvySmkTYCawLIsI1CFgnT6SEBOBiEfggPzrkD6mM/8PcD7e4Y0l8s7mvNAyfx1f7M41U2DyW0vlEeQAMJP0uOSNI/tLTHRrM4tlWUSACNQhQAGAjwIRsAIB7IxPTusk55sczvf/lmyTs+E3X61t9mDHZ0VXAioTgsBdi7fJSd9slGoce5hFozvFy++GdIP9AYwYSUSACJiKAAUAU+FkYUSgFoFW2L3eOqyHqTz692D+/1iFXXYoVf6+BhhCwKxteXLK3I2wFzRPCPj9sGRJ0OMF84r01Qv+RgQiBgEKABEz1OxoUBDQ3S8M8yZ1aW9qBr83YAz3xOpd9jeIgxDwZVa+PLBih2lw90RsgjOgTZFK6D1M1C6Y1kAWRAQcigCNAB06cGx2iBHQ3ej+Wt/6tPaxcjTS9s7o01kO69peEmPMPbMurq6R0Z+ulsx95c4whgM2bdu0kl9OHiGDTY4doMaPS/aWyPtb82X2jgLZoNkF62IWhCR6UYgfQ1ZPBFqCQHRLbua9RCBiENCdJxhNWkKcnNM7SWYO6CKjcD4dDPpy5z7JLHRQdDzYJpQh4uBH0ATc0bGHqRBpxMIjkTxJXzKxV33Zm4sr5HUkFnoLmpJ1+XVCAa4lEQEi4B0BCgDeseEvkYpA3e4+rk1rOR6+7pcjCt6xPToaYXxDAckqZWhqBGfXs39PoCAewTLs1INFfaGFuXdUqvHSOtUQcV5usbyYniufQxDJh0CikQ2pJQjWiLAeJyBAAcAJo8Q2WotAHcOPAcM/HWfNNw1NNvX8vqWNV39451GUFOHoQhUnyneDTdGodFr3BOPlqnsNjgv+uT7b0BLsMwQCaAhC0DZXe/hOBEKNAAWAUI8A6w8NAsqZsEs9JS1Rbh3eQ6aCWdiVNEGP80zgDxjxD0LB/L2N4/DEtvLsoX2Ml16zsqBUnlybLW/i6KAchpuMOOgNOX4frghQAAjXkWW/GiJQt8tPbhcrN8Ot7JrB3aQjdvxOoKOSEyQ2to1UGAl9nNBitBGcXw0j7UyjEuPlxcP7Gq9KCIRqQ/Aw3Cw3qWGhSi7BCqtsZ5DYtrBGgF4AYT28Ed65OqY/Gef3D45JlaOS7c2QfI3WZQs2y8sbsp2xSwUzndStvcxH/oNohzLRFfml8sDyHfLhVkRbVLKTKqO2RfyXCLQYAQoALYaQBdgKAXUJAwOamtJRHhmfJofCHz8cKK+iWkbCFXBnCbwB7MxUAX9s6yhZePJw0Sh+4UCbiirkbmRZfFcTEylRGKjFgf86HgEKAI4fQnbAiBAHn/xpKYnytwlpMgHZ98KRMorKZeLnayUfwoBdjdeiIAB8dfwQeE04V9vi69nJhLvh3cu2yzs4LjDGwM7CmK+O8DciAAQoAPAxcC4CcI1Tv/wnJ/WWM3shUlwE0F4w/8NnrZWNrnNqu/QZmpeOMdEyD2r/ETC2iwSaDzfD65GKeQWSIdGAMBJGPPz6SAEg/MY0vHsE9b6qmG8ZkQKf7xSJi9BgL39auUPuW5plD8YD48SLBnWVV47oJ60jcEe3ImIhAABAAElEQVSsTprPwj7jHmgGClQ7wyOC8F6Dwqh3FADCaDDDuis1B2R0l3byMpjMmCT7ni1vL62UT7cXwLVsryzEDrEKDOHPh/SWP4xMMX14ND6AGgf+LyM3NIIANDCHwn3y3WkDReP1m02K4xXzMuXYlA5yKYIxqV9/rM0FviyM/1UYk9kIPkStgNlPBMszGwEKAGYjyvLMQ0Ct+KFavnZod3l8Qi/RMLB2Im3ed7sL5RkEl5m1Y5+U6u4P2omDjPSgtXhxcj8joqAV7dfMe0+sy5YHftkuRZowx0qc0Bct/vohyfLQuDTLoiMu2lMi075cJxr7v55Qtz4PPRD176J+XeTKgV1lUIe4+p/t9Ic29eHVO+VBjEkl2nzQM2GnxrItEYsABYCIHXobdxyrZ6fYaHkePtpnI+6+XUgZ7SfYlf59zS6Zl11Um5muVYDR5NCn/xzRF0wLue0tJNUKvLgpV/4FoWQ9At0YBpItEQjqmG4qmO5M7MJvRpTELnHWhg9ZkFMsx3y1Tsq1bl+kjBXXdESq4HPxnFw/pLsttUM/5hTJJT9myFZ4E/B4wNeA8rdgI0ABINiIsz7vCGAxT20fI29NGVCb7MX7lUH7ZTHi2T+GNLwfIs99lQbiaQkzxW72FtgtPDa+V9DaXw0muRK5BOYgoZAarakngR5T7KtE5DuDv7qYbJTEI4OfqvI1rv6hyGp4DOInjMNxS7sg5iB4JWOPzASzbBaj1K7AG6Qbgj3dAK3RVdAQdINwYBfagGyOM37YRKNBuwwI20EvAD4DNkAAjHF4Ujt5Z+oA0XCtoSSNCPcaXLweWrlTMtXSXhm+mfHiYcswAUFy5sBVzimRCIMxHqrov/DHTfLOJrjXtUTIcm+sahDw//E9E+XBsT3lENiQ2IF2llbJxfMy5FukMzatr3boGNvgOASoAXDckIVRg8EMR2CH+fHRA6Uf3PlCRYWIA/9X7PKfXLdbSoxzfOttDbSGF2HQOLN/l1B12zb1/gTNxIlzNkArofENzJS23LpYpx0YiRgRD4zpaQu30Xz093xoBL7KoiDgNlL8M4gIUAAIItisqg6BOlX/J0cPNlTMocBFz8qV4T+E2O/FFZoIxiLG46tzwKEfjNg+PnpQxPjOu8ORBwZ4+tyNMm9XYXB3wioMQOs0EhqBv8G49AREjQwlqefAmcBhKQQhagRCORKRVzcFgMgb89D1GOfRnRAs5t2jBsoxIYrL/wbc8/5v8VbJwaJrm8UWzGgAjj4+gDvdyDAJn+vrIdsDLct532+Sb2FQKUG0L/DYpjpDwiNh7/DMob1lJBIEhYo0XfFpEAQyC8ubZwMRqoazXsciQAHAsUPnoIZjx9UKh7H/OqyvXD3IWit4T6ikw/r6up83yxxlOIFa7XsqyOrvYMDWL6GtvASXwSk2Tk/cXBg2wQDxUvj1L4DrpG2EL/fOQCMTDU3QXSNT5W7EbYgLhVYI7VGX0nO/2yglanRq1ZGIe7/5d8QiQAEgYoc+SB3H7vZs+Gy/eWR/iQlyhLR/b8yRWxZvk1K1eA/RYt4slLErbQXLw2vh1vbg2FRJgtbEqaRGlU/gqEUz65XC1qJZ1v2h6HydYeork/vL+M6h0QrcuiRLHl+1w57CUijGhHWajgAFANMhZYEGAlj4e8GdTBPDDA5isJZ9YDI3Ltwqr6bn2Hu3H+hjAhxjo1vL74Z0k1uG95Aebe3j1uatC8XVNfLcxlx5GPYVe+101OKtwb6+B/7tYlrL05P6yGUDgm+wmVNeLSd/s0GWIJaALbUmvrDjb7ZHgAKA7YfIgQ2EKvtxLJj/Nyw5aI3fijS5M77PkIXZNlUvm4EEmJG6tY3p2k6uH9xdzkHwm0Qwp1BTBdo1C8crTyP40Nxd+2rjCwRZ22M5Bmo4eGC/3Dw8RR5Fmuk2Qe7fh9vy8XynS5X6S4bAXtVyfFlBSBCgABAS2MO0UjD+ITBim3v80KDtVFchyM15WBjX5yPqnVn+404ZHhUI8EqMb2METjoDGRGndO8gAxJiLevBrrIqWQBr9Y+25snXsN7PhuBlnFMHmSFa1sFACsbxwG8RCvmpScENT62alVPnpst3jB8QyCjxmgAQoAAQAEi8JAAEwIj+Cpeq20f0CODill+ydh8spr/ZKBl4jzjG7wu+Oqv2boiouOmM0ZLQpuUaApUzpn65VuapEaWWR8O02hGAkd4FiDb4X4SsDmZWyrc37zVCCyNqAokItAgB6yOetKh5vNn2CIA7pGIHuuXcsUFh/tsRRW38Z2tk+AcrJKMYu89I2/X7eyCUOWM3romTzNQUGwxOsSbz/3UE4ML4Fphx21cXiRrsqewVDDq/b2fJPX+8jEX0TA19TCICzUWAAkBzkeN9RjCVs7EYbTt7rPRuZ346WHeI1SXqpDkbJe2dpbIsr4SM3x0c/h1aBCAYPY4EUa1fWyRPwQ4iGKS2H8tOGS63wGVRgxqRiEBzEKAA0BzUeA8MopDdDi5S7yF+v9XHvw8jTG/71xfLrJ0MmcpHz6YIQN2iCoCbft4iXd9ZJouRzjgY9BgMEr+cPlRirZ6EwegM6wg6AhQAgg65wyvEKtcZqXrXnTHKyMduZW/mIS1s0ltL5e4l25zjP24lICzb/giAEWukw0mfrpLjvt4gxRr7wGI6HlEMt+MIbpC626rBBokIBIgABYAAgeJlQACLy1CErE0/c5QM6Whd1r4q1HPOd5vkyM9XS76TgsfwISECLgRwLDAHLpEJby6RFzflur617L0LhPLVp42U41ITeSRgGcrhVzAFgPAbU2t6hHPGE9ISZeVpI4x4/tZUIoZrWUcsmu/DzYwGflahzHKDhgCMJn/7Y6ZM/HyN5GtESgtJYxN8ddxguWoo4m/QLsBCpMOnaAoA4TOW1vUEi8k1COoz+5jBEm2RFXgNbArOQyCf42evlTJVY5ppwm4dMiyZCPhHAGGol+wtwXHWEnkdyaispucO7SOPTupNIcBqoMOgfAoAYTCIlnYBzP9u5E9/9pA+llWTgWQ9ae8ul3e37OGu3zKUWXDIEYDwfAmCVp2DTIgq8FpJtyFs9IvIv0GbACtRdn7ZFACcP4bW9aCO+f9lbE/L6vgPEvYMeH+57Cqvoo+5ZSizYNsgANuA97fslZ7vLZdMCL5W0uUDusqLyCxJIcBKlJ1dNgUAZ4+fda0PAvO/YsFmuRrpYS33I7QOJZZMBJqOADQBuxHQahCCWX2Uld/0+5twhwoBL1AIaAJikXUpBYDIGu/Aegvmf9fonmLVzr8UQX0Om7VW/rsBGfsQTY1EBCIOAdi41OB15pwN8hdkTbSSroAQ8PwR1ARYibFTy+bq69SRs6rdYP4XI775Q+OsUftnlVTKgA9XyM9GelNa+lk1jCzXIQjgSOCexdvkonkZljb4t5jT9+lRHuY3iQi4EKAA4EKC71gcDsjU1I5IboLdggW0qahcxny6WnZpjniLvAksaDaLJALWIgAt2JvpuXISkltZaRz4wOhUQ7inEGDtcDqpdAoAThotK9sK17sBneLkw2kDLcl1rml7x4H551XQ2M/KYWTZDkUAmoBZ2/KM6IEaCMsqUuFehXwV9klEgAIAnwEDgbZI8/rxtEGWBPlZmV+KM/81UqRR/bjz5xNHBDwjACHg2x0FcvTX66XaIiFAgwW9O2WA9OwQa+Tz8NwQfhspCFAAiJSR9tVPLDb/mNhLhiHMr9mkrk5HfbVeSsj8zYaW5YUjAhAC5u3cJ+f8sMlILmRFF7vGtZGXoAmIojBuBbyOKpMCgKOGy4LGwihoRr/OcvWgbqYXngPf/qlfrpO8Mqr9TQeXBYYvAhACPt68V66Em6xVdGyPDnLbiB40CrQKYIeUSwHAIQNlSjM1+phaAcMNz/XeD7v+ZxE61GzSc8xT5qbL9mIEO2GqUrPhZXnhjgCEgBfXZ8tDFroI/hkRPicjk6BojgLXmmDR0UO4D5dT+xft1Iaz3V4Q0AkMRh+FBWQoMvZN7p4gEzu3kwl4pbWLkU7IGhYMqe93i7bK4t2F9PP3Mkz8mgj4RQBz+N5l22VUp3g5pSey/JlMag/w4/Sh9aWqWWAhjup2wkvnp9xiWbSnRJYih8EK2PBUuY7wKMzX4xUOf1AAcPIo6ozdv1/ag6kfn9JRLkPAj6OTO0h8iIPrPLUuW/6zZpcIDAtJRIAINBMBhMnYD2H+wh8zZNFJwyxNwa0t1KgcHTFnO2LjoJsHjSLoTqXQHqpg8PzGXPl8e4EUq0ePCgS0JXCHyVF/UwBw1HChsWD4sdGt5ezeSXLr8GQZm9TOdj24cWh3mdE3Sf65Pkee35At2er3j90MiQgQgQARALPtFh8jV8I2R+dTNxjuhZriMYePwQZDXy5aU1Amj67eKe9syZMK1RJwnrugccR7lLyyUPeRJDsjALV+e0jmNyDP950je0gHB+6sdYG4Y8k22YpgQFwkLH7YsGvsnRArq08daTw3La1NT5VOmLNe5mDXx7FrKZo+7gfT750QJ3+DR865EPCdRqoheHT1Lnkcr2IVBnhcYPshpABg5yHChDoFC8EzSMXbC+f34UAa6eyxNbvlvmVZUom/qT60YFQpAFgAqkVFYqxioEJ/YFyaodGLDhN1ejY8f65buEU+gDcDhUaLnh0TiqUAYAKIphYBntgKHsB/Hp8md41IMbVouxX21a59MvPHzNrQwNwtmDc8FADMw9KqkqBWSYaK/yVk6psO+51wpsfX7ja0f0bwQab/sNVQ0wbALsNRx/gfn9RbboaqPxLoeLgg7TxvrCyAYdFpczfKXo0XQEEgEoY+cvsIxt+5bRv59OhBcljX9hGBwy3DkkVfT8Gt8VZ4B1VR82ebcadllh2GAqr+SwZ0kYpLJkUM83eH/XAshHtmjJNXEaI0VlWgukCQiEA4IYBnOhaP9stH9jee9Uhh/u5DeOOQ7lJ2yUS5VL0LsOaRQo8ABYBQjgEWhS5w4Vt95mh5Ffm6oyN893sJIhLmXzhejtbgJFwgQvlksm4zEcCzrM90wYUT5NL+Xcws2XFltYaA/zLWuvVnjZHu6tlAYT+kY8gjgFDBj0XhIuTofm1yf8P/NtjNKEP9WSWVsrWkQvYhElgpIoGpgV5bxBBIgJdBatsYw/BQAwcF89iuLdyIvjl+iLyWuVcug/9zTTArD/YgsL6wR6A1lFkvQLM1MwSMX/Vo+RXVsg3zfEdZpZGMqwzzXJmwxgrpGNNaereLNQKE6bwLJg3uGCe7cPx3ybxMeSM9h4aCwQTfrS4KAG5gBO1PMN+/4qz/9uGIxW0xqaLtm12F8sLGHFGjuwI9Z1eq1zaAw3pisoYWHv/oO84tY7BYjEPMgd9gITuvT5J0hmBgJak2YAgWiamz10oZU5daCTXLtgiBtq2j5Pvpw4xInBZVUV9sHhj9u1vz5OVNe2RZXolUanhfnePG3Ha9119e+4drjusn9fUEJcI+QW1zfov4A8cgX4CVYoE27XUYQY7p1FZug20AvQWMIQjqP/QCCCrcqAwT7Y2pA+TCvp0tq3kvFoMHV+yQ58D0LQnOUbdYHIWF4jH4LI9LiresL1uRS+DQWWtld6kmFLKsmvAqGJocxgEI4ZCClybHt5GfTxwmvdsj7a5FtCyvVG5dvE2+hWBvUL1Qb1KF2KjEQhuoicLuG51qqdD/FuKEXPh9Ot2CTRq6QIuhABAoUmZch53sPw/vI9cP7m5GaQeVMWvHPrlsXkZwI+/VneHdNSpVHhyTKlb4MW+GEDDx8zWyt7yaQsBBo+7hCwoAHkAJ0ldg/p3jomXxycOlrwXMvxpje9/yHfLwyh21HQpW3AAIA90Nt8X+cmKqNW6L/9qQI9drBkRoTkjBQcBKDU9weuCUWjCBfo8oflYw/+92F0nSW0vlpK/XSzZ2/0FVpekChNfDyFrW5uVFcs8v200fEV1I3582MOKNJE0HlgWajoCm4Xhv6kBLmL/OLZ1jOteMAFrBYv6KEmwEdG3RNUbXGl1zzKbrBneTW7BG0gDYbGS9l0cBwDs25v0Clfm4bu1F02+aSWrQc/I3G+SoWWsk3w6hNyG5/wU7ky7vLJWVyCBmJk1FVkNVQxppS80smGURAbMQwHy8b3RPmZacYFaJRjk6l3RO6dwK+e4Yxwy61uiao2uPrkFm0oNYI8dqfIS6Y0Yzy2ZZByNAAeBgTMz/Bpvkx8b3MjVLn56N9/twhXyRZbP47NiV7K2okdEfr5KXYJBkJt0Go8lBam/AxcFMWFmWGQjgmRyAtL2aoMtM0jmkc0nnlK3CZkMjoGuPrkG6FplF6p3w5MTePOozC1A/5Vhryu2n8oj4Gar/E9I6ydTuv2bQamm/t8OtxzCMw/uv1vwtLdXk+7FTuBz2CGq4d5lJLlBx0DDMhYtgZlGFrdZCd+T09LIKzCAb9goZSHw0Fx4Y8xHpsLwyyEcz7o1y4t91Qt4gpKU9GtboE7q0M1xT27ex555FTWH6IQGTme50L2XsqZ1DZhv3mfU8oF2769YitXnoCRsBM+iIbglyQmqifJmVH9zjTDMa77AyKABYPWDYEc9E5Cuz5nA1FsYL4B+/u1hT7Cq7sTGh79f/vEUmwH1wJFx9zKBULDL6cgrdPbI2nwP4A5Ig7UISpO1SjpTOtpVgQg0sDGWPBMN/8Yi+MhCZ8SKVVuWXGXPH9s+JCgFYi87/IUO+g3BuRjAzXSt1zfxSs0+SLEXAnuK0pV0OYuFY9Tsh2tVh2L2YRW/DXWaeuv3YnflrhzGRy2A49McV241wAmZh4MRyVFTTIwwNhfrbQfACgWaI5IYAttCdY1vLmrNGyQ/Th0Y081dh8d7l24254wjXV6xF87Em6dpkFumaqWtnxC8cZgHqpRwKAF6AMeVrLGqDOsQZ7jOmlIdCXs8091zdrHZ5LQdnhbPhnrjFxHNCr3U55IfnD+sj1w2DtbPJBlQO6f7BzQTH6xgTLUtOGSHDoPKPdNK58tVOFfKdtTybuTZppkQNBMZQwdbOBmc9YdZiYX7pEACSEEEvziT9fwGie63fV+Ys9bFqAbDbNdsrwPzBCm6Jv0d2tPbwF+cOB7jj+bgOiWL6ICwtSYy5onPGEbt/14DhuG8D1iZdo8ygWKyZiQhCRAHADDS9l0EBwDs2Lf8FO5tYE6X4CpwdV6t+UPXJTiIIQiXc7TYYsRSEXE3ArpcSACDA89y3vXPsOhoMpAUfjLmCOeMowhhWosnlJh5tGWunw2Bw1JihsRQArBwxTIo8SMRmhbLXzIGawMNxu0bsDtRCmvQrAlzXfsWCfzVEwJgrmDOOIjzQiVibuqpWywRSJxBDm+AwGEzoelCLoABgJdyYxLnlVVJYBRcwE0izeJ0M9xhH+cFjJg9PbCvDebZrwhPAIiIBAZ0rOmecNs91bdI1ygzKh9vsLmQwtL0XhBmdDWEZFACsBB/nWOsKSmXtvnLTarl6UFfppG5wDlIRXofcB5pimEQEiIB/BHSu6JxxDGEt0jVJ1yazaENhuWFTYJr/tFkNC7NyKABYPaDYAX+0zTz3mP7wjf47MvCJE7zIcB54Sq8kuQbZxEhEgAgEjoDOGZ07jnAXxVqka5KuTWbRh0ht7CgNiFkdD3I55hzYBLnRjqoOWoCXEdHrxiHJktbOHEOnmYisl11WJXcu3mpfVyEw/8OSO8i7U/ubKsRrEKS3keY46C5S6M/xvZPky2MHO+rxi8TGfowIcmd8szG4XcfzcT6Y9ltH9jelXnUc0rlz9FdV8tPuwuA/74H2Av1+BKF7dU0yi7IQXfBldXdWEEiWIkANgKXwonCcie3BA/342l2m1nTHiB7yzlEDpZUdjwJg8X9+/64yf/owiTPRC+JbLITva7ARPU7QxSHILzOinJn6ELAwjwgYfCPIz4Y+k/ps6jNqFunc0Tmkc8mOMSN07dE1SNciM0nXSl0zef5vJqqey6IA4BkXc7/FRH5ybbZ8pRH8TKTz+nSW3TPGyzhNkANJPOSEBSEeC+9nJwyVt6b0N3X+llTXyLULt0qVHfoZcqDZADsioM+mPqP6rJpFalOnc0nnlM4tW9j+oJ+65ujao2uQmTQHuTN0rQy6hs/MTjioLAoAQRusA3LpvExR9ZaZpG43SxFB7Se8esYjdKb6zwSbwPjVxO8RZDwsuXgiPBU6mt6Cyxdslg15JVQLmo4sCzQNATBofUb1WTWbdE7p3NI5ZpjThkLzh7VF1xhda3TNMcvlz4XVNqyNF+OIz3l+zq4eOO+dAkCwxgyivGbOOuqrdUjtaY5boHvTD0UO7axzxsq2c8fKGWlwFdSdstWLBFT9/dvHyhfHDpHq30wyXRXo6t+Ni7bK/zS1sInHCa6y+U4ETEUAz6g+q/rMWkGqbte5Nuu4IciXgNgaVgfY0jUEa4muKbq26Bqja43ZpG5/x3y9XrJLqfo3G1tf5dEI0Bc6Zv+GHUIG3Fsmfr5GFpw4TJIRDc5sUkPDD48aZBSbjroeXbNb3tuyVwpgNFh/Zt6cSnUhwA4gCgvctO4JcisWopM0JoGFpLqMC5Fl7O1NuYI0YxbWxKKJgIkI4Fl9evUuxACpljf1KMzEol1FTU/pKBvPHG18/GJHgTyG+r7LLpIDKvjrUUFz/fFVg4hXItamc6Dev314sgxEPhMraTfWpsNmrZUtSJ9ttN3Kylh2AwQoADSAIwgfMDE340Ef/OFK+W76EBmLVLlWkU5cTTyjL6Wiqv2yILdIvoOh0tK9JbKpqAJ566uwiThQH61Q1w4N5tERRk0akUwDkkxGfu6jYdFvlheD0Rg//1QgfOIxX69DljEYVZH5+0GLP9sOATyzb2fkSlZphczBbt1MY9jGfVVB3F0Y12PGuZjj83KKZE1BmWRinu+r0oikB+pPCDWZqBq1dkfGvQGY5+M7t5NpmOOHd01AzI7gCduaI2Tq7HWI+getaHOFlsaA8HPACFAACBgqEy/Eg14IQ6FxH6+SP0/oJX+oyxlvYg0ei9KJfQJ2DvqyM/2UWyzToQ4sxKJFtb+dR4pt84kAtGXzsSvv+vYymQ0h4Ihu5qvOPdWvgvqlcMvTl53pEWgt7nK5MpP5h2SogifqhaR7Nq8UC8Q9S7Nk5CerEPYSKnqSXPXTFjn809UQkKDK5KLAJ8LpCOAZLoZafvJnq41n2+ndMaP9O0urZDg2P3ct2UYB3wxAW1AGBYAWgGfKrVDDrYaaLgW7hCt+2ixVegYXgfQCzvnbvLpIntcgP1T5R+ATEOZdxjOtz7Y+4/qsRyLpEcQ1P2+R1HeWITw60prreSMppAhQAAgp/G6V41Duv+m5EvPKIrkFknGkCAKfbS+QpLeWypXzM8XwjeCa4PZQ8M+wQgDPtj7j+qzrM/8pnv1IoP1g/LdD0xn98iJ5zojiyUlul3GnDYBdRsLVDggCf1+7W/6+apec06+zPDWpt/SwwFvAVV0o3lXH8fDqnXLfsu3wMMIn3QlQ3R+KoWCdoUAAz3o+7FtO+2YDHv0oeWBsT8MOKNzYomZCvR6Bkd7VsL447oR1cSjQZp0+EKAA4AOckP6EyfIeEmK8h8nTvV2sPAZjwYshEDiZft5TLDfDP3ohDKPqjfuoBnTykLLtLUEAzF/jd977y3a5F1q/Q+Be+wQE/kO7BMdYsCVN93XvG5v3yh3oz47iijrGT0WzL7xC+RsFgFCiH0jdkJzVVe+SeRlyyffpkoaMW3/CjuGCvp0lxgHMcyGY/r3Ld8jXWVB36jqgO33dDZCIABH4FQHMiYV7SuQwxAhRqeDYnh3l3lGpMgVCgd2pElq895AH4f4V2yUd9kz185vz3O5DJxQAbD9Ebg3EhMpCpKyZOEOcqSEzwUxP6pkoNwztLkdhoYi1wYRT24X7V+yQf2/IkbwyRPVqBWavmj+q/9wGkn8SAS8IGAKyiMbEn7MTMTD275eEmGj50/g0uWlIdy83BfdrneMaZ+A5zHHNvLgfMTvq57cN1qDgouHs2igAOHX86nb/GgVMX0aEDxjbdMNxwfEpHeQ4+PpPRQCfnvAJ1sA+waI2aJcGD8qD1qJ+JxCsylkPEQgnBHTaQoBuAw8CI7x3kPum5jl7KqoQOKxIPt+eL19CIMlGYCNDonfXPlK4D/LImFcdBQDzsAxtScaEjJIcMN7XM/caL1FrO53FEAxUQo+Pbi09kMwjDUJCCt5TEAXsEMT1Pgd57s2kC3E8sRjqzCdW7aRLn5nAsqyIQ0APy14+vJ/0xpy1gmbv2GeECt8KzeJmnNnnlFVLkWYzdMXhcB3buSpXjR4pbBCgABA2Q+mhI/Wq91oNQCkCkmQgLKi+6gkCwqtTBsglJhsYPjYhTTTM51zVTlAtWA83/yACASMAJvwXGAWeqsm9LKAlCAd++rcbpVJV+I2VhIzFYQHi9iuS4pz9xiS4LcLEv2HRFslUi10TSY8dPj56oAzVXAeqhSARASIQOAJg/tcMS5Y7kXTLCirGLv+yBZlSqbv9xszfigpZpi0RoABgy2EJYqPAqPchDPFlMCw0O/hQexw5fHXcYEmGHYLlqYmDCBmrIgKWIgBN3ek4Rnv20D6WVXPLkixZjWM6w0jXslpYsN0RoABg9xEKRvugov8BZ4G3LN1mem0942PkJ6Q+7hpHIcB0cFlg+CEA5n9iryT5YNpAy/r2AiKO/md9No/mLEPYOQVTAHDOWFnbUpz5aQ7zf65HLH6TqU/7WFl48jDpAqNDagJMBpfFhQ8CYP7HpXWST3F05m5kb2YHv80ulKuRc8SyCsxsLMuyHAEKAJZD7KAKoAm4ceEWmQVtgNnUF0LAitNGSBreaRNgNrosz/EIgPnP6N9Vvjx2sGVuu5tg/HvG3HRMP9rkOP55MakDFABMAjJcijkA38FzEXFwBSz4zaaUtjGy5rSRMroLDQPNxpblORgBGPzdCGO/t6f0t8web095tRz39XoprEA6oiDGBXHwqERE0ykARMQwN6GTWBxKkKhkyux1sm5feRNuDOzShDatZfFJw+VEqDqRCSiwm3gVEQhXBDAHnjisjzw5sbdlPcyvrJbDZ6+VLYWYz1adLVjWehZsJQIUAKxE16llQwgo1EVj1hpJ10XDZNJogV8cM0juHZdWG3DE5PJZHBGwPQJQw8dhHnwPYfimocmWNbcIwvzkWesQox8aPTJ/y3B2asEUAJw6cla3G0JAAdSFh2HxMDtGgKvpD45OlU+PHyIwDYRxoOtbvhOBMEcAcTEGdoiTzWePsTTZj/r6T/lynazNp7tfmD9Rze4eBYBmQxcBN0II2FteKaM/WSVLETXMCjoFyYx2zBgnQxPjaBxoBcAs014I4Lz/Ouz4N545WpLbGqKvJe3bjdgeIz5eJcvp628JvuFSKAWAcBlJq/oBIaAYi5amKdW44VZQ19hoWXv6KLltZAqPBKwAmGWGHoE6lf/s6UPlmUOsO+/Xjm7Asd0wMP+tGt2Tav/Qj72NW0ABwMaDY6emIbefnAgr4lcz9ljWrEeR8nQFdkZdkP6UroKWwcyCg40ADP1OgtFr/gXj5QRk6bSSFuQWy9hPV0k+svjR2t9KpMOjbAoA4TGOwekFdhOX/rBJblq81bL6RnVqK7nnj5ObNQY6NA8kIuBYBOp2/Z8eN0Q+P3qQxFmcFOuZDdlyBDR1ZUZyHwb4d+xzE8SGUwAIIthhURUWsafW7IKHwDopsZBB/2NCL9kM24ABCQgcpAsaiQg4CQHMjd8O6iYlF00UtXOxknR2XDwvQ343fzNV/lYCHYZlUwAIw0G1vEvICf5TTqH0fn+5rN9XZll1fZBEKB1HAm9NGyDIJEBPAcuQZsGmIQBhtT+iXWacO1aeP6yv5UfweXDXVWO/NzbhaI4pfE0bxkgpiAJApIy02f1UDwG4CQ79cKU8sW632aU3KO98ZEYru2Si3IT0qNQGNICGH+yCANT9CWDAs08YIpvOGi39VHNlMX2UlS/J7yyTtQUQwmnsZzHa4Vk8BYDwHNfg9QoLz+9/3oIjgbXwFkBucYuoFQSOJyb2ksKLJ8jpaVCpMoqgRUiz2CYhAP27LqJPHdJHCi+cYLmRn7atBsLGBT9myJlzNkiV6v953K+wkJqBAAWAZoDGWxohALuAn3KKpOvbyyxzFXTVqKGEPzpqkGTDovro5AQaCrqA4XtwEVDGC0b8MDxXan4zSW4Y0j0o9a/Bbr/Hu7/I25lQ+VtsVBiUDrGSkCJAASCk8IdR5dihlyPC2YlfrZMTsDMptXiH3g2phb85fqhkXzhejknuQEEgjB4lW3cFTF8Xzb+M6ykHLj1E7lRvlSCQyhtXIo3viA9XSC4S+9DFLwigR0AVcLgmEQETEcCu5CsEDOrwxhJ5ZXJ/uahfZxMLP7goFQTmIJxwIWKe/27hVnktPYc7o4Nh4jctRQDCbbs2reTZw/rJJf26tLS0Jt3/fXahnPbNRuMZ566/SdDxYj8IUAPgByD+3AwEcCap1gAXf78JQUlWi4YltZo64Gjg1cn9pGbmIfLA6J7GLk1VtCQi0CIEoMkaAKv+eScNk2K49AWT+aub7Slg/NO+WCuF6nILLRuJCJiJAAUAM9FkWQ0RaB0ly/NLpcfbSw31pRovWU1qLHjf6BTjXPb76cMMlywaDFqNepiVr48pGP/5fZIkF4Z96bDqP6Ib7E2CSA+u2CntX18sn+8ooEYriLhHWlU8Aoi0EQ9Ff3Es8MLGXHkJ6nlVoV45sGtQWjGle4LhkpVfWSN/+CVLnl2fXVsvd1JBwd9xlYDpp7SLladh0X9W704haf4XOD6b8V16rUcNXftCMgaRVCk1AJE02qHsq3EsECVXzc+UbvAWmLOrMGit6RTTWv6FRV2NtpacMkImdW5XazRovUIiaH1kRc1EAGf7ugjejAx9BRdPlB3njQ0J818JTVkfBNY6Gfk2itWAlkJqMweUtzUFAWoAmoIWr205AtjV5CJ62XHIU56CSH8fwKXvkC5gyEGi8WD+C08ebtT20bZ8uX3JNknXaIZ0qQrSCNigGjB9pRkwUP0r3Ph6Y9cfKtpUVCFnzN0oa/KQblufQe76QzUUEVkvBYCIHHYbdBoL3U4YBx6KzGX9OraVj5EsZURi26A27IxenURfSm9v3it/XL5dNuarMAB1BXdgQR0LyysD04/CM6dGfPePSZW+MOwLJW0vqZQzoepfgvgZBuOnABrK4YjYuikAROzQ26TjWPgykbd85EcrJRUagdenDJBpOLsPNmm4YX0pzc8plvsgDMzFeawRZY27smAPhzn1wXK+Q9s2ciOC9NwwtLuoy2ioaTUC+ZwDxr8BKn8y/lCPBuunAMBnwB4IgMnugEbgKIQU7hATLc8d3gdW2NbGEPDW8SO6tUeQoSHGzxp05XkYLz62apeU69ksyfYI9MHuftYxg2V6akfbtPXb3YVy0Q8Zsqu0slbNzx2/bcYmkhtCASCSR9+OfYcgUIicAhd8nyEXY8G8c1QK/PpToZUPjQ9017houXtkivGyI1xs08EIjEyMl5HWZuA9uFIv3zwFz5O7YGdSqn78qkmiNskLUvw6FAhQAAgF6qzTPwKG1wBCrq7cKX/5ZYdMTekgLx7eT/oHIcua/8bxCiLgHYFsaLKuW7hFPoBdiSB1No+RvGPFX0KLAAWA0OLP2gNBAEZ532cXyQC4SXXBOe7fkBVwZv/ghmMNpJm8JrIR+DirQG4A48+CZb9hSEo1f2Q/EA7oPQUABwwSm1iHANSne+BCeNm8TLkMxwNHIBvgP+HfPyYp3nEQqSNaRQ3+1eiIITreCCloCoD2vc4lr41DVeMZReVyw6KtMgsupfW7ffUiIREBByBAAcABg8QmNkJA11cssvNzi2XsJ6uw7kbJ9bD0fnBMT0lE0B8nUPvoVrJ3xljJg0CzZE+J4XkwZ9c+0XSv+/Adkr7XnhcbvAT/OI2nKIOXOgaPt9bI1ZAUGy1jO8XLsTjOmYzQuiq4tXXgLlmNQR+GUeijq3dKuets34H9cMI8YRutRSBKXlloTFVrq2HpRCAICOzfL/FtouVGuHz9YWSqtEf2NieTbo7zIQyoULAa8QnWFZbJWvydARVzXkW1ES72gDIgJRUQ6jUJByQtIU7WnjYSGLRcINJ2HPv1OvkWKm7DiM21YkDwioEg0z66tfSEC+dwxHEYhpgOAzvEyWC89L0dfg8HqgQIj6/ZbTD9gnIktyLDD4dhjfg+UACI+EcgTAHALi0e7oQ3Desutw9PcYxmoCWjoXy5CoxKLc4LIDikIcKdWdpoLVfli+h6IaMlLXXGvWV4hp5el20w/b0w7CPTd8a4sZWBI0ABIHCseKVTEdAtLBjXWb2TjEyBo6GGJhEBTwikF5bLn1ftlDcz90h1NZ4bsyQoT5XxOyIQYgQoAIR4AFh9kBGoMzwbntRO7hjRQ85D9L9YhxqgBRm5sKyuGsLhBzDg+9uaXbIENiUNj1LCssvsFBGoR4ACQD0U/CMiEVDtAASAo3t0lDuGJ8txKR0dZ28XkePWgk7/AJfSx8DwP9teIAc0uiPP81uAJm91MgIUAJw8emy7+QiAIUTDqO3oHh3k2kHd5MSeidQQmI9y0EqshsZnzs5CeXZjtnyJ3A4VVTW/uusFrRWsiAjYEwEKAPYcF7bKLgiohgA0AnYDtyEk8G+QQpZkbwQ04c7l8zNl8R6o9HX8uMO394CxdSFDIDx8dEIGHysOewTUPgCv1cjX/s4WhHYl2R6BzcXlsnhvSa1bJJm/7ceLDQwdAhQAQoc9ayYCRIAIEAEiEDIEKACEDHpWTASIgAuBupMW10e+EwEiEAQEGAo4CCCzCiLQGIESBOvpieRGBcgP37oukt4Y2BmM6xwv4+GiOAxR9TR0bkcTIvk1rjvYn4tgeJdXWSPr9pXJUqjmf8FxygpENtxaXCFVGskQvz87tb9cM6h7sJvG+ohARCNAASCih5+dDyUCGge/APYFNbBUV2aor4+zkFRGSW0PNWaB8cLfCEjTCqll20VHSY+2MdIzPkZS8erTvvY9uW0b6YpMid3joo3QvPEIwZtgovCgAktxdY2U4T2nvFp2l1fKHrxnlVTKNry2Q5DJwmsH/tZra3RLj9DMBmn0QONV+7HBv2pjgba2jqAIgw36zw9EIIQIUAAIIfismgh4RQB8sTa2v/5RS/shDBRV6atcNiJinVcC401NiJX1p40yLRfAqXM3yLfwmxdoKwIibTYN8AKCihcRgVAhQBuAUCHPeomAVQhgN212zH5jh85dulUjxnKJQEgQoAAQEthZKREgAkSACBCB0CJAASC0+LN2IkAEiAARIAIhQYACQEhgZ6VEgAgQASJABEKLAAWA0OLP2okAESACRIAIhAQBCgAhgZ2VEgEiQASIABEILQIUAEKLP2snAkSACBABIhASBCgAhAR2VkoEiAARIAJEILQIUAAILf6snQgQASJABIhASBCgABAS2FkpESACRIAIEIHQIkABILT4s3YiQASIABEgAiFBgAJASGBnpU5EoKIGSW40OY8JVIVyqlzJckwor3ERlTUHxKwUu/uRmahSC7MqFDCKLkd7zaIKLcu84sxqFsshArZDgAKA7YaEDbIlAkhss3RvqewsrTKleYtySyS/otoapgpGnVNeJQv2FJvS1u3I8Lc8r9SatmoLkRFwzq5CU9qqhXyjZUFYIxEBIuAbAQoAvvHhr0SgHoGCsiq5eF4Gdu4t217uQjlXLMi0lEcp/7vyp82yG3W1hHTnf+G8TClE6l/5NTFhS4o8+F4IAJ9syZPH1u4++LcmfvPm5r3y3IZsI8VwE2/l5UQg4hCIklcWtmw1izjI2OGIRgCzpXNctHx+zCA5pEv7JkPxeuZeuQJCRGWT72zGDWhrDJjrC0f0lUv6dWlyAfNzi+W0bzZInlWaisYtgtRybM9E+eCogZIQaNrhujL0aGbm/M3yenoO0xA3xpWfiYAXBCgAeAGGXxMBnwhgZ9wxprXcNKyHXDu4myS3beP18g2F5fK31bvkpU25OJcHV7bqLN1bC1BnK9R52YCucuvwHjKkY5y3K40jjmewg3563W4pqqwx1PNeL7bqBwgCIzq3k3tGpcjpaZ0kDscvnqga/fp6Z6E8sGKHLMwuAuO3SkXhqXZ+RwScjwAFAOePIXsQagSUqeuxAHbbytz1zTgl0H/0t7rvQ91Mo35XW1UIQbvq2+r63k5t1QbXY9hKoiAHKIs3sDWMBoGtF+HA6Cv/IQJEwCcC0T5/5Y9EgAj4R0CZqdvu02BQepcyU8sOzv03y+MV3tra6HuP94biSzcMVUbB/7Vk4K34kogAEWguAp51a80tjfcRASJABIgAESACjkCAAoAjhomNJAJEgAgQASJgLgIUAMzFk6URASJABIgAEXAEAhQAHDFMbCQRIAJEgAgQAXMRoABgLp4sjQgQASJABIiAIxCgAOCIYWIjiQARIAJEgAiYiwAFAHPxZGlEgAgQASJABByBAAUARwwTG0kEiAARIAJEwFwEKACYiydLIwJEgAgQASLgCAQoADhimNhIIkAEiAARIALmIkABwFw8WRoRIAJEgAgQAUcgQAHAEcPERhIBIkAEiAARMBcBCgDm4snSiAARIAJEgAg4AgEKAI4YJjaSCBABIkAEiIC5CFAAMBdPlkYEiAARIAJEwBEIUABwxDCxkUSACBABIkAEzEWAAoC5eLI0IkAEiAARIAKOQCB6eGJbRzSUjSQCRIAIEAEiQATMQyDqAMi84lgSESACRIAIEAEi4AQEeATghFFiG4kAESACRIAImIwABQCTAWVxRIAIEAEiQAScgAAFACeMEttIBIgAESACRMBkBCgAmAwoiyMCRIAIEAEi4AQEKAA4YZTYRiJABIgAESACJiNAAcBkQFkcESACRIAIEAEnIEABwAmjxDYSASJABIgAETAZAQoAJgPK4ogAESACRIAIOAEBCgBOGCW2kQgQASJABIiAyQhQADAZUBZHBIgAESACRMAJCEQ7oZFsIxEgAoEhUFq9X7JKK2VtQZks3FMsGwvLpQTfFVfXiP5Wtf+AxLSKkrjWrYxXUkxr6ZsQJ/0TYmVQh9r3tPhYwSUkIkAEwhwBCgBhPsCBdC+rpFJGfrpa9pVUSEArv2aPiG4ly08dIaM7xQdShcdrbl2yTR5ftl2kTQCKqJoDMqFHB5l34jCJbSZ3Uub37tY8gxFG+WFwmiEjoU1rOatXJzTPz8UeeycGsx372WpZk1Ms0tpPGYopGvX19KFyLPoZKC3ZUyKPrtklX+3cJ/vKq4wytBzxU53X8rXjwMkg9LsfhIOp3RPk8oFdZXK3BK+3BeOHP63cIfct3Go8ew3q249P0VHy44nD0cb2DX5y4oec8moZ8clKyS0KcD4Gu5OYixN7JMiik0cEu2bWZzICFABMBtSJxV3182bZVwbmAYYXMIFJXD5/MxjyUGmL3WRz6M6RKfLWljzZqYKHP46Mpi3ZWyILcorkqOTAGaR7uz7Yli8Xfb8pMCFHbwQzfHPKQLmgb5J7MQH//W12oazHTlywy/ZL2J1fMKBLQMx/R2mVzJyfIXO2F9T2xYVdM8ehQdu0LDdhJbO4QjL3lUkZxjvUAkC0CmIQPKVxP/FVDNrcTDmtQfft8EFlN9XQGH11ja0dGuZqQ9QBiW08Bq7f+O4oBJq3cjuqi2ysLwSeXLdbZm/Nb7Do+7q+/jeststyi+Te5djBN5O6xEbL3SN7iGBHERCBST6fnhvQpY0v0hr+k57T+Gvfn8H0/rspF80LsH2NSns9Y6/U1Oj21A+h+LbA4o+jU31emF9ZI4fPWis931kqc3YV1jJCOzIIn73gj/4Q0KetQp+blrxcWhxvlenvLSi/0l/53url97ZCgBoAWw1HcBuzbG+p3KUq+OZK87jv8TW75YSURDmuCWpr915eObCb/HtDjqzOK/W/M8fu71PsercWV0rv9jHuxfj9e0FusczLLvKvaXAvCf37dnchztJL5PCuTVMt6875oywIVq0CkLGxEF89LFkG4wzeG6n246jZ63CWD8YQ6Hi51PnKUXBPOxy16HGG/qfHIZX79+OFH7VMJd16qkDheje+5D/BRqBbXLRknzeuRdU+gzn1u582HzynMNyt8QzMPWmoTAnxkU6LOsibTUGAAoApMDqvEF34r/gpU8qqag5eJNy7o8xDGYI3ApO5csFmWXrKcOmMXWxTSQ3S7sPOd8a36aJV+aNinHO/lJEr9/vZLTcu5/XMPVKpfQ2UedYVUIN7ntuY02QB4F0cbRTpsYqqrH0R8OvWPrZWE+Llut0o56RvNtQyf19jofcDREAq1wzuLrcOT5a+KLuptANGhJtw/rwCQtnXu/bJLxCe/FXb1Dp4vbUI+NNaVXMHb+0AOKR0P6uTQ3rBZjYZgbux81+Ohd3rwSkWiMEd4+T6od1rVYXeasCOcWthmfxu0daAGLinYs7tnSTTUjr+anzm6SLXd6hPDfnUqj1Q2gobg7c37/XeV18FgYG/jyMSLSNQKsOO/kUcHbifpXu9FzjfBIy7xrXxeslja3dJLrQefrkwyhrTuZ0UXzRBnjmkd7OYvzYiNT7GMPy7Ee369OhBsn3GOHnzyP5e28cfiAARcCYCTd+yObOfbLUbArN3FMgTYCr+dsN/gJHe+X06y9ewMN+oxmy6tfRE2FW/nbFHju/RUS6DIVtz6IExqYaKXlXTPhkd2rA2v0xm7dgnKjgEQu9szpMCGM753Y17KawEWofnNuTKQ+N6ermi4ddqkb9pXzn64QUv1+Xo6yB4Udw0NNn1zUHvupNbHsjxiHEntDrAv7lGmQdVzi8MBDbjOEe9LRbjGCYHz0JeZbUUwh6jGo9qBxyrJMZEG9qvoR3byhHwQhiIo5z4JmqaCDURCAUCFABCgXoI69xbUS1X/byl1rDNG4PCDvbYnolyYd/O2MRGySPj0uTsbzf63uHjut8v2SrTkhOatfM8EueRF6C+V9VQz9/iibPrVyBwnAMBwA+LlXL0xTD+c7Nsbwy/HkMoo/Vqi4h734AG4XYYLCYG4CnxGo4bDqCNfvuBxt85IkXa+TgmUHlINQoBEa79JKtArh/S3S8uAZUXgRepjcVreLb+AePY9HzYpSip4OttrtRe0fBfHTS8OrZtIzMhkN04JBnulE0/imlYKD8RAfMR4BGA+ZjausTrFm6RLASH8bWgtQZDeghMX5m/0pnwhT+rD3bbvhgRLlVXwitgD2Ds4puBwl2jUqS9qsLBjH0SBATdZa9RrYQf+hgMMcPHblx7+DrU28MTEc9AF25PBBy2FZXLm5k4RvBDq9Em1U74Nf5DXYdD6Lm4X2efJarR3liNteCtbe53AxfV1iS+ubRF3gvuRUbK32roOfjDlZLw2iLROZKuc0QFUX15Y/5eHhdDYMAc2gf7kSfXZUv/95dL29cXy9PrsyMFTvbTIQhQAHDIQJnRTN01/w+uaT53pmDyVw/qJhNxluxOD49NM3Y0PpkzFstvcbzw19U4XmgGDYHq9LrB3SBoeFtZfy20CirYF/y49Wkp/4EBn1cCUx2Pfp7dK0muRKAbf0z2VTUk9MOI39NAQwjk4m8LHgXGfs+o1ICCDF0Lg754WIb7VsHU9RISTSHsI1QQi355oUS/uliO+nK94T6pxn2khgjsgUZsNIJgHfrpKtkIIc/j3MCc6IRYDsfDTuXxCb3kE9hFfH/CUJl/0jCZdcxgeemIfoYgZxhc6vPRWIDFWJfj+xshWMS8tli+hJBGIgJ2QIBHAHYYhSC0IR2L202Lt2Jn6qMyLFwpiPz2x9EHn3XrueZdsAm404jEpvtmLwQh4IEVO7BYdpBJXZrmOqcl/h/c4V6FoLJbmZW3nZdeCLX8ezDOu3dUT5y/eg60Mx9Bg+bh5auci/p1MTZsauvwp5U7JafMS71YxBfBaPIb+N+fmAqDRQ+k6uOXAzH+A0M5A8cd072U07jo4Ylt5f2pA+VkeAIEeBhQWwTGogZSw3cISKQvgzEpg0JfhkHjcWpaonGMMjYpvl7b07jucP78Mdw0z56bLjX6OOtO350AE4ILypOH9KkVSt1/8/D3zP6/2r6oy+YMBJzKVC0CsK4nPM9VmGPT4c75WxhYPn9Y3/qf+AcRCAUCjZ76UDSBdVqNgK756qq3z9iZui1IjSvGdfdCDa9+yJ7oJpxlDusCzYAW6IOqweAuR32Gz7qP6zz91B1HAHeOQHAgP3UoU98B46z/bdnjqRjjuzegsjdc/zx1GQtxj3YxckmdCr4L+nyFagF8aB8OoF/PQ+vgrfefgKFs1fCtvgQXtCwGu8k/YvfvqVneOqPCQta5Y3FU0db3UYy3AvR7bZcyOryvRXQ/1dRM/HyNoSmIemmhDPhghfxhWZZsQ2jocKefkSfhPDBpg/k37izG+TjgXX7JxICYf+PbJ0CrlHHWaHkCwoPH5xjHAy/gOKAlQbQa18nPRKA5CFAAaA5qDrtHY8V/b5xL+2A5WPQmI8Tu5QPABL1QHHbdj47vhU2Nj3L0Xux61mAXdBti/TeH9AhiSJJ/QUPLfgMW/p7U8lsgHLy9xYfrHxi97vrdYxdcil2cTxsEMM/PEYhIE+00JtX6qvGfV+nAdQO0BJf17yqjsetuKqXAqGz1aSMl/ZyxtYGXMGZ+6wukEhUKMLYZwOwhCAW93/tFov77s4yBalw1HuFGRVX75ZIfM6VS8WtMEDyPgDeLqvZdNjCNLwn0s7p3PowjA49CJTD/CzROs3VekohAiBCgABAi4INV7c9QW9+v4Xp1kfdBrfD7I3BzU4t4X3Qydkbn94fhmqfF0/1GlPfvDdmiatamksZBf2B0iv8dMtq6AOGINetdY/ofzuIN1z8vwkocghZdrfYGbqSR+M5TY0cf2odK2B78C/1qTEvzSoyogQ1Uvo0vgpCQCB97da9sCQ2ARflXxw2RA5cdKksQgEm9IVRdbYyJSiItJcUMu9QVsII/9qt1EgVbgnuW7wAfM6HslrbNhPvfgtZoEzQgB2lq0L026PdfDQNYEypCETdDCBivCYo8PFOqUXpm48HPkjk1sxQi4B8B31zB//28wsYIaPpXVcVX4N0nN8VCdBl2/kcEGBr0z2N6Sqe2CMUbAEO4Fi6H2RoRr4l0LnbnR2In5mnhdC/qAHZz/22UH6AU/fnPRh+BePD7KXBz1PS3jUmPAWLU1c8br4Nw8g6i/GnGNnf6H76rqEBwIl/yE1wDb4CLXhqOHswiNWJ8d+oAqbpkkiEQrDtjtHGMY3g1aCXoqz8MfbZFhQEIWn+BXUfXt5fVxiTweYP9f/wMniEen108z+rLf0jXhgawLemRCrMnaJArT3MFuM7PLhYNG00iAqFAgAJAKFAPUp23Lt0m67Az9b0rPSDJCBerqv1ASa2dVVvgl7GAeezC4nY1hACwoSaR8tH7oQWIhmraKzPWErHAfrCtQLa7Wbh/arj+edjh1bUgCvdcOairR159GGL+G9kG1Y/fE6E5e1GXJglykcZWUA8LVaN7JTCAPoiseAuMHK2kIajjQQhoq08bIQd+UysU7EBc+Vcn95OTUxOlPXa4zdIUoGuajOjI2Wtlne6eHUoaU2GnCqSeNEMYI9UCRXv6rQX9NXI8eNSsRUlJTY3s0iBVJCIQAgQ8W3uFoCGs0lwENBHNv9XvGMzOJ2Gx240FqPObi31edtCPukj6K1tvwjUfQx2vavPfwZ2tKaSMWDUBbxmW9V76gWYUllcaDNilWveZ9Q+q2EO7d5BpeHkiZeHqdqdxBrwpAZR5qKfCjdjNx4Oh6jFHjoYK9oUHCrtteIp0DCQ1sKeGteC7lPg2MHbsYrxcxahLoOY4eAp+6vsgOr38cgAACJFJREFUwPgUEl03AZxiXPtnnF1r7ATFymmkgaH2Ipqft8Z3akY+C38YGGV6EioAYCW0c3srKAD4w5C/W4OAl1XVmspYanAQ2AmGrqp3rwyscTN0JVfm1ZSXxx1N44LrPuPaO5ZmGZbnXq7w+vXdOC9vp4uyJxWq6y4srqqCr8Y1mvXvRz9Z/34DGwZftg5q5zDGlxEi+rOuoLTevuFl3f17WuBd7YPQMQ4ukVf4MLB0XRqsd433r5qCggvGy9fwaW/nS3hxbxT6PheGgcWaWMmB1C66taS0Q1Q+L5MjW4UDkylXy/T0/KIN8ThuSsFYkIhAKBCgABAK1C2u87pFW2S3niv6YkoWt6Fx8aVQH2twGiPPeeMffXweAbe3awZBc+DDPU93rythsKYBVt5CyN4qZU6etqdYhHtDxavW/74oGuVdrwaCnhZt141g6q/DzfB7CBsLNamSL6zx2x/gXhnr64jAVW4I3o9FKufb1PVSbUX8UpRUoO+ePC/83mqDC1TwS1OGiz4cRPhtObxXSgLC4aC7vX6xGFEGPT+/BxAGurX0pADgFTv+YC0CFACsxTfopT+LPOAfa+a7QHZ0ylTVSKylL1+M0oUAFtefdxfK/TAmayrdgrS2mjLXH0O+CxkO39S+t/LyWGPRvwBW/okBqOHPxXVpaiTorW/Ady76cwOELcOdzJPAoR0FtidAo3BGWqemdjuo1wfs8gY8hsLOoEMAORGC2oEmVKbunlFqC9GYIKhtg+Cs4ZTNIrUPmYXomB7tQ/A8akKrZLh3kohAKBCgDUAoULeoTo1Dr6p2v+e54PsdET1v1akjTbFI/8Mv2+UhvPxm2wPTfBR+5hpS1TC0CxCHHlgg78AO9RYca9T6u3m4EQLGKlfyFi/MOF5d/xBjIBBSBnctrr178Tavdep58ipkJvS1+4/GDu+Po1P9DomvNqn7XcAM2ldBXn5Tl8kHVwQwfno/2nIJGKjmKHAqHQONh+ZhmI+jjMaMWfUC10Oom9I9QZJMsAf4P8TC2OrKK+AOGCqKQxZBIwS1+/f8mwgEEQEPYnAQa2dVpiGg59+qYi9CqlJfDMmoEBbud8AgzSx3tLuQJW+ABrbxpFZt1MP9aOeVYOT7cCTQFLoGzHhggHV4LBdq3bOQ1KiPahICpIvB6NRv36sWwF85qPNCRBpUz4KW0BcIFhP10s/Gq9Wri2TgRytl+pwNcguYyxsIPrQUauutMEIsDPBcvgjXaYjkmfMzJRax6Wd8m44QtQG0EALPsT07OZ5p6THAB9MGSKpm6MPz2ICgBdiJSIjDPl4lGRrVsZmkxZ7xXbq8qrkoPGjjonDBK5P7wtak6QGhmtkk3kYEDkKAGoCDIHHmF/ev2CmLoJL2uwsHkx4Ng7Qbhwa2Ew4EjfbY5T4ON8Iz5vpJGayFYYHNwE5d8xK8jCQqgZJa2z+AnfRFCN/aaMkOqAhV+V4V4O7fVaCeFf8GDPwpTW5kRNpx/RLAOxqpCXzubWHQH63J2GzXMRHt+ybsKPXVIKmMchz9sTFD0wIaE8aggUoikN08mP/l8I548fC+jUtz5OduCDn94/ShMvXLdZKljN4dA+CjxoADEBFxKrRVf5/YW8YFyKhV5f/Qqp3yjzW7a59Tb8x/Sn85r7dvWxRHAstGOwoBCgCOGi7Pjf0WjP+vq3C27mGxOegOLG6a6leNj8yk05BY5ty+Scg2qP7wfhRL+P0VBO85DovrRUiKEyjNgPHeP+FOuGB3UcMF218BYF5T4QN/WDOSE2mApOfR1jI1DGuK1htalmsGQTPiIdiQv+Y263dl6kb7mtLIAGoCdn3Qh3enDRSNcR9OpPEstp09BnYcW+WfhpDX6LnFc6pGnuORKVC1W60xZ4bBKLU7BDsNIa1GnXvKayQPWrf1SDld4EokpcKEp2EAlsPgXfLdCUOkq6a9JhGBECNAASDEA9DS6lWV/tufNku1GvS572I8FYwF6Fz4g3vLZufplqZ89wgEi69xrppv+Fl7WgHdSgPDuhELr561GlbZbj95+1O7dz+S6JyYswFZ7ppAuFGztal1f1NJVbSaNS8gwcZVOHbh3cFc7lLLehPIOFnRf5rR/mZVb1QochqOTB5FLHsjkE2zCnLGTU9P6m2k+b3nlyz52ypoe5TcsVbhCsxebTHUzgTigGfyJPiqVgbz7khkx3x1cv8mHUF5roTfEgHzEKAAYB6WISnpGpynZ6qbkVo1+3KVw0IUC+v3hxHBr+lsMLCu6Y5Ks9zdPD/DvxYAReZBjX3xjxkyB3HtAzUqU63B6b2S5ANk5fN73KHNBjPrjV3bmWBmzSUND/w/TfQTqBYA46AR/zTDoBl0KsIWF1w4wTi3fxcGe5rmeEtxpVRX14lByqCU6rUAtR99/quMyTg20D8wXNjdTkKmR/WSOAOW6YEKZcbNQfqnWgUTMNODCF9X4qmuk1sO+jmQL9QuQKNh6ms3IgX+G2f3L+ClGScNcmHrwrpxoY3wbAcDPxUcb4UQOF5jSgSZ1CbIwOpAo9muX+M7tcUhEQHYovBJ4GNABJyMgO5MNTdBDjQvmndBX8VglBqsR33aq8AZNQRwRzClJAiBHfDStMsqsJlh6e5k7AJtu+KoGSbVgFLTXOfhrF9x7QRvGvUYMQIMIeKi4koiAk5BgAKAU0aK7SQCRIAIEAEiYCICjaxeTCyZRREBIkAEiAARIAK2RYACgG2Hhg0jAkSACBABImAdAhQArMOWJRMBIkAEiAARsC0CFABsOzRsGBEgAkSACBAB6xCgAGAdtiyZCBABIkAEiIBtEaAAYNuhYcOIABEgAkSACFiHAAUA67BlyUSACBABIkAEbIsABQDbDg0bRgSIABEgAkTAOgQoAFiHLUsmAkSACBABImBbBCgA2HZo2DAiQASIABEgAtYh8P/R0ELHuTFoNgAAAABJRU5ErkJggg==;" vertex="1" parent="1">
          <mxGeometry x="890" y="405" width="172" height="172" as="geometry" />
        </mxCell>
        <mxCell id="o3sZ8iPzQSWBcQItjnmb-12" style="edgeStyle=orthogonalEdgeStyle;rounded=0;orthogonalLoop=1;jettySize=auto;html=1;" edge="1" parent="1" source="o3sZ8iPzQSWBcQItjnmb-8" target="o3sZ8iPzQSWBcQItjnmb-7">
          <mxGeometry relative="1" as="geometry">
            <Array as="points">
              <mxPoint x="1095" y="250" />
              <mxPoint x="976" y="250" />
            </Array>
          </mxGeometry>
        </mxCell>
        <mxCell id="o3sZ8iPzQSWBcQItjnmb-8" value="" style="sketch=0;outlineConnect=0;fontColor=#232F3E;gradientColor=none;fillColor=#3F8624;strokeColor=none;dashed=0;verticalLabelPosition=bottom;verticalAlign=top;align=center;html=1;fontSize=12;fontStyle=0;aspect=fixed;pointerEvents=1;shape=mxgraph.aws4.sensor;" vertex="1" parent="1">
          <mxGeometry x="1040" y="90" width="110.77" height="120" as="geometry" />
        </mxCell>
        <mxCell id="o3sZ8iPzQSWBcQItjnmb-10" style="edgeStyle=orthogonalEdgeStyle;rounded=0;orthogonalLoop=1;jettySize=auto;html=1;" edge="1" parent="1" source="o3sZ8iPzQSWBcQItjnmb-9" target="o3sZ8iPzQSWBcQItjnmb-7">
          <mxGeometry relative="1" as="geometry">
            <Array as="points">
              <mxPoint x="465" y="210" />
              <mxPoint x="976" y="210" />
            </Array>
          </mxGeometry>
        </mxCell>
        <mxCell id="o3sZ8iPzQSWBcQItjnmb-9" value="" style="sketch=0;outlineConnect=0;fontColor=#232F3E;gradientColor=none;fillColor=#3F8624;strokeColor=none;dashed=0;verticalLabelPosition=bottom;verticalAlign=top;align=center;html=1;fontSize=12;fontStyle=0;aspect=fixed;pointerEvents=1;shape=mxgraph.aws4.sensor;" vertex="1" parent="1">
          <mxGeometry x="410" y="40" width="110.77" height="120" as="geometry" />
        </mxCell>
        <mxCell id="o3sZ8iPzQSWBcQItjnmb-15" value="" style="shape=image;verticalLabelPosition=bottom;labelBackgroundColor=default;verticalAlign=top;aspect=fixed;imageAspect=0;image=data:image/png,/9j/4AAQSkZJRgABAQAAAQABAAD/2wBDAAYEBAUEBAYFBQUGBgYHCQ4JCQgICRINDQoOFRIWFhUSFBQXGiEcFxgfGRQUHScdHyIjJSUlFhwpLCgkKyEkJST/2wBDAQYGBgkICREJCREkGBQYJCQkJCQkJCQkJCQkJCQkJCQkJCQkJCQkJCQkJCQkJCQkJCQkJCQkJCQkJCQkJCQkJCT/wAARCAFuAooDASIAAhEBAxEB/8QAHQABAAICAwEBAAAAAAAAAAAAAAcIBQYDBAkCAf/EAFEQAAEDAgIECgYFBwkIAwEBAAABAgMEBQYRBwgSIRMiMUFRYXGBkaEUFUJisdEWMnKiwSMzQ1KCkrI3REVTY3SUwuEXJFRVVnOD8DWT0oSz/8QAGwEBAAMBAQEBAAAAAAAAAAAAAAIDBAEFBgf/xAA4EQACAgEBBAgFAwQCAgMAAAAAAQIDEQQFBiExEhMyQVFhkdEicYGh4TNCsRRSwfAjQxZTFYLx/9oADAMBAAIRAxEAPwC1IAAAAAAAAAAAAPx72xsc97ka1qZqqrkiIRhjXWIwXhJ0lPBVOvFazNOBo8lai9b+RO7M6k3yONpcyUDhqqymoYlmqqiKCNOV8j0aid6lSMVa0GMr0r47S2mstOu5OCbwkuX2nbvBEIvu+JLzf5lmu10ra567855nP8lXcWql95W7V3F0r1py0fWJXNqMR000jeVlKizL91FTzNLuOtlhGnVUorZdqzLkcrGRovi7PyKoAmqY95W7WWRqNb+NFX0bCblT+0q8vg06btb+4Z8XClKiddW7/wDJXoEuqj4HOskWIi1v6rP8rhKFfs1i/wD5MrRa3tpeqJW4ZrYk51hna/4ohWIDqojrJFx7PrNaPrmqNqKystzl/wCJp1y8W5kg2PF1gxJHwlnvFFXJ0Qyo5U7U5UPPc5aaqqKKZs9NPLBK1c2vjcrXJ2KhF0ruJK1956MgpzgfWRxfhd8cFzlS+UKblZUL+VanU/l8cyy2j/SphvSJScJaqrYq2JnLRzcWWPu5060KZVuJbGakbgACBMAAAAj7TxiS54X0bXGutMr4Kpzo4UmZ9aNrnZKqdC5bs+spo/E99kcrn3q5Ocq5qq1L9/mWQr6SyVzs6LwehgPPL6SXv/nNx/xL/mExLfEXNLzck/8A6X/Mn1HmR67yPQ0FK9Gmm7EmEL5Ten3SruFpe9GVEFRIsmyxV3uaq70VOUujTzx1MEc8TkfHI1HtcnIqKmaKVzg4k4TUj7ABAmAAAAAAACBdYvTHdMKVcOGcO1PotW+JJqqpYiK+Nq/Va3oVd659h2MXJ4RyTSWWT0Dz3qcX4jrJVlqL9dJXrvVzqp6r8Ti+kl7/AOc3H/Ev+Zd1PmVdd5HoaDzzTE18auaXm5Iv95f8yQtFWnLEWFr/AElPdrnU3CzzSNjnjqXq9YkVcttqrvTLo5DjpeOB1WrvLlA/GPbIxHtVFaqZoqc6H6UloAAAAAAAAABEesFpXqsAWimt9mkay73DNWyKiKsEacrsl51XcneVXrsa4muUzp6vEF0mkcuaq6pf8yyFTkslcrEng9BAeeX0kvf/ADm4/wCJf8x9JL3/AM5uP+Jf8yfUeZHrvI9DQVZ1Yca3+pxpLY6q41VXQT0r5VjnkV6RuaqZOTPk5cu8tMVSj0XgsjLpLIABEkADUsfaUcOaO6PhbvVotS5M4qSLjSy9icyda7glnkcbwbaYLEOO8M4VYrr1e6KiVPYfIm2vY1N6+BVbHWsfi3FT5Ke2S+pKB25GUy/lXJ7z+XwyIqnnlqZXSzyvlkcubnvcrlVetVLo0vvKnb4FtL1rVYKoHOZb6a5XNycjmRpGxe9y5+RqVbrfzqqpQ4UiROZZqpV8kaV1BYqoordsiel1u8Q5rlhy1Zdcki/ifset5f0d+Uw3bHJ7sr0/FSBAd6uPgOsl4lkrfrfQqqJccKvanO6nqkXyVqfE220a0eAq9UbVuuNucv8AXQbTU72KpUAHOqidVsi/lh0iYSxMieqb/b6ly/o0lRr/AN1cl8jYkXPkPOJrnMVFa5WqnIqKblhbTFjbCTmJQXypkgb/ADepXhY1Toydyd2RB0+BNXeJesEH6OtZ60Ygmit2J4GWiseqNbUNXOnevWq72d+adZN7HtkY17HI5rkzRUXNFQpcWuZapJ8j9ABw6AAAAAAAAAAAAAAAAAAD4mmZTwvmkcjWRtVzlXmROU+zE4ucrMKXpyLkqUM6p/8AW4AqBpV0133HtxqKanqpaKyNerYqWJ2zwjUX60ip9ZV6ORCNgDckksIxt54sAA6cAB2KW3VtauzS0dROvRFG53wQA64M9DgHFtQ3aiw1eHp0pRyfI/ZNH2L4UzkwxeWonTRyfI5lDDMADuVdmudAqpV2+rp8v62Fzfih0wAADoB2rVdq6yV8NwttVLS1cDtqOWJ2TmqdUAFydCOmmDSJRLbbmsdPfqZmb2JubUNT22p09KEqnnfYr3XYcu9LdrbM6GrpZEkjenSnMvUvIqF7NHmNKTHuFaK+UuTVlbszRIv5qVPrN8fLIy2Q6PFGiueeDNkABUWmsaTsPfSnAV8tLW7Uk1K50Sf2jeM3zRChCoqKqKioqbslPR5UzTJSh+lrDX0U0hXu2NZsQpULNCnNwb+M3wzy7i+l80UXLvNRABoKQXb0BYhXEOjC0ySP25qRq0kiqu/Ni5J93ZKSFktUS/5wX2wPfva5lXG3qXiu+DSq1ZiWVPDLGAAymkAAAAAALuRShelS+riPSFfrjt7bHVT4419xnFb5IXaxtem4dwleLsq5LS0kkjftI1cvPI8/HvdI9z3Lm5yqqqvOpfSubKLn3H4ADQUgAAF8NEl9+kWjmw3BztqRaVsUi++ziL5tNuIO1Tr76bg24Wh7s30FXttToZImfxRxOJiksNo1weUAARJAAAAA6d5uUVntFbcZlRI6WB8zlXoa1V/AApprBYhW/wClC67L9qGhVtHHv3JsJxvvK4jg7FyrpbncKqunVXS1Mr5nqvOrlVV+J1zdFYWDG3l5AAOnCw2qPht0lfesRyN4kUbaOJelzlRzvBEb4lmCP9BGGPoxo0tML2bM9Wz0yXdvzfvT7uyhIBjm8yZrgsRABH+mfSZFo4wu+eFzH3Wrzio4l5nZb3qnQ345IRSy8I63hZMDpr06U+Aon2ayrHVX2Ru9V3spUXnd0u6E8eupV2u9ffK+a4XOrlq6uZ20+WV2aqv/ALzHFW1tTcauasrJnz1E71kkkeubnuXlVThNcIKKMspuQABMiADK2vCd/vWXq2y3GsReeGnc5PFEOAxQN3ptCekOqTOPCteie+jWfFTmdoI0jtTNcL1S9kka/wCY50l4nei/A0IG3VeiLHtEirNhS65JzshV/wDDma7XWW52xytrrfV0rk5poXM+KHU0zmGdMAHQC1mqvjOtveHK+w10zpltTmLA9y5qkT8+Ln0IrVy6lKplhtUD/wCSxL/2YP4nFdq+EnW/iLMAAyGoAAAAAAAAAAAAAAAAAAGJxeiuwpemoiqq0M6Iif8AbcZY+ZYmTRvikajmPRWuReRUXmAPOM+o4nzPbHGxz3uXJGtTNVXsLWyap2FJbrLVLdLmyje9XJSsVibKZ/V2ss8vMkfCWjHCeCmJ6ls9PDLlktQ9NuVf2nb/AANLuXcZ1U+8qfhTQBjvFKMlba/VtM7fw1cvB7ulG/WXwJaw3qk2em2ZMQXqqrX88VK1ImeK5qvkT9kCp2yZYqkjTLFobwJh5G+h4boXPb+kqGcM7xfmbdT0dNSMRlPTxQsTkbGxGp5HKCDbfMmklyAyAOHT4lgimarJY2SNXlRzUVFNQxHoewPihj/T8P0jJXfpqZvAyJ15ty8zcgdTa5HGkyqWknVjueHoJrnhaeS60caK59K9Py7E6stz/Je0g5zVa5WuRUVFyVF5UPR7LMrBrOaLYbTOzGVogSOnqZEjro2JkjZF5JMubPkXry6S+uzPBlM68cUQAAC8pBOeqrjR1sxPVYZqJMqa5MWWFFXckzEz3drc/BCDDKYUvcuHMSWy8RKqPo6mObdzojt6d6Zp3kZLKwdi8PJ6FA46adlTTxzxLtMkaj2r0oqZochiNgKy62+GuBuVmxHEzdPG6kmcie01dpufcrvAs0R5p8wz9JdGV1Yxm1PRNSsi3b82b1+7tE63iRCazEpIADYZQSVq7X/1HpRtrXv2Yq9H0j+vaTNv3kaRqdu0XGW0XWjuMKqktLOyZqp0tci/gRksrB2Lw8nomDrWuuiuVtpa6FUdFUwsmYqc6OTNPidkxGwAAAAAAiPWevvqvRpJRsflJcamODLpamb3fwp4lPSf9bi+8PfLLZGO4tNA+penvPXJPJi+JABqqWImWx5kAD9Rjlar0aqtbkirluTMtIH4AACatVK+pb8d1dre7JlwpHbKdL2LtJ5bRbQoRoxvi4dx9YrltbLI6tjXr7jl2XeSqX3TemZluXHJopfDAABUWgAAAjLWLxB6i0X3FjH7MtwcyjZ0qjlzd91qkmladbrEHCVljsDH7omPq5W9arst+DvEnWsyITeIsruADYZQZzA2H34qxdabKxFVKupYx+XMzPNy+CKYMnHVQwz6wxdXX6RmcVtg4Niqn6STd/CjvEjJ4TZ2Ky8FqoIWU8McMbUayNqNaicyJuQ+wDEbAqo1FVdyIUc01Y4kxzjuuqmSK6hpHLS0jc92w1VRXftLmvgW60o312G9H99ucbtmWKke2Neh7k2W+aoUKVc1zUvpjzZTa+4AA0FAN30YaJr1pMuDo6PKlt8ColRWyJm1nutT2ndXiahbaCa6XCmoKdu1NUythjTpc5ck+JfrBOE6LBWGqGyUMbWsp40R7kTfI/2nL1qpVZPorgTrh0uZrWDNBeCsHRRuitkdwrG5Z1VaiSOVelEXc3uQ3+OJkTUZGxrGpuRGpkiH0DM23zNKSXIAA4dBxVFLBVRrHUQxTMXcrZGo5F7lOUAGi4i0IYCxIj1qrBT08rv01J+RcnXxdy96EP4w1TKynbJUYUuzapqb0pazJr+xHpuXvRCzQJxnJEXBM8+MQ4Rv2Fal1NerVV0MiLkiyRrsu7Hci9yk/wCqNYq2npr7eZoXx0tSsUELnJkkit2lcqdKJmhYSemhqWLHPDHKxeVr2o5PBT6iijhYkcTGsY1Mka1MkTuJStysEI14eT6ABUWgAAAAAAAAAAAAAAAAAAAAAAAAAAAAAAAAAAAAwmNsOw4rwpdLLM1HJV07mNz9l+WbV7lyUzYAPOSeF9PNJDImy+NyscnQqLkp8G06VLalp0i4io2t2WsrpHNTqcu0nxNWNyeVkxNYAAOgvjokui3jRth2sc7ac6ijY5etibK/wm2kY6ttStToltaKufBSzx+Eir+JJxhkuLNkeQOOqp46umlp5Wo6OVisc1edFTJUOQHDp58YwsMmGcU3WzSIqLR1L4kz52oq7K96ZKYgmnWpwz6rxxTXmNmUV0p0Vyp/WM4q+WyQsbYvKyY5LDwAASOF2NX2/wDr7Rdalc/alokdRv6theL91WkjFcdUTEHEv1ge7kWOsiT7rv8AIWOMU1iTNcHmIABEkBzA6V7uUdms9dcplRI6SCSZyr0Naq/gAUq05331/pQvk6O2o6eVKWPsjTZXzRTQzmraqSurJ6uZVdJPI6V69KqqqvxOE3JYWDG3l5BKmCcCrd9C+Mr2sW1LFLE6FcuRIuM/LuevgRWXU0PYRip9DNBaahiJ6ypJJZkVOXhs1/hVCFksIlXHLKVg7FyoZLbcKqhmRUkppXxOTraqovwOuWED9a5WORzVyVFzRT0AwHe0xFg2zXbazWppI3uX3tlEd55nn8W/1XL7600bpQOdnJbaqSHLoa7jp/EvgU3LhktpfHBL4AMxoAAABR/Tvf8A6Q6UL1M1+1FTSJSR9GUaZL97aLn4iusdisNxukq5Mo6eSdf2Wqv4HnvWVUlbVz1UzldLNI6R6rzuVVVS+lcWym58MHEADQUAuVq2YZ9QaNaapkZsz3SR1W7NN+yu5nkmfeVDsNpmv16oLVToqy1k7IG5dLnZHoNarfDarZS0FO1Gw00LIWInMjUyT4FFz4YLaVxydoAGc0EW6y07odE9wRqqnCzwMXs20X8CmZdDWRpHVWie6K1M+BkhlXsSRE/EpeaaeyZreYABcVm46HIY59J+GmSoit9NY7f0pmqeaIXtPPXCl7dhzEtrvDUVVoqmOZUTnRHIqp4ZnoFbbhT3Wgp6+kkbLT1EbZY3tXc5qpmima5cS+l8GdgAFJcAAAAAAAAAAAAAAAAAAAAAAAAAAAAAAAAAAAAAAAAAAABmgAAzTpG0i84AA5QAAAAUk1gYki0s31ETLadE7xjaR4SRrEfytXr/AMP/APk0jc2w7KMcubAAJHC4mq8ueiuFOisn+KEtES6r38lkP99n+KEtGKfaZrh2UAARJEQ6z2GvXWjt1xjZtTWqZs+aJv2F4rvii9xT89DsQ2iG/WK4WqdM4qynfC79pFTM8+bjQzWy4VNDUNVs1NK6F6LzOaqovwNFL4YM9q45OuAC8qJI1er/AOotKVr237MVdtUb/wBpOL95Gl1kPOu1V8tqudJcIVVJaWZkzFTpa5FT4HoVaq+K6Wykr4VRYqmFkzFTocmafEzXLjkvpfBo7QAKS4Ea6xF89SaLbojXbMlarKRnXtLxvuo4korlrd33KOw2Jj+V0lXI3s4rfi4nWsyRCbxFlbgAbDKdyy22S8XehtsKKslXPHA3tc5E/E9C6Cjjt9DT0cSI2OCNsTETmRqZJ8CmOrxYvXelK1q5u1HQo+sfu5NlOL95Wl1TNc+OC+lcMlItPdi9Q6UbzG1uzHVObVs60ema/e2iPiw2t1YuDuFivrG7pY30kjutq7Tfi7wK8l1bzFFU1hsE+ao999HxDebK9+TaqmbUMT3mOyXyf5EBm8aEr79H9J1iqXP2Y5p/RpOyRFb8VQTWYsQeGXmABjNYAABFWsriD1Loyq6Zj9mW5SspW9OzntO8m5d5TYsBrb4g4e82awsdupoXVMie89cm+TV8Sv5qqWImax5kAAWlZLurDhn11pES4yM2oLVA6fNU3cI7it+Kr3FwSF9VfDPqrAs94lZlNdahXNVU38Gzit89pSaDJY8yNVaxEAArJmDxxYUxNhG72fLN1XSyRs+1kuz55Hn/ADRPglfDK1WyRuVrmryoqLkqHo4U11isBvwljma4QRZW+7qtREqJubJ7bfHf+0XUvjgptj3kVgA0lAJu0F6eG4OjZhzEb3vtCu/IVCb1pVVd6KnOz4EIgjKKawzsZNPKPRW3XKiu1HHW0FVDVU0qbTJYnI5rk7UOyUFwdpFxNgSp4Wx3OWBirm+ndxon9rV3d/KTzg/WyttS1lPiq1y0cnItTSflI161au9O7Mzyqa5F8bU+ZYEGAw5j7DGLI0fZb3RVblTPg2yIkidrV3p4GfKsFuQAAAAAAAAAAAAAAAAAAAAAAAAAAAAAAAAADrXG5Udoopq6vqYqamgar5JZHbLWp1qVo0n6ztbcHzWvBe1SUu9rrg9Pykn2EX6qda7+wlGLlyIyko8yfcWaRcL4JhWS+Xenpn5ZtgRdqV3YxN5DOJdbimjc+LDlhfNluSetfsovXsN3+aFb6usqa+ofU1dRLUTyLm+SVyuc5etVOIvjSlzKHa3yJQu+slpEubncFc4LexeRtLTtTLvdmvmavWaUscV6qtRiu8Oz/VqXNTwRUNXBYopdxDpPxMw7GeJnrm7EN3Veusk+ZyQ47xXAucWJbyzsrJPmYMHcI5lm40WmPSBQKnA4sui5c0kvCJ4OzNit2svpFoVThbhSVrU5qimbv725KRYDnRXgdUmu8sHaNbu5R5Nu+G6WdOd9LM6NfB2fxN5sutLga47La5lwtb15Vmi22p3sVfgVDBB1RZJWSRvOmy+23Emke6XS01TKujnSJY5WZ5Oyjai8vWhowBYlhYIN5eQADoLiar38lkP99n+KEtES6r38lkP99n+KEtGKfaZrh2UAARJAphrG4a+j+kytmjZswXJjaxmSbs13O+8ir3lzyBtbPDXpmGrZf4mZvoJ1gkVE/Rycn3mp4llTxIrsWYlWgAazMC62r1f1v2i617b9qWh2qN/VsLxfuq0pSWN1RL/k6+2B7uXg6yJPuu/ylVqzEsqeJFkQAZTSCl+sdffXWlG4RtdtR0EcdI3qVEzd95yly6qoZSUs1RKqNjiY57lXmREzU89sQ3V97vtxukiqr6upkmXP3nKpdSuOSm18MGPABpKCxuqHYs33++vbyJHRxu+87/KWRIy1crD6l0XW6RzdmWvc+rf1o5cm/dahJpjm8yZqrWIkV6yth9caMKyoa3alt0sdU3pyz2XeTl8Cmp6F4ns7L/h252qREVtZTSQ/vNVEPPeogfTTyQSIrXxuVjkXmVFyUtpfBoqtXHJ8HLSVMlHVQ1MTtmSF7ZGr0Ki5p8DiBeVHofh+6x3ux0F0iXNlXTxzp+01F/E75GWrlffXOi23RuftS0L30jupGrm37rkJNMLWHg2ReVkAGJxbeWYewzdbs9URKOlkm39KNXJPHI4dKXaar/8ASLSZfKtr9uKKf0aNfdj4vxRV7zSD7nmfUTSTSOVz5HK9yrzqq5qfBuSwsGJvLyDlo6WWuq4aWBqvlnkbGxqc7lXJE8ziJJ1esM/SPSbbnSM2qe3o6tk3bs2/V+8rQ3hZOpZeC4GFLHFhvDdss8KIjKOmjh3c6om9e9c1MqAYTYAAADVNJuAaPSJhWps9RssnT8pSzqm+KVEXJexeRepTawdTxxONZPO++2Ovw5dqm03OndT1dM9WSMd8U6UXlRTol2NLuhu26SqHh41ZR3mBuUFUibnp+o/pTr5UKf4qwhesGXSS2XuhkpZ2rxVVOLIn6zXcioaoTUjNODiYcAFhAAAA+opZIZEkie6N7VzRzVyVO83zDGnXHuF9iOC9y1lO39BWpwzcujNeMncpoIONJ8wm1yLNYX1t6CbZixLY5qZ3Is9E7bb27DslTxUlrDOlLB2LUalpv1HJK79DI/g5P3XZKULDXK1Uc1VRU5FQqdKfIsVrXM9HkVF5AUbwhpsxtg1zGUl3kqqVv81rM5WZdCZ707lJ/wBH+szhzEr46K+x+pK52SI97s4Hr1O9nv8AEqlU0WxsTJlB8xSsmjbJG9r2OTNHNXNFTtPorLAAAAAAAAAAAAAAAAAAAAAAda53Oks9BUXCvqGU9LTsWSWR65I1qc52Sr2s9pNkuFy+hltmVKWkVH1rmr+ck5UZ2N5e1eolCPSeCMpdFZNK0xaY7hpHub6amfJTWKB68BT55LL77+lehOYjcA2JJLCMjeeLAAOgAk/R1q/Ynx1HHXTtS02t+SpUVDV25E6WM5VTrXJCdcOasuBLMxjq6Cpu8ycrqmRUaq9TW5J45lcrIonGtsp2C/lBo5wdbGolJhi0RZcipSsVfFUMm3D9nYmTbVQNToSnZ8iHX+RPqfM88AehcuFrDOipLZLZIi/rUzF/AxVZotwPXoqVGFLO7PnSma1fFEQK9eA6l+JQkF0rlq5aObjns2aSjcvtU1Q9uXcqqnkaZedUWzzI51nxDWUzuZlTE2VPFNlSSuiyLqkVgBsekHBFXo+xLNYa2phqZYmMk4WFFRqo5M05ec1wsTzxK2sAAHQXE1Xv5LIf77P8UJaIl1Xv5LIf77P8UJaMU+0zXDsoAAiSBrmkbDjcV4IvNnVqOfUUzuC6pE4zPvIhsYVM0yCeAecTmuY5WuRUc1clReZT8N00y4a+i2ke9ULGbEEky1MPRsScZMuxVVO40s3J5WTE1jgCRdX2/wDqHSjaVc/ZirVdRv6OOm77yNI6OxbK6W2XGlroVylppWSsXrauafANZWDqeHk9FgdOzXGO72mjuMK5x1UDJmr1ORF/E7hhNho+my+/R/RlfaprtmSSD0aNfekXZ+CqUZLR62199Hw3aLIx2TqupdO9M/ZY3JPN3kVcNNK+HJmtfEHLR0slbVwUsKbUk0jY2InOqrkhxG96DrF6/wBJ9jgVm1HBN6U/sjTa+KIWt4WStLLwXUw/a47JZKC2RJkykp44U/Zaifgd8Awm0FFdM1i+j2ku/UiN2Y5KhaiP7Mibf4qncXqKta21i9GxNaL0xmTaymdA9el0bs08np4FtL+LBVavhIGABqM5Y3VDvvHv1ie/+rq42/dd/lLIlK9Xa++pNKVta52zHXNfSO69pM2/eRC6hktWJGmp5iCI9Z7EHqjRu+hY/ZludQyDLpYnHd/Cid5LhVnW0xB6Xia02Nj82UVMs709+Rd3k1PE5WsyO2PESBwAbDKC0WqVhn0WwXXEUrMn1syU8SqnsM3rl2uX7pV5jHSORjUVXOXJETnUvxo2w23CeB7PZ0ajXwUzVl65HcZ3mqlNzwsFtS45NlABmNAAAAAAAMRifCNkxhbnW++W+GsgXk204zF6Wu5UXsMuACsGOtVO40jpKvCFa2th5Uo6pUbKnU1/I7vyITvuGL3hmpWmvNrq6CVFyymjVqL2LyL3HoWdeuttFc6d1PXUkFVC7ljmYj2r3KWxua5lTqT5HnSC5mJ9W/AeINuSnopbRO726J+y3P7C5t8MiJsT6qGI7fty2G5Ul0jTekcv5GTzzavihbG2LKnXJEGAzmIcDYmwrIrL1ZK6iRFy23xrsL2OTcviYMsyQAAOgAAAk3RTpzvej6ojoqt8lxsiqiPpnuzdCnTGq8nZyL1Fv8OYjtmKrRT3a0VTKmknbm17eVF50VOZU50PPMk3QVpUm0f4jZSVszlsle9GVDFXdE5dySJ0Zc/V2FNleeKLa7McGXRB8xyNlY17HI5rkRUVFzRUPozGgAAAAAAAAAAAAAAAAAAwuNcRxYTwpdL3LllR07pGovtO5Gp3rkhQKvrp7lW1FbVSLJPUSOlkevK5yrmqlrday9OoMB0ttY7J1wrGo5E52MRXL57JUs00rhkz2vjgAAuKgTxq6aGoMRuTFl/p0koIX5UlO9OLO9F3vcnO1F5udewhG1W+W7XOkt0CZy1UzIWdrnIifE9BMPWWmw9ZKG00bEZBSQthYidSZZ9q8pTbLCwiyqOXk77WtY1GtRGtRMkRORD9AMxpAAAAAAAA5gCm2s1/KrWf3WD+EiokrWLqkqtLF2RFz4JkMfhGnzI1NsOyjHLmwACRwuJqvfyWQ/32f4oS0RLqvfyWQ/32f4oS0Yp9pmuHZQABEkAAAVs1uMM7E9lxJEzc9HUcyp0pxmf5iuheHTlhn6T6NLxTsZtz00fpcPTtR718UzTvKPGql5jgzWrDAALSsunq7Yg9e6L7ax79qWgV9G/q2Vzb91Wklla9UTEGxPfbBI767WVkSdnFd8Wlk3ORrHOVckRM1UxzWJM1VvMSoWtHfPWekZKBj9qO20rIsuh7s3r8U8CHzPY9va4ixnerqrtptTVyOYvu7So3yRDAmqCwkjNJ5eQT/qj2Lh75er29maU0DKZi+89c18mp4kAFw9WGw+qdGsVY9mzJcqiSoVelqLsN/hXxIWvESVSzIlsAGU1Ah7WjsPrTRz6wY3OS2VTJs+hjs2L8U8CYTBY8siYjwbebSrdpaqkkY1Pe2VVvnkdi8PJySysHn8D9c1WOVrkyVq5KnQfhuMZ3bFc5LLeqC5RKqPpKiOZMvdci/gehdFVR11HBVROR0c0bZGqnOipmnxPOcvFoMvnr/RhZKhztqSGH0V/bGuz8EQouXeXUvmjfOYohpdv/ANJNI1+r2u2o/SXQxr7jOIn8OfeXTxzfG4bwfeLurkRaSkkkb9rJdlPHI8/nvdI9z3rm5yqqr0qcpXNi59x+AA0FJuuhjDP0q0j2ahezagjm9Jm6NiPjb+1URO8vSiZJkVv1R8MZrecSys5NmihVU/afl90sgZbXmWDTUsRAAKiwAAAAAAAAAAAAAAA+JoIqiNY5o2SMduVr0zRe40HFOgfAeKUe+Wzx0NQ79PQrwTs+nJOKvehIIOptcjjSfMqnjTVWv9pbJU4arI7vAm/gJESOZE6vZd5EK3C21lpq5KO4Us1LUxLk+KZitc1exT0WNP0h6LrBpFtr6e5U7Y6trVSCtjTKWJebfzp1KWxua7RVKpdxREGZxhhO44KxDV2O5s2Z6d2SOT6sjV+q9vUqGGNC4lAAB0FydXDGr8VYCZR1UqvrLS5KV6qu90eWbF8N37JKpUzVRvb6LHVZalflHX0irs9L2Kip5K4tmY7FiRqreYgAECYAAAAAAAAAAAAAABWzW/qV9Iw1S57kZPJl3sQroWG1v4nJcsNy+ysM7e/ab8yvJrq7KMtnaYABYQN00L0rKvSlhqJ6ZtSsa/L7KK78C9RRHQ7WsoNJ+Gp3rk301jFX7XF/EvcZruZop5AAFJaAAAAAAAqoiKq8gNE00Y6iwLgauqmyo2uqmrTUjc96yORUz/ZTNe46lngcbwslP9I14S/47v1ya7aZNWybC9LUcqJ5IhrgVVVVVVzVQbUsIxsAA6C3+qzUMl0YcG1V2oa6Zrs+ldlfgpL5BmqRVJJgq7U+e+K4K7LqdG35KTmY59pmuHZQABAkAAAfE0TJ4ZIpGo5j2q1yLzopQDHOH34Wxfd7M9qolJUvYzrZnm1fBUPQIqjrXYa9XYwor5GzKK5U+w9UT9JHu/hVvgXUvDwVWrhkg8AGkzkh6Ar/AOodKNne5+zFWOWjk6F20yT72yW10mX36OYCvtzR2y+Kkeka++5NlvmqFDrfWS26up62Bytlp5WysVOZzVzT4FodZDF8VToptCU0iZXySKVEReWNGba+atKLI5ki2uWIsquq5rmAC8qPqON0sjY2Jm5yo1E6VU9A8F2ZuHsJ2i0tTL0SkjiX7SNTPzzKT6JbF9ItItht6t2o1qmyyJ7jOOvk0vim4z3PuL6VzYABQXAAAFCdKNi+jmkC/W1G7LI6t7409xy7TfJUNXJs1rbD6BjiiurG5MuNIiOXpfGqovkrSEzbB5imY5LDaBZ/VHv3D2K9WN7+NTVDahie69Ml82+ZWAlzVfvvqrSU2ie/KO5U0kGXS5OOn8K+JGxZiyVbxIl7WmxB6r0ex2xj8pLnUsjVE52M46+aN8SopOOthiD07GNuszHZst9LtuTofIuf8KN8SDhUsRFjzIAGx6OsOOxZjaz2ZGq5lRUt4X/tt4zvuopNvHEglkuHoVwz9FdHFnons2J5YvSZt2/bk42/sRUTuN4PmNjY42saiI1qIiInMh9GJvLybEsLAABw6AAAAAAAAAAAAAAAAAAAAAV51uMNwvttmxHGxEmjlWjlcib3Nciubn2K13iVnLa619THFo9pIHKm3NcI9lOxj1UqUaquyZrO0AAWlZI2rzM6HS1Y9lfrrKxexYnF2ClurjSOqtLNpciboWTSr2JG5PxLpGW7tGinkAAVFoAAAAAAAAAAAAAABAWt1a3TYesdya3NKeqfC5ehHtzT+Aq8Xl02YYdivRveKKJm3UQx+kwoib1fGu1knaiKneUaNVL+HBmtXEAAtKzmoayW31tPWQO2ZaeRsrF6HNXNPgegOEMRUuK8N2+9Ub0dFVwtkyRfquy4ze1FzTuPPgl3QRpo+gFW6zXl73WOqftbab1pXr7SJ+qvOneVWxysosqlh8S4IOvb7jSXWjirKGpiqaaVqOZLE5HNcnUqHYMppAAAAPxz2sarnKiIm9VXmI1x7p9wjguKSGGrbdrkiZJS0rkciL7z+RvmvUdSb5HG0uZvGI8SWzCloqLtd6plNSQNzc53Kq8yInOq9BSjStpMrdJeInV8qOgoYM46SmVfzbOlfeXn8OY6+kHSbf8ASNcfSbrPsU7FXgKSJVSKJOpOdetTUzTXX0eLM859LggAC0rAAALBaol8ZDdr7ZHuRFqIY6mNOlWKrXeTk8CzhQfRpi1+Cca2u9I5UihlRk6JzxO3O8lz7i+sE0dTCyaJ6PjkajmuTkVF5FMtqw8mip5WD7ABUWgAAAifWXw1690bz1kbNqe1ytqmrz7H1X+S59xLB071bIbzaK221CI6KrgfC9F6HIqfidi8PJxrKwedoO3d7bNZ7rWW2oRWzUkz4Xp1tcqL8DqG0xg2nFWM5cRYawvaHucvqalkhdnzqsi5fcRqGrAYGQADoJx1TrD6bjG43d7c2UFJsNXofIuXwa4taQtqp2L1fgOquj25PuNW5UXpYxNlPPaJpMdjzJmqtYiAAQJgAAEI611i9OwRR3ZjM32+rRHL0MeiovmjSp5fXSjYvpHo/v1tRu0+Ske6NPfam03zRChRppfDBntXEGawRelw7i6z3ZHbKUtXHI5fd2k2vLMwoLSo2fSdiBMUY9vl1a/bilqnNiXpjbxW+SIawAEscAwT1ql4Z9LxFdMQyx5soYUp4nKn6R678uxrfvECl0tXbDP0c0Z0D5GbM9xV1bJmm/J25v3Ub4ldrxEnUsyJMABlNQAAAAAB8TTxU8bpZpGRsbvVz1RETvU+aerp6tnCU88UzP1o3I5PIrrrc3uthksVnimeyllZJUSMauSPcioiZ9OW/wASBbBiu+YXqkqrNdauhlTnikVEd2pyL3lsasrJVKzDwehIKv4N1sLnRtZTYptbK5iblqqXJknarV3L3ZEz4Y02YExS1jaS+08E7v0FX+Rfn0cbcvcqkXCSJRmmbyD5jlZMxHxva9q70c1c0U+iBMAAAAAAA6txulDaKV9XcKuCkp2Jm6WZ6ManepXvS1rLwyU09lwU9znPRWS3JUyRqc/Bpy5+8vcSjFy5EZSS5mrazuPYcSYpgsVDKklLZ0c2RzVzR07vrfuoiJ25kMH697pHOe9yuc5c1VVzVVPw1xWFgyt5eQAERXKiIiqq7kRCRwnvVJsLqjEV3vjmfk6WnbTsd7z1zXyb5loyPtBeCXYIwBR01RHsV1Z/vdSi8qOcm5q9jck8SQTHN5kaq1iIABAmAAAAAAAAAAAAAAAfjmo5qtcmaKmSoUi026P5MBY1qoYolbba1y1FI7LcjVXez9ld3ZkXeNQ0o6OqHSRhmW2VGzFVR5yUlRlvik+S8ioTrn0WQnHpIogDJYiw7csLXeotF2pn09XTu2XNdyKnMqLzovMpjTWZQADoNiwnpDxRgmTasV3qKVirm6FV24ndrF3EoWzW1xTTRoy4Wa1VqpyvZtxKvmqEGgi4J8zqk1yLBv1v7krPyeFaNHdLqpyp/CYO661mNq1qsoqS1W9F9pkTpHJ+87LyIYBzq4+B3rJeJsuItJWL8VbTbviCuqI3csKP2I/3W5J5GtAEksEcg+oopJ5GRRMdJI9Ua1rUzVyryIiHNbrdWXatioaCmlqamZyNjiiarnOXqQtboU0BQYOSK/YiZHU3pUzih+syk+b+vm5ukjKaiiUYuRFF91fbnYNFzsT1bn+to3tmmo03pFTqmW/3k3KvQhEJ6M1dJDXUstLUxtlhmYscjHJuc1UyVFKKaU8CVGj7GFZaXtctK5eFpJF9uJVXLvTkXsIV2dLgydkMcUaiAC4qBb7Vpx99KMHepauTar7PlFvXe+FfqL3ZK3uQqCWQ1T8H3SjmuWJ6mJ8FFUQpTQI5MuGXazVydSZImfWpVal0eJZU3kscADKaQAAAAACm2srhr1FpKqauNmzBdIm1Tck3bf1X+aZ95FRazWww16fhGgvsTM5LbUbEip/Vybv4kb4lUzXW8xMs1iQABYQARM9yb1BsGj6xriPG1ktWztNqKyNr09xHZu8kU4EXZ0aWNMOYDsVr2dl8NIzhE99ybTvNVNlPxrUY1GomSIfph5mxcAAAdAAAPx7GvYrHJm1yZKnSef8AjqyLh3GN5tKt2UpquRjE93aVW+SoegJUDWisPqvSMle1uUdypWS59L25sXyRviXUvjgqtXDJEAANJnAAAMnheyS4jxFbbPCiq+sqGQ7uZFXevcmanoLQ0kVBRwUkDUbFBG2NjU5momSfAqbqs4Z9bY8mu8jNqG1U6vRVTdwj+K3y2lLcGa58cGilcMgAFJaAAAAAAVg1vf8A57D391l/jQgAs/rZYUq6+02rENNE6SOhc+Go2Uz2GvyVHL1Zoqd6FYDXU/hMti+JgAFhAy9mxhiLD7kW03u4UWXswzua3wzyN1tesZpGtqI114irGpzVNOx2feiIvmRmCLinzR1Sa5E30mtpjCJESotNmn60ZIzP7x3m63t8RONhm2qvVM9CAgc6uPgd6cvEneo1usSvTKDD9piXpe6R34oa7dtZnSFcmuZDWUVvau7/AHanTPxdtEVAdXHwHTl4mTveJ73iSfh7xdayvfypw8quROxORO4xgBIiAAdAJl1dNFL8WXxmI7pAvqi3yIsaPTdUTJvROtG8q9ydJhNEWha6aRq5lXUtko7HE78rUqmSy5crY+levkQuPZbNQ4ftlPbLbTspqSmYkccbE3Iifj1lNlmOCLa4Z4s7qJkmSAAzGgAAAAAAAAAAAAAAAAAAAAA0nSboosmkq3cFWs9Hr4kX0etjTjx9S/rN6io+PdFWJtHtU5l0onSUmeUdbCiuienb7K9Sl7jjqaaCsgfBUwxzRSJsuZI1HNcnQqKWQscSuVakecoLj4r1a8EYie+ejp5rNUu37VG5ODz+wuaeGRGV31R79A5y2m/W+rZzNqGOid5bSFytiyl1yRAoJUqdWXSNTqqMoKKdOmOrZv8AHI4Gat+kh65epoW9bquP5k+nHxOdCXgRkCYqDVXx5UqnpMlqo2+/UK5U/dapuVj1RIGOa++YkklTnjo4Ubn+07P4EXZFd51VyZWtEVVyTepI+AdA+LccPjnWlda7c7etXVtVu0nuM5XeSdZaLCehrBODnMlt1lhkqW8lTVflZM+lFduTuRDdURE5EK5XeBONXiaVo60SYc0c0uVup+HrntylrZkRZH9Sfqp1J5m6gFLeeZcljkDQdMei+m0k4bdBGjI7rS5yUcy8zudir+q7yXJTfgE8PKDWeB51XO2Vlmr57fcKeSmqqd6xyRSJkrVQ+rVaa+910VBbaSarqpl2WRRNVzlUvRjDRbhLHMjZr5aY56hqZJOxyxyZdCubkqp2nYwjo7wxgeNzLDaoaRz0yfLvdI9Oty5r3F/XLHIp6niRFos1ZKW3cDdsabFXVJk5lvYucUa++vtL1Ju7SfYIIqaJkMMbI42IjWsYmSNROZEPsFMpN8y2MUuQABEkAAAAAAYfF+HKfFmGblY6nJI6yB0e1+q72Xdy5KULxFh25YVvFTabrTPp6qnerVRyZI5OZydKLzKehhjLzhex4iajbxaaGvRv1fSIWvVOxVTcWVz6JXOHSPPQF8P9kWAf+kbP/h0H+yLAP/SNn/w6FvXIr6llDyetVnAFVV36XF1ZTujo6SN0VK56ZcJI7cqp0ojc0z6VJ6p9FWBqWRJIsKWdr03ovozVy8UNnhgipomxQxsjjYmTWMTJEToRCErcrCJRqw8s+wAUlwAAAAAAIZ1nMB1WJ8K014t0Dp6q0uc57GJm50LvrZJz5KiL2ZkzBUzTJTsXh5ONZWDzhBfW56K8EXiodUV2GLXLM9c3P4FGq5elcsszpf7FNHf/AEnbf3V+Zf1y8CjqWUXP2ON8r2xxtc97lyRrUzVV6ELz/wCxTR3/ANJ2391fmZOyaOMIYdnSotWHbbSzpySshRXt7FXeg65eA6lmp6vmAJ8EYJa+4QrFcbk/0mZjk40bcsmMXrRN/aqkngFDeXll6WFgAA4dAAAAAAOKqpYK2nkpqmJk0MrVa+N6Ztci8qKhAOkPVYpq6WW4YNqmUb3KrloKhV4NV9x3K3sXPuLBglGTjyIuKfMoFibR9ijB8rmXqy1dK1Fy4XY2ondj0zTzNePRySKOZjo5WNexyZK1yZopo+ItCGAsSq59VYKeCZ3LLSZwuz6eLuXvQtV3iVOnwKNgs5e9UW1zK59lxDVU3RHVRJKnimSmlXPVTxtSK5aKqtVc1OTKV0ar3OTLzLFZFkHXJEMAkOr1ftJFIqouHXy5c8M8bv8AMY5+hvSDGuTsJ3Tujz+BLpLxI9F+BpoNyj0NaQZVybhO6ftR5fEy1Bq76R65UT1ElOi+1PURty88x0l4jovwI3BO1m1ScR1Ktdd71b6JnO2FHTO/BPMknDOrBgmzK2W5JV3iZu/8u/Yjz+y3LzVSLtiiSrkyqdhwzecT1jaOzW2prp1XLZhYqo3rVeRE61LBaNtVuOnfFcsazMmcmTm26B2bU+27n7E8SfbVZrbY6VtJbKGmoqdvJHBGjG+CHcKZWt8i2NSXM4aOjp7fTR0tJDHBBE1GsjjajWtROZEQ5gCotAAAAAAAAAAAAAAAAAAAAAAAAAAAAAAAAAAAAAAAAAAAAAAAAAAAAAAAAAAAAAAAAAAAAAAAAAAAAAAAAAAAAAAAAAAAAAAAAAAAAAAAAAAAAAAAAAAAAAAAAAAAAAAAAAAAAAAAAAAAAAAAAAAAAAAAAAAAAAAAAAAAAAAAAAAAAAAAAAAAAAAAAAAAAAAAAAAAAAAAAAAAAAAAAAAAAAAAAAAAAAAAAAAAAAAAAAAAAAAAAAAAAAAAAAAAAAAAAAAAAAABw1ddTUEfC1U8cLOTN65EZSUV0pPCOpNvCOYHXo7lR17VdS1MUyJy7Ds8jsCE4zXSi8oSi4vDQABI4AAAAAAAAAAAAAAAAAAAAAAAAAAAAAAAAAAAAAAAAAAAAAAAAAAAAAAAAAAAAAAAAAAAAAAAAAAAAAAAAAAAAADo3O9UFpi26uoYzobyud2IV2Wwri52PCXeyUISm+jFZZ3j8c9rEVXORqJzqpH900kTyKrLbAkTeThJd6+Bq9deK+4uVaqrllz5ldu8OQ+W1u9+kpzGlOb9F6/g9vTbA1FnGx9FerJTrMV2ehzSSuic5PZYu0vkYep0lW6PdBTVE3WuTUI4B85fvjrZ/ppRXyz/AD7HsVbvaePbbf2N1m0mzuVeBt8bftSKp1X6R7qv1YKVv7Kr+JqgPMnvFtGfO1/TC/wbY7I0cf2fybOukS858lN+4vzPpuka7p9aOld+wqfiasCtbd2gv+5k/wD4vSf+tG5Q6S6xv52hhenuuVPmZGm0l0T8kqKOaLraqOT8CPAaqt6No1/9mfmkUT2Jo5ftx8myX7fiq0XFUbDWMR6+w/ir5mVRyLyEFm4YDxDUtuDLbPK6SGVFRm0uatVN+7qPptk72vUWxo1MMN8E14/I8XX7B6mt20yyl3MkUAH2582AAAAAACPtJkdR6ZSSLtej8GqN6EdmuflkSCda4W+nudK+mqo0fG5OflTrQ8za+get0sqIvDf+DZoNUtNerWspEM0lZUUMyTU0z4pE5HNU3exaRGO2YLqzZXkSZibu9Pka7iTC9TYZldvlpXLxJcuTqXrMIfl9Gt12yLnXnGOafJ/74o+2s02l2hWp8/NcycKaqgq4mywSslY7kc1c0U5SF7ZeK60S8JRzuj6W8rXdqG82XSFS1WUVxZ6NLybab2L8j7rZm9Wm1WIXfBLz5evufMazYd9GZV/FH7+ht4PiKaOaNJI3te1yZo5q5op9n1CaayjxMAAHQAAAAAAAAAAAAAAAAAAAAAAAAAAAAAAAAAAAAAAAAAAAAAAAAAAAAAAAAAAAAAAAAAAAAAAAAAAAAq5JmDhrYX1FJNCx2w57FajuhVTlIybSbR1LL4mm4lx6sMj6S1ZK5vFdOu9EX3fmaNPUTVUrpZ5HyyO3q5y5qpnVwHfeEViU7FRF+vwiZKdqHRxdX/nJqaPvVfwPyzX0bX2jY3ZXLHcsYS/3xPt9JZs/SQxCaz495qgN4h0YvX87cUT7MfzU7cWjOhb+crah3YiIU17rbSlzhj5tFstuaOP7s/RkeAkxmjqzt+s6pf2v/wBDnbgGxt5YJHdsimmO52vfNxX1/BS94dKuSfp+SLASr9BLF/wrv/sd8z4fgCxu5IZW9kiknubrv7o+r9iK3i03g/Re5FoJGqNGtuei8BU1ES9eTkNfu2Arlb2OlgVtXE3euwmTkTsPP1W7e0NPFycMry4/k1UbZ0tr6Klh+fA1kBUVFyXcDwj1QZPDLlZf6BU/rmp5mMMphaNZMQ0DU/rUXw3mvZ6b1NeP7l/Jn1f6E8+D/gmEAH7kfmYAAAAAAAABx1FNFVQvhnY2SN6ZK1yZopG+KMFy2tX1VEjpaTlVvK6P5oSYFajkVFTNF5jytqbIo2hX0bFh9z71/vgbtDr7dJPpQ5d6IKBv2KMCpKr6y1MRr+V8Cci/Z+Rockb4nuZI1WvauStVMlRT8p2lsq/QWdC1cO59zPutFrqtVDpVvj3rvR3rXfbhZ37VJUOa3njXe1e43WzaQ6SpyjuEa00i7ttN7F/FCOgXbO25q9DwrlmPg+K/H0KtXsvT6njNYfiuZOMFRFUxpJDIyRjuRzVzRTkIVt12rrVJt0dQ+Lpai8Ve1OQ3K06SGuyjucGyv9bFvTvQ+62fvbpb8Rv+CX29fc+Z1ewb6uNfxL7+hvAOrQXSjuUfCUtRHK33V3p2odo+ohOM49KDyjw5RcXiSwwACZwAAAAAAAAAAAAAAAAAAAAAAAAAAAAAAAAAAAAAAAAAAAAAAAAAAAAAAAAAAAAAAAAAAAAAAAAAAAAAAAHxJNFC1XSyMY1OdyoiHG0llhLJ9g4YK2mqc+AqIpcuXYeinMcjJSWYvJ1prgwFTNMgCRwinG9Ayhv8vBNRrJWpJknJmvL5oYA2jSI9HX1rU5WwtRfFTVz8V21CMNddGPLpM/RtmyctLW5eANiwFBw2IoXZbomOf5Zfia6bvozpFWasq1Tc1GxovbvX8C3YFPW7Qqj4PPpxIbVs6vSTflj14G/AA/ZT88AAAAAAAAAAAABgcR4SpL2xZGokNUibpUT63UvSZ4GfU6WrU1uq6OUy2m6dM1Ot4ZC10tNXaKhYKuJWO5nczk6UU6ZNdwtlLc6d0FVC2Ri9PKnWnQRziLBNXaVdPS7VTSpvzROMztTn7T812zuxbpM26f4ofde/zPsdnbbrvxC7hL7M1oAHyh7xyQVE1LIkkEr4npyOYuSmzWvSFcKTJlYxtVGnP9V/jzmqg26PaOp0jzRNr+PTkZtRo6b1i2OSWbXjK03NEa2o4GRfYl4q+PIZtHNcmaKip1EFmRt2IbnalT0aqejU9h3Gb4KfX6HfRrEdVD6r2/J8/qd3Fzol9H7kyA0W26SkXJlxpVT+0h3+Sm027EVsuiJ6NVxucvsOXZd4KfXaPbOj1f6Viz4Pg/Rng6jZ+oo/Ug8ePNGRAzTpB6ZiAAAAAAAAAAAAAAAAAAAAAAAAAAAAAAAAAAAAAAAAAAAAAAAAAAAAAAAAAAAAAAAAAAAOtWXKjt7NuqqYoW+87I1m5aRqGDNtFFJUv/WXit+Zh1e0tLpVm+aXl3+nM00aO69/8UWzb80Qx1yxDbbUi+lVTGuT2EXNy9yEb3PGV3uWbVqOAjX2IeL58phHOVyqrlVVXlVT5LW76QWY6WGfN+x72m3ck+N8seS9zdbppIlftMt1OjE5OEl3r3IalXXOsuUnCVdRJKvvLuTsQ6wPj9btfV6x/wDNNteHJeh9Dptn0adf8cePj3nJT1M1JK2WCR0cjVzRzVyUl3DN0dd7PBVSInCKitfl0puIko6OevqGU9NG6SR65IiEvWC1+p7XBR7W05qZuVOdy71Pp9y1f1s3x6vH0yeJvG6uhFfvz9jIgHFVTtpqaWZ65NjYrl7kP0OUlFNs+TSy8IijGFSlViKsci5oxyMTuTIwxyVEzqieSZ31pHK5e9TjPwvV3ddfO3+5t+rP03T19XVGHgkgSngOhWjsET3Jk6dVlXs5E8kIyoqV9bVw0zPrSvRid5NdLA2mp4oWJk2NqNTsQ+v3L0nSunqH3LC+b/37nz+8d+K40rv4+hyAA/Rj5EAAAAAAAAAAAAAAABUzTJQADVsQYFpblt1FHs01Qu9UROI/tTmI9uFsq7XOsFXC6NyciryO7F5yazq19tpblA6GqhbKxeZebs6D5ba269GrzZT8E/s/n7nt6DbVun+Cz4o/dEKA26+6P6mk2p7a5aiLl4Nfrt7Ok1J7HRuVj2q1yblRUyVD8412ztRo59C+OP4fyZ9hptZVqY9Kp5PwAGI0gIqouaLkvSAAZa34pu9tySKre9iexJxk8zZbfpLTc2vo1T34V/BfmaID1tJtzXaXhXY8eD4r7nn37L013GcOPiuBL1Biyz3DJIqxjXfqycVfMyzXtcmbVRU6UILO3R3evt650tXNF1I7d4H02l31kuGor+q9n7njX7trnTP1JqBGlDpFulPk2ojhqWpzqmyvihnqLSPbZskqYZqdenLaTyPotNvNs+/h0+i/Ph+PueRdsbV1/tz8uP5NtBjqPEVqrsuAroXKvsq7JfBTIoqKmaKint1XV2rpVyTXk8nnTrlB4ksAAFhAAAAAAAAAAAAAAAAAAAAAAAAAAAAAAAAAAAAAAAAAAAAHXqrjSUTc6iphiT33ohGU4wWZPCOxi5PCR2Aa5WY+s1KipHLJUOTmibu8VMDWaS6l+baOjjjTmdIu0vgh4+p3h0FHasTflx/g9CnZWqt5Qx8+BIOaHSrb3brcirVVcUapzK7f4EWVuKLvcM0mrZEavsx8VPIxauVyqrlVVXnU+d1W+sVw09efN+y9z1qN25PjdP0JEuGkehhzbRwS1C/rO4rfma3cMc3iuzayVtMxeaJMl8eU14HzWr3j1+p4OeF4Lh+fue1p9j6Wnio5fnxPuWaSd6vlkfI5eVzlzU+ADxHJt5Z6SSSwgActNSz1kzYaeJ8sjuRrUzURi5PoxWWHJRWWcRmLDhetvsiLG1YqdF40zk3d3SbNh/R82PZqLqqPdypA1dydq85usUTIY0jjY1jGpkjUTJEPttkbpTsxbreC/t7/AK+H8nzev29GOYabi/Hu+hjrLh+iscOxTR5vVONI76zjJgH6DTTCmCrrWEu4+TsslZJym8tg13Hdf6FYZWNXJ9QqRJ2c/khsRHGka48PcoqJq5tp25uT3l/0y8Tyd4dX/TaCyS5vgvr+DfsmjrtVFdy4+hqIB+tRXKjUTNV3InSfjq4n6EbXo7ta1NykrntzZTpk1feX/QkkxOF7SlntEMCoiSOTbk+0v/uRlj9l2FoP6LRwrfafF/N+3I/O9p6r+o1EprlyXyAAPYPPAAAAAAAAAAAAAAAAAAAAABiLzhe33pirPEjJuaVm5yfMy4Kb9PXfB12xTT8Syu2dculB4ZFN6wXcbSrpGN9JgT2403onWhgCdVRFMBesGW27bUiM9HnX9JHuz7U5z4jae5yeZ6J//V/4fv6n0mi3ha+HUr6r2IpBnbxg26WnafwfpEKfpIkzy7U5UMFyHw+p0l2mn0LouL8z6anUV3R6VcsoAAzlwAAAAAAO1S3Wvol/3esni6mvXLwOqCdds63mDafkRnCM1iSybFSY9vVNufJFO3+0Zv8AFMjL0uk1dyVVv743/gpowPWo3h2hT2bW/nx/k8+3ZOks5wS+XD+CT6XSDZZt0j5oF99nyzMrT4jtFV+auFOq9CvRF8yGwexTvnq48LIRl6owWbuUPsSa+5Occ0cqZxva9Olq5n1mQbHPLCuccsjF91yod6DEd3p8uDuNQiJzK/P4np1b7VP9Spr5PPsYp7t2fsmvqv8A9JkBFUOO75Dy1Ecn240/A70Wkq5N/OU1M/szT8T0K979BLtZXzXtkyT2Bqo8sP6kjg0SLScv6W3fuyf6Haj0l0K/nKOob2Kim2G8mzZ8rfVP2M8tj6yP7P4NxBq8ekWzO+slSztZ8lOdmPLE/wDnL29sbjTHbOhlyuj6ooez9Sudb9DYQYNuNbE7+fNTta75HImL7Gv9Iw9+ZctpaR8rY+q9yt6O9fsfozMAxKYrsq/0lT+J+/Smy/8AMqf94l/X6b/2R9V7nP6a7+x+jMqDEriyyJ/SMHifLsYWNv8ASMXcinHtDSrnbH1XudWlvf7H6MzAME7HFib/AD3PsY75HA/SBY28k0z+yNSqW1tFHndH1RNaHUvlW/RmyA1OTSRam/Uhqn/son4nVl0mwJ+aoJXfaeiGee8Ozoc7V93/AAWx2Vq5cq2bsCPpdJtSv5qgib9p6qdKbSJeZc9hKaJOpmfxUx2b2bOjyk38k/8AODTDYWrlzSX1JOzCqicqkRTYvvc/1q+RqdDERvwOhPcq2p/PVc8n2pFU8+3fXTr9Otv54Xuaobt3PtzS+/sTFUXWhpc+Hq4I8v1nohjKjG9jp8/984RU5o2qpE67+UHmXb66iX6VaXzy/Y217t1Ltzb+3uSFVaS6RmaU1HNJ0K9Uan4mIqtI10lzSCGngTpyVy+ZqgPIv3l2jb/2Y+SS/Jvq2LpIfsz8zJ1eJbvWZpLXzZLzMXZTyMa5znqrnOVyrzquZ+A8e3UW3PNsm/m8no1011rEIpfIAApLAAAAAERXLkiKq8yIEsgH61quVGtRVVdyInObDZsD3K5q18zfRYF37UicZU6kN7s2FLbZmo6KFJJueWTe7u6D6PZu7Or1eJTXQj4v/CPH1m2qKPhi+lLy9zSbHgOuuKtlrM6SBd+Spx3d3N3m/wBpsdDZoeDpIWsXneu9zu1Tv5A/Qtm7E0ugWa1mXi+f4PktZtK/VP43heC5AAHsGAAAA+J5WwQvleqI1jVcq9CIQtcqx1wr6ireu+V6u7E5iR8fXP0GyrAx2UlSuwn2ef8A96yLz853z1vSthpY/t4v5vl9v5Prt3NN0YSvffwQNnwHY/WNy9MlbnBTKi7+Rz+ZO7lNfoaKa4VcdLA1XSSLknV1kw2a1Q2e3xUkPI1OM79Z3Oph3W2S9VqOvsXwQ+77l/k1bb13UVdVF/FL7I7qJkAD9UPhwAAAAAAAAAAAAAAAAAAAAAAAAAAAAABzGEu2ELXdkVz4eBmX9JFuXv6TNgo1Gmq1EehdFSXmWVXTql0q3hkYXbAVzoFc+m2auJP1Nzk7vka3JG+J6skY5jk3K1yZKhOZ0bjZbfdGK2rpmSLzOyycnfynx+v3NqnmWll0X4PivXn/ACfQaXeGyPw3rPmuf++hDAN6uejblfbqnL+zm+aGqXCw3K1qvpVLI1qe2iZt8UPjdbsXWaT9WDx4rij6LTbS0+o7EuPhyZ0AAeWbgAAAAAAAAAAAAAAAAAAAAAAAAAAAAAAAAAAAAAAAAAAAAAAAAAAAAZS3YZut0VFgpHoxf0knFb5l1Gntvl0KouT8iuy6FS6VjwvMxZyQQS1MiRwxvkevI1qZqb3bNG8MeT7jULKv9XHuTx5TbKG1UVtj2KSnjiT3U3r2qfU6Hc/U24lqH0F6v2PD1O8FMOFS6T9ER9adH1fWZPrXtpI/1eV693MbpacLWyzoiwQI6VP0r97v9DLg+12fsHR6LjCOZeL4v8fQ+b1W1NRqOE5YXguQQAHsnngAAAAAAcwOtcp3UtvqZ2JtOjjc5E60QjOSjFyfcdinJpIjXHVz9Pvb4mOzjpk4NO3n/wDeo15jHPcjWtVzlXJETlVT6/K1Uy5I6SWR2eSJmqqpIeEMHJb9mur2o6pXexnNH/qfken0d+2dbOxcE3lvwX+8j723UVbO00YPmlwXizs4MwwlnpvSalqelypv9xvR8zZgiZA/VNHpK9JSqalhI+H1F877HZY+LAANRSAAAAAAAAAAAAAAAAAAAAAAAAAAAAAAAAAAAAD8cxHtVrkRUXmU/QAYS5YNtFxzc6mSGRfbi4q/I1e4aNqqLN1DVMlT9WTir48hIYPH1ewdDquM68PxXBnoafampo4Rlw8HxIZrrFc7cq+k0czET2kTNvih0CdFai7lTMxlbhi0XDNZ6KLaX2mJsr4ofMarcp89NZ9H7r2Pao3k7roent+SHgSDW6NKV+a0dXLEvM2RNpDBVmALzTZrG2Kob/ZuyXwU+d1O7m0KOLryvLj+T16dsaS3lPHz4Gtg7VTaq+jVUqKSeLLncxcvE6p406p1vE00/M9GE4zWYvIABAkAAAAAAAAAAAAAAAAAAAAAAAAAAAAAiK5ckRVXoQJZABkKSwXSt/MUM7k6Vbknipm6LRzdJ8lqJYadOjPaXyPQ0+ydZqP0qm/pherMduv09XbmjVAiKq5IiqpJFDo4tsOS1Us1Q5ObPZTy3+Zn6Kx2635ei0cMap7SNzXx5T6DS7m6uzjdJRXq/b7nlXbxUR4Vpy+xFtBhe73HLgaORGr7cnFTzNkt+jR251fWInuQp+K/I3zLIH0mk3S0VPGzM358vRHj37e1NnCHwryMTbsLWm2ZLBSMV6e2/jO8zLZInIgB9HTRXTHo1RSXksHj2WzsfSm8vzAALiAAAAAAAAAAAAAPxzUc1WqmaLuVD9AB0qay2+jlWano4IpF9prEzO6AQrrhWsQWF5EpTlJ5k8gAEyIAAAAAAAAAAAAAAAAAAAAAAAAAAAAAAAAAAAAAAAAAAAAAAAAAAAVqKmSoip1mPqrBa63Ph6GByrz7KIvihkAV2U12LFkU15olCcoPMXg1mp0e2afNY2zQL7j93mYuo0ZJvWnuCp0JIz8UN6B5V27+z7e1Uvpw/g3V7V1dfKb+vH+SM59HN3jz4OSmlTqcqL5oY+bB18gzzoHuy/UVHEuDI8y3c7Qy7Lkvr7o217wamPaSf0IWls1yg/OUNS3tjU6z4ZGfXje3tRUJyyQ+XRMd9ZjV7UME9yK/2Wv6r8mqO8s/3Vr1IMBNklsopfr0kDu2NDgdh20v+tbqVf8AxoZZbkW/ttXoy+O8sO+t+pDQJgdhSyO5bdB3NyONcG2Jf6Pj8V+ZS9ytV3WR+/sWLeSjvg/t7kRglr6F2L/gGfvO+Z9Jg2xJ/R8feq/M5/4Xq/74/f2O/wDkdH9r+3uRGCYG4UsjeS3U/e3M5WYftUf1bfSp/wCNCyO5Oo77F9yD3kq7oP7ENHJHTzS/Uhkf9lqqTTHb6SL83SwN7GIhztY1v1WonYhphuR/fd6L8lMt5f7a/v8AghqGw3Wf83b6lf8AxqnxO9Bgi+z/AM0SP7b0QljJBkbaty9Ku3OT9F/gzT3jvfZil6kcU+ja5P8Az1TTxJ1ZuUyVNozpm5ekV0r+pjUb8zdQelTuvs6v9mfm2Y7Ntauf7sfJI1+mwJZKfetM6ZemR6qZaltdFRplT0sMX2WIh2gerTodNR+lWl8kjDZqbbO3Jv6jIAGsoAAAAAAAAAAAAAAAAAAAAAAAAAAAAAAAAAAAAAAAAAAP/9k=;" vertex="1" parent="1">
          <mxGeometry x="670" y="280" width="166.39" height="93.69" as="geometry" />
        </mxCell>
      </root>
    </mxGraphModel>
  </diagram>
</mxfile>
